<mxfile host="65bd71144e">
    <diagram id="zObO9Cl6Q-u9RFOYNNMs" name="Page-1">
        <mxGraphModel dx="996" dy="579" grid="1" gridSize="10" guides="1" tooltips="1" connect="1" arrows="1" fold="1" page="1" pageScale="1" pageWidth="850" pageHeight="1100" math="0" shadow="0">
            <root>
                <mxCell id="0"/>
                <mxCell id="1" parent="0"/>
                <mxCell id="2" value="Aufgabe:" style="text;html=1;align=left;verticalAlign=middle;whiteSpace=wrap;rounded=0;" vertex="1" parent="1">
                    <mxGeometry y="40" width="60" height="30" as="geometry"/>
                </mxCell>
                <mxCell id="4" value="" style="shape=image;verticalLabelPosition=bottom;labelBackgroundColor=default;verticalAlign=top;aspect=fixed;imageAspect=0;image=data:image/png,iVBORw0KGgoAAAANSUhEUgAABLAAAAKjCAYAAAANs/bAAAAAAXNSR0IArs4c6QAAIABJREFUeF7s3QecV8eRJ/AecpRAEggQKOecA8o5oCzLkpw3Ou067e3u7d7eBnvP9t2tw63tjc5ZkpUDyjlnlBMgEEEIJYTIYW6/PdToz2gGBgRokOp9PnyAmfe6q39dXV31e9X1mqZPm9Zc8koEEoFEIBFIBBKBRCARSAQSgUQgEUgEEoFEIBFIBLooAk1JYHXRmUmxEoFEIBFIBBKBRCARSAQSgUQgEUgEEoFEIBFIBCoCSWClIiQCiUAikAgkAolAIpAIJAKJQCKQCCQCiUAikAh0aQSSwOrS05PCJQKJQCKQCCQCiUAikAgkAolAIpAIJAKJQCKQCCSBlTqQCCQCiUAikAgkAolAIpAIJAKJQCKQCCQCiUAi0KURSAKrS09PCpcIJAKJQCKQCCQCiUAikAgkAolAIpAIJAKJQCKQBFajDjQ1lW5NTakViUAikAgkAolAIpAIJAKJQCKQCHzgEVja3FyKP3klAolAItAFEEgCq2ESevTsWQYMGFC6devWBaYmRUgEEoFEIBFIBBKBRCARSAQSgUTgvUFg6ZIl5a233iqLFy9+bwTIXhOBRCARaINAElgNgPTq1asMGjw4CaxcJolAIpAIJAKJQCKQCCQCiUAi8IFGYMmSJWXWG2+UhQsXfqBxyMEnAolA10EgCawksLqONqYkiUAikAgkAolAIpAIJAKJQCLQJRBIAqtLTEMKkQgkAg0IJIGVBFYuiEQgEUgEEoFEIBFIBBKBRCARSASWQyAJrFSIRCAR6GoIJIGVBFZX08mUJxFIBBKBRCARSAQSgUQgEUgE3mMEksB6jycgu08EEoF3IJAEVhJYuSwSgUQgEUgEEoFEIBFIBBKBRCARWA6BJLBSIRKBRKCrIZAEVhJYXU0nU55EIBFIBBKBRCARSAQSgUQgEXiPEfAVwjeyiPt7PAvZfSKQCDQikARWEli5IhKBRCARSAQSgUQgEUgEEoFEIBFYDoGlS5eWN15/Pb9CmHqRCCQCXQaBJLCSwOoyypiCJAKJQCKQCCQCiUAikAgkAolA10AgCayuMQ8pRSKQCLyNQBJYSWDlekgEEoFEIBFIBBKBRCARSAQSgURgOQSSwEqFSAQSga6GQBJYSWB1NZ1c5/I0Nze/o8+mpqZ1Lkd2mAgkAolAIvBOBBptNNsc/087ndqSCCQCicDaRSCLuK9dfLP1RCARWHUEksBaiwQWJ9sfTnY62quunOvqifcDgRV6tq4w64r9JAZda1a68nx0ZdnW5ix2JeIn9sdu3bqtcMjt2ed4YHX21bZk2NrEu6u3vbrrYHWf6+p4pHyJQCLwTgSSwEqtSAQSga6GQBJYa5HAWrhwYZk2bVrp27dv2XTTTTs191J1/eHUr8yx71SDDTfZhLTdo0ePJNQacFm0aFFZvHhxJRt79uxZ/6wvF5nffPPN+mfjjTcu/fr1W19EX6NyvvXWW2XevHllo402Kt27d1+jba+oMXrj0mdngmk2wb3rUsZ1BcaCBQvK66+/Xu3dgAEDymuvvVZtzYYbbrjGbdm7GRNdIVusl87M27vpr6s8y1b4khSdHTJkyHsmFjnmzJlTXnrppWJP2nzzzUufPn2qXPTFZZ+yRsK+0S1r2/+nT59edcz8reoeqQ97Mh2wJ0eb8ZJpTRB87NDs2bPrGlhT9nhFhNHqkklskXWwwQYbrJKc9kt6ZM6McW2vH3PGrtiX2ZK13d97tjBWoeN3q2PWHRxXdf2sgoh56/sIgSSw3keTmUNJBN4nCCSBtRYJrPnz55err766OuannHJKdbpXdIVz/sILL5TtttuubLLJJmvMWRMQPP/889X532uvvarTmlcpnPFHH320PP744xXrLbbYomIvwFsfiCy6de+995bbbrutnHHGGWXHHXf8wE0r5+qRRx4p48ePLyeccMI6020B4GOPPVaD8N13370GdCu6BOF33HFHGT58eNlhhx3eVyQW2/Xiiy+W3/3ud2WnnXYqhx9+eLniiitqwHnEEUesFJt1pbTkpCvs8pgxY8puu+22WvMQJNjgwYPLwIED15X476oftuLGG2+sZMCHP/zh9yx4tW4uv/zycvvtt5fNNtusfPSjH61r1lqyjgTnyK1YI+zbpEmT6nyx1//5n/9Ztt1223LqqaeWXr16dRoTe+Bzzz1XfvrTn5a5c+eW008/vRx44IGVjEGWmcdXXnml9O/fv5jX1SVK2KFrr7227rMHHXRQp+Xr6MZGEm/QoEGtYw5CElk2bNiw5bCYNWtWYW+Mo6N9bMqUKeWyyy6rmB988MGd1odXX3213HDDDWWrrbYqe++9dyvp+K4H2kEDSLbf/va3dV9mS9aHfXltYRHtPvDAA+W+++4rRx55ZLW3q3KxA08++WTV82222WZVHs17P6AIJIH1AZ34HHYi0IURSAJrLRJYnO2xY8fWoJWTzlFckVPMwb7llluq8/vxj3+87Lzzzp12KlemY5yW6667rpI1H/vYx8rIkSNX9kiX+D0nXcADm969e68xPGJwnON///d/Lw8//HArJjbrY489tjqHnLyufNEx+iIQ+fSnP1323XffrizuWpGNbiPwBMDWjayKdXHJIvnlL39Zszl+//d/vwaLK7oElf/n//yfGtiedtpp76tAzDp99tlna6BJBxFYiAZE8JlnnrlKGR5rc+7Ieeutt1YSw5yNHj16lQNwtujmm28uv/71r8tZZ51VTjrppLUp8hpr2zo5//zzy4wZM8qXvvSlNW5LOysom/v1r3+9klbWAWIiSIqPfOQj5emnny5PPPFE+dSnPlVf+rBvzzzzTPm93/u94qXQ3/7t35Y99tij/NEf/VHdEzp72UeQqjfddFM56qij6twjWO+5556aEbbrrruWa665pmy//fbV9q9udgo7RL8OPfTQSpK924vOPvTQQ5V8pGvkdCHhLrroorp3ISQPOOCA6l/Yv8wzAutDH/pQhwSrF1r/+q//Wp+jx53NCkUuWue77LJLXeerQiKuDhZeun3zm99slXNV5nx1+lsfnqGn1gW/clX3fPvQT37ykzJixIhy9tln1+HyIzqbGUwf3W99RMbk+oBZyrj6CCSBtfrY5ZOJQCKwdhBIAqsBV47YoMGDV9txbTtFNvoJEyaUH/zgB5W84pyvyNkTGMkMQEZ8/vOfr880OtE2Ef/vzJthbTXW3iILx5PzIsuobTbYio4h6HdFzu3KjjC8m2MZnHDkhCNysmvWNKEEk+985zvFm22BNjJCgIvoE0AdcsghXdpJ40h6Gy4wE9AhRz5oF12XzSGL7rzzzltnBBbsvcmWAbHPPvusNMNS8E23BA7I6c4GjOvDfFrjMk/YL1kZe+65Zw2SEFgyZdbUUap3iwU5vVD4xS9+UT7xiU/UDJxVDcJmzpxZA3gvJ4wNEba2g/h3O+4IUhEbyKI/+ZM/WWP73KrIFnvi//pf/6tmJcsadcmCYnPZLxk+svn233//OjdevMicQk7bD772ta/VzDmE1qqQGZ5F+NhLEDsynJF6EydOrASWdYl88rdM1s7ss+2NnU342c9+VrOa6MeauJB6/+///b+6R3m54kLs/P3f/30ljvkW8IAX/USUb7311vVnHWWG8k28vIGzeegsYYcAvfDCC6sNQ9Kt7Ywo/f3f//t/y3777VfHv7b7WxPztbbbsCbs+/a7Vd3zZTjKakTeehYRyibSecd5V3Yhgu+6664ydOjQqgN5vf8RSALr/T/HOcJEYH1DIAmsNUBgcYI5jVOnTq1B6ZZbblnfLvs35+A//uM/qoP8h3/4hyushSUQ92bN8YrPfvaz9U2r4JgjjXjixCNavCFue2ylkSRyrzfWNh1OiWcigOG8RDDJkXc5NuFYCYdXXZEIrI1LIMHRHTVqVCW+BAx+rh3OctQxMeYIBEMW/Wvb87Ji3MOZFvgLJoxLv+53lESA717P6Q+GkydPrsEmHDnpgW207efaJLcgEoawNgbYaVM7cSSkLdnGOf7ud79bswAEonGM8+/+7u/qG3oOYtRnISuCK+qvhCPNoRN06StkMTb9wwvOfod8ixpN5CcneT0veCCjvwVz5lD7gixthtxwE4Bqz3g5ocibK6+8sr6NNUfmRz/qk7g8oy//j0CbTDDyM22ZEzIZH5nIEs8bS4xRW/Akm+fJ1pZkNW465h5yR30qskbAqR39uIcuaSfwJI951Q+Z9E23yOw+7Wi3cT6eeuqpmrVx7rnn1rF7Ln6vHc+QV5/aNiZ/69vv/WkbwDXqCpnMsee0H3NiHP4EVrB3jzkMrKxVbZPJz2EQRKx7jAv+7os+tecZ/ZrvmNNGArdtgB1rwjNRf8c9cDXuwBye5ifepOsXNo1YwzvqdcGJ3J6hF1GbKHQr6irBB0GHvELoIbDobxBYZKDXdNE42taz8fPQe79z6YssZPV7WMGvcT6NK/Cle1ErJ55rXAPuk82CyEGIOOLlvlhXsQ6tk46Iecd3EMZRp4nOOe7mCkzhbh7IDDf65Xf0TR9BKviZ+8gQffoZzP3MWPUDW/MB/7Df5ivqGsLNc37faC88ax1oj91yxJMMX/jCF2q79E4fMadhl8OW+r2xWMP+Nm/uD2z83hijnRiDe9yvL3/8m9z+doSTzXUkUAZW/NwY6Dl8Yo2QcWUEVtgYsus/1k6jMwYn6+jSSy+tOJ544ol1jwkMw54ZR9gl+Jsb8vgZ2cjaHvHsObrnXoQY/aJbxueCQexL1pu2o03yk8M92oZxW5Im9inrKrI3EVf/+3//7zpexANS0vjt/TKrvHxBTGnT/LXFB+EsSxKJEaQY3Wkkm2N+yadtsr388suVCKTzyGrjoFvxXNilsOPG19hujDv8I300Pt/eHv1P//RPNdPouOOOq7pHFv3BO+6P9eZngXGsx1ibYfvcYz7CdhhX7I3uMdexLsJ2Gpd7POs5mLpiTfh9I15+HnuO+Qwb5Tl4kr/tWg2Z/Nzz2ox1GmPwLDsrW18GlXkgLww9F/iHbbH2G/ccP6erdNAffit9Ofroo6vP0yg3WUPvta1vvq779WsNx/2rS/iub0HTB1HeVgLr9ZmlzwXfKU1LWmp/dvbyTe/52+1TXj5gx/Lo6z8pS5e+/XxTt1L8KU2l+HFT6VY263tw2W7QyaV70/pTj7azWOR9icD6jMBbc+aU6dOmlwWLFvF4S88ePctmI4a3xkDrcmxJYDWgvToZWJwLjiSHVe0qjgriycauvoDN//rrr6/EFDLE286O3nS2JbA4CI4oRdFaGSacqzi20phFFU6cArWcS0GW9jh9nFgEkTfc3pw51kAGb185fVEQFDnEOSa/9u6///4a8HBwBEaeU4NCoHHVVVdV5wxpoAaDIK7xTa8Nz9EGsiChBJyCBo6ygMoxDs4aJ9o4yehYjmAFZscff3w55phj6vgFiy5HFsgHQ0GQtoMs8Tb/sMMOq04lmY1dwIKAc1zSEQs1O9pmsHVEYP3DP/xDDQA4iByzBx98sB7hgAVCUDaYN+xkRSDJPIEjEhDRxjEUwMONw4/og8HJJ59cj0LA0Fts7ZEVKQlfhN8ll1xSgyD9wgsOURSb02oOjVvbxuUZbcHR+I1JoIM4kAEjq0Dg5u21uaVDP//5z2tQDXdz6A0s51ugjCSQ/UcexCAdufPOO6sOc9zpNZnd4whJY7BlnPD3Zl6WhGfJ5vk/+IM/qPpIN4zDpQ1HIcyd+dGue2GN8OUsu9dYrTPP0w3HX+iFsZpfpJK+HI/lUI8bN662az0IVM0XeTjzsAhSjX4g/eiPuWtcm0HEmj9vu60fssvacQSJHpAJ6Up+/dNLGLmX/pHNHCKS/T5quQhu6b92rWtykZNc/pYhYj6MnX75uUCT/sQHIRoDBm1b88hv8yuLhL4hZmUuGKf1HLVxHJGie+aLDsGXnXGcyjxYa3SCXMZvPHRBgEN/YUxXrFm/IytdMyZtk7WRwBJACazZDfaADglG6axxqHGkLdkrdN3z7LE5MxZy0j+6aq71YVzkgxF82CNEprVnvh0zo5vWh3tgwGaSm92hj+aSzH4v01Of1rVxtncU1XpHFltT7jEebVhH+jIP5sv6pLv2BPMlOKRn8KUf/i+Aha39AXZ0iA01R3QUBmo9wdd60J71wh7QETWMyEHPZOiwP2wW3TT35sTvrQNjRiySx7r/3Oc+V7Hyhy5qj+wwMB/agdvdd99d76fnxk6PrXnzr31rlf4G6RSFvek8eQXa/vZz/SA0L7744oqh7A17gp9HX/YG/VuLbIh+VkRg6Vf/dBvm+jF+9rSRaPI7srCtxkGH2Uc6yeaYc/PB9sHbmK0da8Acueiwthv1go1A4MKJTXIPHOkXDKxXvzcH4R/QS/h6lj5bD3QwCHK22x7XmNXn97/5zW/qXH/yk5+sMpCNXti3vdz6i7/4i7qO6aT+2EJrxJqyZ1gj2rTujI08//Iv/1LXBP2DizVubdGHmF+2lKxq9xlTHFEMu0/v2DnPmV/3sst0KfY3csEO0Wac5gtW1r0595zntdOYOQ53bSGw2AE21/2e5YvQR/PsZ/qjp563T1iX9IOOs210wJisH/Ps/iB+rQ33w4cNZ9O1L8vIc+6FEz3xDOzhpy96isgz78YFLxgZCyKNzNZt+Et0xb3mjR7og1zWsMwo8+Q5OmCNsOf0xBjogd9FPUXjJzNM+XgwZG/Mgb2P3Owee8C+WBee5X+Za7izq7JJ2X048BP0YR3YU4yXHYKbteJe/q5nyWgdmZuOCP91GdBkX2sHgVYCa+a00ufrnyoL5s1bpY6qr3LwqWXSmP3LjZP/sixdsqT07bVh6d9zaOnffbPSr8cmlax6Y+GEMn3uQ2WHQaeVfTf9bOnRrfNHxFdJoLw5EUgEVhmB19+YVfeVoUOHlF49e5Wmbi0vbV6cOq2MGDasDNlk49XOXF9lYXDe06dNa16dB9+Pz6wOgWXyODycGZs8x0hAgtQ555xzqgPFofnhD39Y61cIrDo6OtQegeVNtfYcD0M+cJD05f9t61hxfC644IIaQHFCOC3+z4lFenFaOF6CFxvK//gf/6M6P37HmUEIcUq8yeVYejurOCzHk2Ol3z/90z+tzqMjCsbKQRdocXgbg39Op+dtfAgHzpDMB8+Ti+OMpOEQC+Y48WTlIAqeBRMcssjA4nTBU2BjAWlbn4IpThonWgYVp9rxFI6+DAsBDZKA842MahuUBoFl/HAI59T4PQ9zgYksOk6/4EMQSgZZcjDwNpJjzsHjxLmPo6lWizklN6dSIGaO1KqC4be//e2KqYDCuMkGF/rhZxxauDnqxPEUlCDKBHwc2yA9BC/0ixPtOcGg+xBQ8EG+/fjHP646w7HnPH/rW9+q/SGJzK1+6S/iVTAAM/NiTJxnR2KCDBEU0xU6BqPGQCvmRhBm3jnWyDI66V6Bvrl0rFZAL0iALcLGmMJBFqz9zd/8TR2j4EUga9z+wPhXv/pVDTIFAIIN2MBIbR/jpx/hYOvbmAV+ggnkpPl1vAZZ4lnz5/eNHzeI4JQs5sH6pWfWEWwFCwrpCqCRlnSHLpj7IBGQd+SCs7VAJzj9dI0eCeZhRT/psfaQaXQZoeNn1i89ZgfgRY5G8hpm7IK6OwIaxAqbI1inD8Zp7anZRM/1zz4JdM3Pl7/85RrA0jfZjoJ7z5kXMrBZ7hfM0AWBsnUoeEZECIwEYXRGsPSZz3ymBmyNBJZ+zDlyyfpGvsAX5tas+fSssVpT5PV7togNokN+DkvrUVCpHzqMiIcl3TU++m4NaZtc5oDc1jJdRWTQcVlIAjY4sItB3Hve/LJN7WXCwNH6ZU9gRLe++MUvVn2zvr/3ve9V8l5gC1cEAntr3SMSkD76FsDCl86Yf7prTdAnc0l++k9+OkI36YB1Tt+QL8ZORnMGH2tTQGlOrIt/+7d/q3PlGYG8sdIhdlhb5tC6hAPZjYcdp39IGGvPfMGGTdUGu6AN82CO7UPsijFrz/3aF+jS5yjiz76YS3bQiwmEgRcS7Lg1iuwwfrpCf60vc0Cv9EVOWMcRQke8g4QRQGvf3JmHP/7jP14uSzmO+7JjMEWcwcxcmhttBYnLdpKTbWE3yWvNwBCujbXu6CEi3ZzSXfaEftFlBCn5rXE4eB4RayzkQ+IG2USv2T8EDPvI5pu3uJAYoaf2b3aM7PCAN5nZGP8mM33/b//tv9Wx0S9zak1aV/TIXmC+v/GNb1R7FaQk/bTWZfNao+bJmiILPbNPuegV/bIfmn+6SJ/ZNUSY5+gx38BaMS/mlk4j9Ox9ZIcrW4bUoQd+b69sJOcRiOymNat/8sBTv2yANQ1j+kdPtQ9jawQBzr6z2fwOGJtX9hzW7D5iiJ9hDyKv+WRPtE2nELD2E5jTQYSP35tv9gwJr132EbFjLfsTLzfsBdpmX9k542SX7Lt0kB2xdpHWMCET7OwnbAIySVkJa4SesyvwMc/2Rf+n056xDq0pc8CG8G+CrIQTvWIz+ZXmw17Chtsr6KP5ZEfhwe6YC3sP2a1ja5Ld8CKGbTN/7jfeJLDej1FRy5jWCIE1+pQy7dQjypOvnl8G9tisLC3NZe6il8ushS+WuYteKd279Sz7bfq58sq8Z0qfHoPKLhufXbo3df4jHe9f9HNkicB7jwAb8OTTT5ctvOxcsKBMf2lG6dWzZ92fNho8qLw4dWrZaost1mk5jSSw3mUGlk2bc+mKIz8yUDh0f/mXf1md3ajhwDlAZnRUL6UjAovTK8jk2CAIkA0cqcYvzpFDoMSp4UxFvS0BKedIv5xsjqKg0P1RV8LvOGKe1b6+kEkcLIEZp5BD88///M81i4wDph4HRwiJE6nujUtMIMOplpnFqUJWCWA5yhxpgRInTCDHmeOAClQEPkFk+D3nGjmDONAXZ9e9nDkOureGHFcOHmeMsybo4niS1bg45TIsBCmctsaLc6wGlvkSYBgncoOjF8cvZLVweAWgHEj9cUSjeLMg0jjdH06cYOwf//Efq1MokIEVB1MgzhHk/OoXlggGAbcgmmNobjnqAkYOsT7pjuCL08jJFygxKBxVzrn5Mj4BFkcfZoIiMpJdoEkOgTAnWd8CAX2bZwGJoEXARV84r/pAUHLYBZQCJ7IIzhCYZCJLYx0az5LFvAmC4SpINxYBhNpuAie6RhfoMH1uJLD0B4e//uu/rvMneBAkCI70Ra8EicZLBuP90Y9+VMkvc2Q89I+8EQwE7ggwx0PhSBa6C2Ny/tmf/Vn9eVzag51AwHNIDXgj/+isOfd7pIH1JnBCXtBJwaSLXMYegRbSWFvmJdYAnGAjuKRLdEMQAheBtN/DwfyzJebRPMRlbQgYrX+YmVeYOF5E7+CA4DKn5oueC46Mi8xBYCEn6AkCDPlIJxAEQbYIyIzdGhXY+D28ZHpYl8g2pIV1EBlYfm+sficAFzhb3/C2htyLrCa/wFK/dIdsgnD2x//ZMbKbb+vT/XQZuQYXPxPs0Vl2jg7CSWClYLh26TYbzc4I2JAI5hHm7IJ15/dsG7nNaeNRbWvbOoBjHLdhG/RnHbFrZKUD8KVfcBLYkgeO7AL7Za2R3zqNbAhtWA/2D3YIQUyPrRey0hFBruCcTrBd5os9MT7ErcCUzguKtcv2wSWIf7IZM1ytM8GodUQnkDFBoJsn8w0LsgpcBclsOIzos7GbR/PC3hqbPYIukM8aZtfsN3GEKrJQ2A86HtnAcIsjWuSILwX++Z//ebXdXhKZH88jsGAtcxCRbv1Z98Zof6ODdB6h0niRH7bsn77JGaSq9Wqvji/zsctsqd8bFwz9rO2HROxr3//+9yvpEx8roF90hHzkhKn1gJhGzln31iV7RlZkyFe+8pWKoTWIcDGnCL642HokkHbpCV2wBvSLyLH/eQahECUL6J81R//sZ+7VPttrvNqgD3SOLYMtnaAzZGdP9EkX2F/6b/zGYM2wSXTHGqHT+kFumz+4sXPIVPOKcKK79Nh6tybhaU3wh4wZFmyJva/xJV8QWNY2nMyT/d+6IxtyUn9IWPNqftl7bRiXNWQtsHN0hNz0zUUHrFV7DBz5DLDUNr3lT+ifrdOv39svYEFW5I5+jNFaZp9hbd2zFXwRtoKeG7+2yKwt/QQxy87HFzDJZO2xj3QmSElrDb5wY8/tLWyaMfNBYRjEGwwQl+QN/wvhiTBDqFl/7AQbyedDKCJ1Ya8tfSNSjdGcGzPCUv/2RXaBPuk7MIBnHiN87wPNtSHBuyGwnA7s1m9AWXzMeWXeESeWZ1+/okyYfV2ZtXBKWbBwTmkuS0uP7j3L8P57lv03/VJ5dd4z5bX5z5d9h3269OzWr1PDIR+dX9rcXLo1NVWdXZXalouXLCkLlj3fvZvSGGv+g1GdGshKbqpHzefPr/anliJYdvx/TbT9btvoDIHdmXtWJAfb5I+sm57Lyi50dKKpbTsRqy+sR99K6d2rV/VL3mub1RlM4jTIymSlHwsWLCxLli6p46IfK1oHbHnbjOf2cPOzufPmlfHjJ5Rddt6pvPLqq+W58RPq3rfNVltWf2bS5MllxLDhpW/fFX+N/d3qWePzSWA1oLE6GVh1YufOrY4hgoLz5m8TK1gVaHKWkBkchhUVVW1LYCEgEA3eKEcQywESJAgqGj+f7FnOO+eU0yzQs7AF2BwjwZhMHYEk596C4IRwZgSY7hVwcKg4vpwxgQEnm3Jy8mSicHI4yvrh8IWD06hU2vZ7Dq0MHgFTZPUIXgVD2kIeCDy8EY4MEm16o8eZ5+gK3jiXQWDpR9BGNqRH1MnioHL2QjbBMGfegiaHt+gcy7YEVmRgIQmNzVyZS3i6XxaYoJCTzBHlrHljK/DjoHMIOZJkFYwLBvwbyYNAEKQKJjn5gh24IgThwmmM2lt0SCAOB8GowNuGjKjRnkBdEAw7/46LXGTxFlVQEuSEudSGTBpYdURgCUAEF8b+W052AAAgAElEQVTAsTYmmAt86ASHFnnAIRBs0GuOLUw46RzkRgILwSOwhbdAE/YILPMJa3qMbBCAwIsjz9GGEX2ONRAElv4ENpxwWNu86APihe6QIb5CyOmny3TLOhHwCgaQAcZv/jjcCh+bJ7JoH66CNcFRI4FFdwQyAg2kjnnTF/KD3hl7ZMlZj3ScbO4TOBmLZwUIAkI4ySrTlvkX+JJD4Ot39EOgFEdLyEw/yE0WwaVgWmCFJIsLaRiYIOeivo71TQbzSq/Mi7UvGJVVEASW4Ny46X2QdXRQkKptxLHf03uBJz2DGzLLOMnn//A3V3SeHkYRdzZG8CQAQ5aziYIhRKSxx9da6aKMiTi6JPC0ps2NYJC+0Gm2CK7sByLG/NEL4zQ/iGABmPmVNSEjU6CGMLVZ0z06HfPPViEY2A44G4O9wPyyvXFpm8wIFeQ53aNbgucohG3NBgmkT/qNiBNQC97ZD/pj/vTHHnCiYAu3yPqBNxtuXcLEz+kIkjO+asumCFrh7146z6YIhuGGVLAfWbfGQTZj9TcSkj4hW4LUdG9k6wSBRW77AT1lg7UfhBpd0W6QGJ53PzmMFVbmje5bE+YC/vTMV+XMZxRxZ1NgYA2xE8aFsLCHwps9sdfQHXupPc4Y7Y/0XTvat8fRDesxMlVi/owbJkFgmWNrEP7myvPmM+aHvphb443jeW2dTfsrzMiGcAqCLghz80g/2VXzGC8HgvyxbyHnwlcgP9sXx4Ub91Wysbvm255Kx82j/cHeAS+ERmTL2rv5CtZLHBO2LyG++CGw1IY9JTKr7BXxcoH9RxDab+gqfTc+82M902F7pp8hBq0rL+1gEnoVBcbZQPaI7WPnrT992p/0gzgMMs3cNb7kixeAbEq8xCAn/SWb38OMTXUPW4AsolP02HpBysnigpuLDrCB5gMhF0darfkgpel9WwLLnmJ/ocPsoHVBf2BsvzfH9jI/MyZ2mT33c5ixvfTS+KwNPhsbSD/IZO2EbHSDXbH3saXakz1MT60Pa4Jfx27Qyyj0r386ax2QF+EVxLl7kWleXvJH45i+/0cZBnNFz9gR+wBdZRPZb3qK+GT7jcl8RHCVBNaaDM26VlurQ2Cx9Yirst0eZfFBp5QyYusypftz5cYpf1nmL2ghkLt361EG9tm0DO+3X9mw1+Zlu0EnlFunfq307rFBOWT4X5Ve3dv/Cri9+I1Zs+qamDhxUnlz9ps1cG/RwVJ69OhZA+nNambuNmX4sGHLAVqff2NWtfcTJ00qs2e/1ZqIQG7kBj3fequtyogRw+q/OyICxj36WHnqqaerjzT6oAM7FcBbY3fefU9Blp085sQOkxr4Qq+/8UZ58cUplSAgJ6KtDnIZCdOvf79ag2jbbbYtQ4Zs0i4hwz7ddvsddQ8Xg+28046t9QPHT5hQHn54XOnZq6VWKpkOOuiAMrThZW4jeEuXNpfb77ijkhiOkR17zFHVZ7vxplsqydG9W7fSq3evKmLz0lIWLFxQmptb6oPutOMOZa899+iUcrs/bOGEiZPKtOnTyvx58wuy0dVStqBX2XCDDepetPVWWy73kS/Pk+flGS9X4uWlGTOqLEuWLK3P9+jRvfTu3aeMGD6szjPsxAttSaLnnnu+PDzu0dKrV8+yaOHCGg8fdughHX5MZObMV8rNt95WevbsUf3Jvn36lCOPOLzDDxlNmDCx3HPvfbUGXNRCVVtq8eIlFdeWq6kcftghZcTw4e/U41mzytQpU8uEiS+UN2fPbiH4mpuXvRDsWXVr+LDhZeTIEWXToUOXeylb+77vvnqvfVxGlYkj98KFLTWuYHTI6ANbkjCefLJsv912Zfabb5bZb82p/vamQ4dU3CYpx7L55pU0W1dXElgNSK8OgYV44EghAYLNRQKZbNkQnEQEUhzFWJUMLAQWR4LTJUigYEFgcZgbM7CCwBI8Ca45LS4KxuHxJlQ2BceSUxcEFudV0K/tILAEyAIrASTnSaAY2T4cII4LJ7kjAku/nkesIC4EWuQgo0CLA8uZ43ALdMgbNUoEKxYtuQS+jFQjgUVufSNFvHGNwqLu40xzFv1ewCeThdzmxrEAQYqMqMYrCCzPIaxcyCxBL2cY4cGx5rAiv8jK6WUkEG1kRA4Ya9QpIgfnuTMEFnk4kfRIQAhzTrMNE176seFwfGEmeOH0h7PYSGBFhpXNKo4yuHdFGVjtEVjmgsPKqHGsBWN0QLAUb8bNicCJs9wYbJgfpJWAhnPtGBInQzYD3RMI0UPBqrXgQto0Elicc0GC9aM//6eH5hOuMgzISHeCwEI0ceDNB93jmJDd87BFDnHQtREEVny1qyMCi84i8mAJf8G6ObEGOf8Cgc4QWMYqgIRTEFjmUeBLxwRhbEcjgWWdwdjGEMQeXWVX4Bp1sODXSGAJ0qJ4Pn2Cl/uDwEJGsRtskqAoMrCMLb6eBrdGAku2DRtkHNYF4sflLT5CTCBq/bF75t2Y/Ez/nDoBmzVEDxAPdMn80VPry9/mOAisqCtozVrH1q+sOs9af9ZE1NGi8+bHXPl3EFj0J46FhcxBYNFPmSzx5TU2E2bsWgToxmvOGnGGleCeLbCu3MvBQtRYo7DlgASBBSfzFQQWu8suw8Vz2jBGdkxAzpYZr98jBhFW5tM+wD7BWDafNSbo9bfgPGoB0Q8Ekz1H5mQQWNateWArzI+5N6ftEVhk14+1hZBEdkQminWEMELy23/oL2IKzmQNAoueIIMRA8gA690YjNd+YM2wjdaPcdBRspgXewUn20sges8G2BPMv2CczUGM20esZ/uq9ej/UcPK89qGa9s6cQgZ2Pu99RgZWEFgCfSRGYjSILCMVyZY49FB+g9/crGPsjdjbyE73MwLXbeOzS2dCqKOrrF/bKKMXuP0sgRBiYT2rDYbr8gWtu+aY3vOX/3VX1UdQ3RaX/YeNot9oUsIZ/MYxA4dNk/IGX6BdWCtw8pFdvZT/8gm+uln7rUns8Oep0fmx9qmL1HnENFnDI0ZstqlC3TLeiKXdpFtCC5z1HhUnE1pPCIdNbDY7pg36wWBQ6esR3u+7Cr6w37Yw9lsezpZEEX/83/+zzoH7I2feY4OmF/twS4ysBBebQksGFjT8DR+68lLFSQT+dk4flZkeiJjzYXxCbDoGpth7vwdH7+wD9nz6TmZ2Djrid0gk/aDwLJ3kYP8fAX2017hMv9+bw+0J+ibTvKzzBl53E++RgKLXgWBRee9XEDQmwP7HPkF3PSTLaDTQWB5iZgE1roK1967flaVwOrWo2cp2+9Zlh40pjQP2rh0e+DGUvpuWCYdvn25cdJflAWL55We3XqXTfvtXnr32LDMWzqz7Db442XR0rnlzunfLJsPPLQcMqJ9Agtx9cgj48pzzz9fZs1q+bDP5qNG1T2ud++e1Qd49dXXyqTJL1affPRBB5TRBx3UCp71//Aj48qzzz5XZr35ZtXnLbfcomyy7ANW/Av2Y8qUqTXbyXrbcYftyx6771423HCDdxAIN950c3ns8ScqwXHcsceUHZd90KWj2VqwcGG58qqrC/IAufGxj32kDFr20ZrGZ1555dXy8H9lHo+fMLGuX+t4iy02L5tstFHp0bNHWbxoSXnl1VfKC5Mm1z0T6TS6IWs32mIPkWy33XZ70feWW2xRxpx0YunfvyW7zX54yaWXlynL6vGyiYcfemjZc09JEC1EWeP1+utvlF//9vxq/w4efVDZd5+9K1H0u4suLi+9NKPaC/4UsqVb9271PkSWa/fddim77bbrShXZHE6YOLE8+ujjZeq0qWXRosXV/95i81Fl4MABpVtTtzJ3/vxKzE+dOq3aqtNOObmMGNFC8MTzj4x7tP6e/qrbhGCBY3Pz0vLmm7OrjvCHyIsE5Ecgs5BbcSGwLrviyrqv2Ot23mmnctyxR3dIaJq3X/7q10WmFyxGjRpZZWvc0xoBMIbzL7yo4uR+fgxSSDbh4kW+atAyB0cdcXgZPryFiGVzX3vt9fLoY48V8tFjvufIzTYrw4ZtWucWaUgvzMnUaS0Y7LnH7uWoI49o7f7558eXy6+8quKl70GDNiyDBw0qS3y0Rt/Lan8i4DbeeKPy8sszy5tvzS4DBwxo/QAJ/UGsWkfDNh3aYY3vlU76atyQBFYDaKtKYFEIzhrHRMDAaaTgHGCp3JxLb7EEhpzYKGLe2RpYq0pgCeKRUAIzTk8472Si3Jxl98hcsQCQY5GB1ZbA4mxGnZhw3MMwWfCyMzg3gorGDJyA0+8F5AIDGLjieQ4TEoKzKZCKukPxpTvOLaeenAKetgQWB1sbjgTEs1FEmKPsrXJkYEVRcEGhTBOBQ+MVBJZ+yOqyWXDEBQZ+JhhhXKKWFVxcxhXknJ9xKL31RMYIGDh5kYHFaArkjIXjL2gQbAaBxYkWHHNCObScxbgYV2/mQ4foUTDsHRFY9ICj3B6BFZkU5lywgOBqm4ElKA8CC3ZwFgjDmd7TDxt7e4Sst/xIIffCnxzGqw/H24xVICF4FZDTBZghVoxLYGIOg8AS3ApeGgksbQiyOS3ksd4EWrARpJrXII0CR3K411tswU1kNa4oA0tQIQhHyCApAnfzbgxRA6sxA8uRD4FQZGC1R2DJFrD+EBOetWlZL3GcTX/0QeDDrsT60a9xNNZmiiMwghaER2RgacvGJMMGgSUrwXzTP2tY+561jjgHgifBuKCsIwLrq1/9am2PvDIqrP8IYgU+iCPBsAA4CCzkZRylFEDRATjSP0SBY0psk7ZgZ45kJyBRjZ2NRY4JDqNINL0Pol6fnmmPwIoMLCQxOei0tmFhjHQ06tsJ7IKMDZwbyVkyRO2/sDvaiyLUMp2s244ysBBYgmz6JAvR2oeZfgWI5gjBxUZba/SHjiASBPrwghvs6YBAmt53RGBZB9aJtuDGviLBzTk9sMZleSCgtM/uIZONKTKwEBMCeeR9I4HFRsWxK/+Gl+fZSg6ZABhG+kIGWMOwsWYFBzKwkBH0wbplCyM7BOba0Z491MsKY0VGIIAaCSzP2X+8TAjygqMYtrnR1nO0GgkszyEd9Ed3vDRgf+0/ZF0ZgaVtugQH40Lm0SfEA/k9T5bIvLFfhhMMT2tftpc2gsCyFpDcyCJ7UONlfZOfvtFrex29hnPUgELyWsfsjzFYr9YK/yS+ugonthS+bEBjJpS5MB46hSCkM/YHa5EdoytskvXDXkeWWyOBZQwyveOItzGQVbYb8g1BHl9ppPv0OmrHsQ1tj6VHBhaZ+Tbmq5HACrvj9zAO22It8aHCH4sMLGQWe4SMgzM8EGB0BtlvbO4JAkumlnUBZ3jTG3oi4wyRpF/+FnvLXpGRDTZPdMn4zDc7Y/2zv/SEnPpmL61jhCTby3cQlJODv0JOtjQIKnNPPv6Gl4/ud9k/kPX2fLri9+YRpvQObnTU//kmZDKetgQW24Tsg4e2w+7QJ7KytUlgrUa0tR4/0lkCS6jdrU+/suSY80rzvkeXpqcfLD1uPr80vzajLN3/xDL55APKDZP+ojQ3LSnbbXBKmb1oenl5/qPlgKFfKBv33bHcNvWr5bV548vWGx5bDt3sr9+RgTXj5ZfLTTffUkkJOr3JJhvX7BZkSeNejfBA7tx9zz1l3//6IjLiwmU/uvoaH/eZ3vpy/+gjjyibbz5qOZ9KjR8vX2+59fa6h1ZCZsTwctKJJ5QNBg5snUn3XXrZ5WXy5Bfrz8jxobPOWO6DVm2n/eFx48rNN99a7TKZTz/t1LLVlsuXNkEmXXf9DZWkME5+LjmRE42+nzbce+ttt5djjz26jBzxdtwQ/SKXrh57TSXM2By25YTjjys7bL9dq2jPPT++XDV2bFkwv+Xr8Ntvt229p/HDXHHzffffX267/c4qyyljxlRSz9564e8uLtOmT6+3mZfzzvlwaWrqVpZir5qbW4/9tRcvtsXooYcfLnffc1/Fni3dY/fdyj777F3JJxleLmMRyzzx5FMFEXPaqadU4oauInbuuvve+jwSjt0bfWDLx4fiyKH73nprTrnjrjvLU089U9urtXYP3L+SlRGnI0ovu/zK2q5nd9t1l3LM0Ud1SGAhTxFYdMP99qRTTx7TYWYeXb7gdxfVvRb228H+uGPrGM19y1hL6dund+neo0f9v/30+htuKlPqOlhS96bDDj24bLXllnV/itjfmPhMk6e8WG6/7c5y4IH7l1132aUVbllbl11+Re2bXsGIDyEbrHlZ326OY+Lak+Ul+w65SzAZV0M2GdJCLC6bm3Vl6pLAakB6VQksky4I8DZO6jzHhJPobRmHW7q1N46cE0GygD2CvfYmOI5PIUEEGKtCYFEsjjOHlGMpeLfYg1ml0BwiQZK3aFHHoJHAEggK0gRi7vV2mYPDifK88VJkDiVnTADWUUZZHCMTnHPAPK9PxogjhqAQhHmDx2j4HQPhPg6pwM0YPKsvizCKn3PWySbwjiOBERggRKKeDqcyCCwOq/sx7I2XscgqgHVkYHHoBBHGLajmWMJWkEJmMpI1DFycI+awxteSECna5ezHUSaBBWKJk8ug+n0QWKFL+mr7tUr9wIyDzFDBAWbmXN8cVY6yuRIE2qQbCSwBEp0kvzEZswwIDio9i7fufh9HCOm19skqOIFJFJTVvje2ZG+PwPR7QQPnHvkpw0gQ7tgIIk4AzlGPL5UJbKwNc2NDooeIIwEHrGXnBIFlw/Z7MgfB6Rnj9UZbMK3f0HNjjDfEjKtgBIEVRwjpY0cEFmwFb6FPgoUgh4KckwFDN6IGluBvRQQWmyBgNHbj5pjQO/OpHT+Dg+Be0ET+OHYc42hLgLM5iCeZLQIPAQ59Mkc2MySxoJKs5otOho7QK8fwkLXuQQ7T3Y4ILORBHD+yLhG/jpGwnTAX6EZGB1uE5BNQ0SdkH9sTmSrGA8cg15AQ9M9at8bZTWvHZq1dATESkU7Es0HKWI/0v20GFvsrC0VGU2Rg0Q/2B0lDbsEhuxyBZ6xn/YQjoH0km3EYb5Dy5BfwRUYJkiyymKKuUmRg+b9MC+sxCugjjui+jDJzj2giM1n0TdcFuQjeljeHLanh+nX0rD0CCymoTWuQPTe/gnlBLdnohJ/Bgdx0l52FM0IIkSObzFq19syZnwWBhWzwM+uCzWNDEBOeRwiZk//+3/9768sFc4KwQGTJZDK/iocbI11D4pCFfYaPdczWWdeIHQQWWehuI4GF0HREzhyyBbHWQzfaHgVoj8CKOnRRV8pc0Q3HATtDYNnnyYCQNhZOID1n65BG9gtrk24jE8Ju2IPgiNxCxnSGwIJj1OQzF8gXumhPtnbZQMQ02yZ7yzyQzZ5ovuKjL4GPfZY+2DPstbEWycRmGxNbA0ekpLXPDrNd1kEch/N7ewT7wg/SrvVLtiC44BS2hUOvX46yTL44domccz/cG23ciggsshin/Q3+8ZGcsJX0hWzmxH6CvOGv2WfpKFtkXVh79Ict9jsvUegUny6y3q1Na9j+Ff4MG0c+fg47Yp0EGRofwkFaWV9w5WewRdoIGdkW+7FxBNkseI56hPbKeLnVeITQOLTFh2OzjNH+w04iJ60rRHJ86TXsmnUaRdyDwELMx5zHSz2+FTwaZaUj9g52gi8RGVjarsePundf50HMugqWPsj9dIbA6sZWjNi6LD7lD0sZtkXpftMFpenOK8vSRQtbskgOPrVMHrN/uXP6N8p2A08pM+c/WWYuGFd2HfyJst2gE8s9L323THjjxrouthn0TgLrrTlzynXXXV8zkuha/ar3mBNr1klHF5vPZ/MHkTN27DX1eX306tW7nHD8MWWnHXds93F9PPDgg+X2O+6qfgXd327bIHZajkmx4edf8Lsa0Lv0Iytp//32bXcdzHzllXLFlVdXP9SlzaOPOqLsvdderTIgQK68+uoyY8bLVU7j/NCZpy9XzqCtwLKJkDftJUfIZLryqrGVZArbj7BDnDkq6bKfXHX1NWXiCy/Ue/gasoZGjlweW4SPjB02IrKvjKEtgcWv/b1Pfrzd44wrWkf6lhk39trr6l7fgvk25fjjju0wg8mRxrlz51Q7Vf2xyS+Wq64eW22g/2+z9daVjOvXr2+7XZtDpOYLL0xqHftJJ51QC5K7HN28+JLLqn3uDIHFJ/rlr39b/Rf7xMoILBlSvzm/pQyG+3fccYdyypiTOsSOHl966WWVvIoXmnSIHrf1eWLA7nt55szSr2/f5Y8QNhBY/KhDDz647LP3XvXrgp25wh/tzL1r454ksN4FgcXAcXg5AxwTGzpnEQFlAQsmBfCCEE6dN4scpo6UTHsCtSCwOB5IDkFgFPrmTMl84Pg11sAyDGwz4onDz9HkgHBotUM2wUoEkfF2n/PDuWb4yClQcPyDgXVEJLJwos6D4NRC46Bzyjib7Z0Nj/oPjIiA3eJg5DioDJMxCkb9X0DFwUVKCOQ5b5x6AWbUyyB3fDkqspUE3cYVb1yRQpx5b1O1GzWwvK1EUgi0Go9dwiwILBs0Zzi+VoUMEDDFV+6i8G7UOeH0ks3GRnZjYLgEfDASiHM26UN85dH4bBSCQzKbWwEbJ9L/ZSYIOPxbP1H4WJBrrNrm5As46BEcEQgyu+IrVI0ElkCWLIJYASHigsze1HJu/U7fsBZcwBvRFDWwYIJIETTpV8ChDfNDl+gNPWz7UQLPISW8/UfmcKIFDmQUzPkZh9/YYUafzTtdonfmytjUuoGF7A1zSafpI3mNJ46wWFvkswYFwQIHwQRZjSecD3MPf8csPBsZWIJrWZJti7jHnJh7cslIEOT4t7fRMigQqea1bQYWUsAasx7juKT5jCLugncY0k16Z60i7dxPX+ieAIXeW6Pmm96zJ8bZ+BYrSFqBN5y8JUeIxP8FYgJcR7QQzjbUqBsGN4G2cSFoBKFwQTrBWLBCX+MIoTmJdWkNm+fIiqCfMicRoXCPrxDCjc5EoWVrig0hA51CWLjXOMhizQj26IAMHIEjYpgOwcoa5xzAjHNnnG0JLD9jM+laFASPwFhwys5F4W99mSNyxkcK4EE/420nmdgVlzXDwYuL/HSYAyV4bLwvamD5Gdy0aZ3TKbaeDHRH+/TSerBPmHOXYDo+UEF/2X94+Ld1GQQWfWbLZEaQnf6wS8bO/sqkYAcE8+w2MtreZU6i9pZMNyQIHUJwtUdgCVzpobVCn+grYsY8WkPxJUxEhjGx+ZGVDCe2wPoJAgsJZQ0IvIP4JCcChJ5aL20zsNgV/Vlj1gx8EO1RiJ5eWQNtU/aDwIojhnSHzsukYeesaaRf1Es0LoSc8UYNrLZOmPkwt/YDLx4ik9l6sw5gbx9ldyKDFxnEP0BMwhuhaZz695x/m/+2GVjsEVtvTdjXHTW0zvTp5+bGnND7qAcHW/LFFxTjSLW9lx6aBzjRWy9H2F5j0Yb1aC+IbD+2O46swZwORlYjvYIjmeNoJlsNE+siMrjYEmvfHAbxaI3Yj+h+ZHg1+kj0GsHC/iNmIwPLvsBOkY8ex9cb7XuygLXLZpCNnYaXtWOOrXl2Di4wiyOffmYdmDP7G3ytsSA1rSvZkl4SwIu+mxfPIWH1w47Yl+kmP0k7iB5r2T30Fv6IJLaMvF6wsZHWPj3wAtAaYGvYyzgiGgQWHWVz2Dc2JEhEuo1AM29IOePTPxmtuyAx2VP7Fz3xcyS/fQVRbr7iBWZ8Adl+whbyJekHws3+Gh8LUh/L+ke2Wbd5vb8QWBmB1Q0RsvdRZcmhp5emubNK9xt+U5rHP16WLm45hlTX88GnlqmnHF5enHV7mbXwhTJ9zoNl543OLdsPHlPGzfx5efb1q8viJS0ZQO0RWI7BOa7HR2fH9tlnrxpwd6ZYO/1/8qmnyw033lT3JJlB22yzdTn15JM6rGVEblkm51/gBe7Mlgydfv1qFtbWW7fUIEUyXXzpZXVNxMVXP/mkE+q6brxqbc+77i4PPfxI9X2CTEIYyCIzbnWPZI3dd/8D9Z7u3XvUzJr9ahLAqutUjbUuv7LWC0PgyDzTrwLoJ5xwXD0O52Lr4SuTK4gjWU9HH3VkKynmuaefeabOQd++/SrBJdPKtaYILHJeccVVZfpLLy0jk/qXs844o2Z7deaCmeN+al6R1952zFFHlp12WjG546hhjL1moG2/bc0uqyUlXn65XHDhRXUP7wyBheT7zfnnF0ctO0NgIR9//NOfVdxXRmCZJ/Wy7r7n3tbkFHXFjjv22FoPbFWvxgys1SGwVrW/NX1/ElgNiK5qBlY1cPPmVadEyjxHV/BgMXNMOLCcNc4QpyRqeHQ0iZRTQKgtjj0HgwPEIHIcLaYI7jgljYWctWnBcoo4Tpwy5BEni0MlaNG2LCD/tyFxyjiFkRXGIeT4kTOKjMru4bxYWJwlb2qjmDHySKDQXtqgewT2Mg047O7hPHFQyUnG+Lx7vLXmaMITDpw2GS8CRU49WW1U8alrwRt5OfLul7UCI4E9YgDpg9CKLBqBCuesbRH3yNjSh4CGwbPxeJ7zp3+GhRMrQDef5sE8IxrgFZ+/Jp9AUhBujIJ9OEfdHgGLt9rwRgxwmjl7nHKXewWVSARBnH5lTnjLSm6y0g2y0DUY0xPkj2NHgjCOMeeVrJx1RBiZObwwJ1d8WEDb8DQ/iAzjERgy1GTQvsAwyA59+LdxII1kAHSUgUdnBNP03lEMuJqz+Doi4oteR8FuGLrHHLjgI3PIJXOD7vkTdYeMBRb0lEwwjiON9EngJqAyXjog2IKVe6OQPjIE5gIL46H3jXVu4lmEGfLNerKuzYv1J/Cn4+aKrnJiBB2CF2+z9UtOOirQIpeA2Lrxe4GD+wWfsm7gjjgV9ApCrGW4CGyMT78CRsFt29TuODKC8Ip0X2QSIlWAo11zStdiDQgMkXfIG3MKSzKzCQI3BBpdsm7MFXlhpw2BjEAu1rdnrRVyWDeCf0EuPP0blnA2J+bYvLE9868AACAASURBVFtnAlz6K/AT5MZxFViQJb7MZ1x+D0PrzDPsmPVjbswjucyvcbuXPYA1IsZY2BbYWA8hFxuB0I0vZxonXOgG/Q5y1hy5R4Bmfhqd5sieFMCRgazGi9gzb/RD0Ox35DV2uLFTyCv4GCsb51lBa9QkQpAI7ukA2cxHZPAF0c+22wvoi/1C0A4bMsZX6ODFNsKVjWJTEAZw0Y5n7FvWHUzYeWvYmncv/aB/XnIYm58ZR3yJUPvwZQ+teWOwPpHJLvPCphurdukR2+JP1OwjRxCD9gvjRQzYtzzDrsI6jnyaXzKRQTaasbmsP3rDHjRenrUPeMbc+j3dR0KwrVFk3l5H/+kxgsm4guBpu3eHzUaIeI78bDOMrHFjRlCZQ2tDH8ZGdmQmPUU0wgtJTIe8EEMixpdMG/uM7BdjkSkdQRJyMF5AWVPWsIssdMCeQXfoPTLc/EYGmL/JBBcYIhKRvfZ+5GFkPCI42FB6ZC3H/u1Z+4s5iC/w6c/61z/dYNvZQOuHjiCcXNoylujXPdZoI4FFr5Fw7D/bxwbAiX7RJziy0WyledRXrYly2mlV1/kJbEJkN7Fb1jLcrU/2iJxkY9fj657WvH3eHNMB68zao2/2zLCXZGCX2Xl64Dlz6Tn6T5fskzFHQQYZv/HyCcgSx0PNkbUYNavs4fpEOHoJZy3a39wPJ2Mwbv9GKLEdMGVr+QFsKvuCNLXH22u8POMH0DFjJ7fjxEGIeR5hyeabDzrCJpp/c+XlBh/T2Ni5yFSGMRzzen8hsCICq3uv3mXpMeeWpYecVpqeuKf0vPbnZfGrM1ozDCHRQmCdXOae9anyyMwfl+fevLrssdHvlZEDDigPvfzDMunN28riJS0Fq9sjsOjvBRf+rkx+cUptl04er97Ujjt0Cmh71U0331qPlmmLDVELSE2glV3X33BjQXB4rm2GleNl11x7fRk8eFBR+6iR/Dni8MOWe7mrEPsVV42tdYbIw88IsmSM7H5HqefMqfWxHEk0TsfzHI1rW4R+ZTLH759++ply7fU31C/HydC56JJLWzODRm0+spI0A/q3FMpXRwl55Bhgzezp26+cd+7ZrZlfxnbjzTeXp59+tuy7797lkNGjW2O/tgRWTbr45MerDYSby9/2isYjkG3H8cyzz1Y8tecaNWqzct4553Q6kwumF/zu4lZfYMgmm1T81G9a0eUY5hVXXlXrYrnY2I9/9Lz69+oQWL/9r69OO/7ZGQJr9ltvlR/9uKVerfuRbSefdGLFzjy4/Dv8N4Tp9OktBB99PPWUMTUzcHWutgSW4vSK7OsvLv+2163r44GdGU8SWA0orQ6BFcrFUeHAWLix4XPkBd+c1PjSTEfZVyEGJ5fjIqDwJkwmkwXPkfIsx4LzxAnx+/YuwYKgjCOmHcQRJ5IT4k/URNA2Z0mgoG33c9TcH4Ekx4hDpk2Or2cZX86U/v1/RWPSJmwYL2PQtrbik9GcLwuDXO7joHM+9RV1ZsjE6YMN0iW+JAQHY9C/n3Pmta1PTinjY5F7zs/MR1vM4KkNv69Gu1+/1mKwjdhq130CHmPRFiKAvOQmP7k5+YIY8jrChViLLLFahHCLLep8Mlba01/bNzXaFMy5h9Mp6I1AmjExH+SFm/b8jpOvHX27x++rPg8a1FpjBEmDhIGV3xm7OYGvcXFoYe557cFD/5EiLBCPIExgp+/2vkIJN20LVFyI2KhzAhfrgx7EmNzLgaf3dNH80rv4EIGfm0t/Qtci842cxhjj8Ld26aj+BSuxiYTu+Tm9jUL5nHROud93tLnSV2vKxgpjQbI1BQ8BQBSTh6Ofx9cMyWcejYkc2oj6WXAV1CCX/I5eCVToFgKLPvm9eSOfzcq6oEftrTmyIWvIZHzIKZteZPxF5lisgSC86VqLszCq9QiI540FzvQq9IWuh57F896+k01AS3f8MQ9sBDzJa6zmhHwRbMEM8UI3/E7b5ktf5ki77KYgVJth0+BkzvUHo1i75CKT9cORIYM59ixboU3ymAt9mCf6Dku/17973aNtcxg4a9PzdN78NV76NE/aIIP15Gf+DRf6EfLEcRz6BB9zTefd72fGoo/GDC/zCYsg4PzeGLQb61G7YcuMDbbG4R7PWveNdaHIZmzmgn7RUfNEXzznef1Ze+xCHJ2lE0Hgw0D/9Ec/nkVE+jcCyXii6DwsYUo2ugxrP4uvPJKPbrCjYQPoszUJW7KQydx7thYMHTas6pXfITTYRTjApzF7LubKs9aAv/VrnOabTYKRf3subCbdMafutzY6etPvOWsYjnSDvSaXf1tHobteHoXNRRKaY/NtzJ6JQvjsrH2Z3Wx7aUs/YftDJjKaG1iQtTFD09ySzxj1yYbEWoWHtvQJZ+vRHmae7E+eY8PoG8I+jid7DtZBEvq/NaJv9p085hOx1PJWecfaLszpC7LWSyL3es46QJ7Ent847tBreIbt84w+6UAcpzePsqfoJOwQOdqzzuixuY09h17SVT+3RxsH2eiktWjevUyCp7b8nqzaI3/sz2TWboyZDMZsnugPognWiDHYmyOEJpnMsb7pqz7Nq9/BTpvm1j2wZz+sB/Pj5+Q3Ly56798wplehE+4ni73VHHiWvGymsYW/og16CA92GKlsnDBATPmdNWm+oo4bWwxreoakjf2Yrabzeb2/EGgksPp+/VNl/rx5dYDd+w0oS44+tzQfdGLpft91pfv1vy6L58yu9Y4ar26O/R98cpl31h+UZ167rGzQa2Stb/XAy/9RZsxpIYfiao/Aoss/+8Wvqo1ysQWnnHxSGTVyZKeAduwKQTFp0uRl5Ezfcvrpp5VRbY7ItdfYnXfdVespkdHet/9++5WDR7d8cRaxdcttt5dDDzm4fu3u8SeeqPc5zndC/WhJy0ejalmESy+rNZfIfedd99T17rK/nn7aKTW7yxFDNbWC/PDVOEf92haP78yg64mcy6+ohe7HnHhC2XzzkeXGm2+tBfDNpyyqYxw9a8hOeuihh8tNt9zaWu9Jdhgizh7hqNsll11Wv/B47oc/tJwf1JbAaolZNy2LFi6qBcHj2m+fvTss4s4GPvjQw/VrieyQPvfcY4/6lcPOXgjK6264qSxZVpSc/3Dm6aeusCaZtuF++RVXVhLSxTZ+5NwP1/1mXRJY+ravbrTR4IqdQu4uXweU8TZ/4YJacN++ZZ2wvx8575yCqFudq5HAgrcvOvbr37/1i5za1IeaXCsjAVen/3f7TBJYDQiuLoHV0SQwIN6KcsC8aY/sknc7afn8e4dAMOIrIyI5sgoVe2vr7Ssne329bCY2qDhfj2SIL+h5k7+iNyqrMmbYrgzXtu2t7JnOzldn5VxZf6vSDqcmCJOaGnzPPTWLwFtub/QbA+aV9RvZE5F9JYiT7RXHjzsiu0PelbXf2XF15r62fQl+Qr/oEtllEvmZjI62BO/alHVttt0ZbFZ0z7uRbWXPruz37a0782Pu4qgzu+AoqCA6MnVWdf2tqhyNcq1qX6tqS1Y2fyvrP36vnVW1cyvruzO/X5F8Hf3u3crcXrvIH0dGZTPJXOU4ryk8VkXezs5Xe7K19yw/z8/5kf5GqqpdZS0Ya+yTK5JxZTK1N88re2Zlv2/cA9rq5pqWtTN6mvd0PQTeJrCml97f+kxZtMDR8O5l6ZEfKkv3PbZ0u2ds6XHXlWXJooWlpVz38ldTaSrNB5xQZp50bHn61UvKnEUzy2sLnivzF89aLlMr9G/LDY4so0f8WWsRd4T1r35zfn0R40KwyjzZbMSIToHlJUFkrniAP37O2We1vmhcUSN33HlXPbIVBNYB++9fv2zouuvue8oDDz5Uzjz9tPrFvbHXXFfJBZesqdNOPbn2df/9D5QHHnq4IHD222/fcvOtt5aHH24hq5HDZ51xWv1b9tPFl1xa5syZW22iNpBbbV+arWzQ6kIh0xyL89XB4487ptqladNfqkQNPLWvvpT6UHHcXsx60cWXlpdmtGTQIXDUGUOQ3HzLbTWD7aADDygHHrD/ciK0JbD4odtv93aR+FKay+IlS8rOO+1Ya1K1d8Hi3vvur5hG2Y+999qzHmPs7HX/Aw/UwvvaqqT9lluWM04/daXHTNWHuvzyK8ur/1XKwcVf/uh551YiaV0TWDL0Nh/19jHsaoObSjnisEPLG2/Mqkck+cjGRy8+et457b74MQ44+ALhwgULWyBsKgUpGi9I2xJYwzbddNmx0Jbzqr7WqLad4u7tvVzq7LysrfuSwGpAdk0TWAJ/b7Es5ij6u7YmMtvtWgggsNSJiAK5jRkVXUvSFUvDeHpT5MhIkCPeEvu34wre+nbF1NKujjHb4I23zAfZBzYab+ttElEEuLNjMEfelCO/ZDnIInBkxlt7x/+QqO0V9+xs+2v7PmvF8RVvemQjyBSBTRRl7sxXa9a2jNn+8gjQX0eUZHjIUPFyhs6ZSxl/MkjWFCmR2L+/ELCf+ECFY5KOn3Vl29RZ5NngsLmh+44uIuscq2tb7qGz7eZ9iUBXQKCVwJo3tzRNea6SG01N3Uvz8C1wE6Vp5pTSvHhZkNyBwE0DNyoLBvUvbyyYXJqLrJyOizr16b5h2aCXDyZ1r60hh3/685aPhrjUczrxhOPLttu0ZDit7JJJeVXDl/jqEeNTxryjpEh77TjSp36WMXupePhhh9ZC12RyvPD5CRPLxz5ybhk8aFCtXXX7HXfWe9k1daRkYV173Q2VJEK6ue/+Bx6smUZR/kLRbgXTFYOXgaWQu/1TBuYZp52ywgLu7cmMiFIIXWFy9bqQFhXHRQvrEcCo2UUmBNXWW7XU9Kq+5GOPt9Yaq1+mO+jA+vvfXXxJ6d9P6YaTykaDBy/X7TtrYG1SPvaR81p9AJSmr9rBryN7r2/1wZBu/Avj16+vOnb2evKppyqJCFfP863POO3UDgu4R7sKtSt0j+h0yUT61Cc/3vLRstWogfVujhDusP325cQTjnsbO19wXPZiROatY6BRXwtncd6555RNhw5pFyI6euXVY2vtMwvVfJ4oG29Z5mLbrxAqzO9YbcR0+o2+u6I/lwRWw7SvaQKrs4su73v/IeB4A0LB8QFvX9v7HO36MGrGS2aFGj6OUNl8vJ1QD0O9rPhK1fowlq4kI4dQ3TV1ZmwM/kSRcsc0VmWzMEdR58mGxSnxM3onSOzqBJCjZmroIPPiqDNiVH2YxppkXWn+PuiyhP4itpGvcYRK/Rt117q6zn3Q5++9HL/jc/TGMWz68n54AWINqBfnj70/jiOqj6WEQBxdfC9xz74TgdVFIAisV954s/zHVfeWjQb0KR86bI8y+eXXy9j7ny6Ll7x9TKy9PmRg7brV8HLGXgtL/9e/X5oWzypNzR0809StzOt/Qpk/6GOluamlMDV/RuaJL9T5t/UlE8jX/jpDgCM0ZFIhjqKWlSyqgw48cIWQIL5kfsVReC+iFWj3og1JdNkV6ibNKh8579yywcCBNWtcptfUqdNqP/ZBz9QacsccVXbZeefa31NqU113fT1ayF+TZSQ7yfMImOfHj182zh71C3zxXGfn74knnyrXXX9D6dWrZ0v9oqZu9VFH0swlefxdy2uMGlnOOuvMWtjdhdy69PIr6zFnWCPWkG6w32uvPevXB9sep19TRdzHT5hQxo69tsxZVs9yw0GDynnnnF0Jpc5cisD/uiFTTzbTqSePeUcWf2Nb5glxhnhsqXHcrcY2xx59VMVndQgsXxWMY34r+wrhm7Nnlx//pHNF3OmjovyTX2ypkUb3jzvm6Hoss72YYdHixeXqsWPLM8+0rJu+ffqUM888vfXLnVnEvTNatZ7ckwTWejJR64GYNkwGLDaw9dlJNxYpx/64pK1Kd446aatCtqwHU7fORLQZCXa8bXLJYoHr6uiKjZe+RQFpJGPU+VlnA1rNjjgQoV+cKnpF9vU1a3E1YVjvHuO0qr0Tn+dGYsn+i2A97cJ6N6XrRGD2TpAUe+M66XQddMKGWQ/sMBtuLci878xX0taBeNlFIrDaCASB9fJrs8rXfnl9OWavbcs+O4wq/37FXWXyjNcwTCts215w6O7blk8dObz0nfnvpc/sy0rzogXtPtOte48yd/DHytyhXy7N3fq03iOb6Oprrq3HCLXnuNNJJx7fqewkwbvC6GOvvbbWhPL8JhtvXIP5Qcs+HNRWGGN2PBDxFUfaEAVHHXF43eO8eEMm9O7Tu5x91pmtL20mTnyhyhnZPGyBL8UhouIYsVp4MmkcFWwsDE8GGVCys/iH5BwxYniRodXZEjT6dQzQ3wrVbzps01YCy5GwefPmV7IGCRIF7dU4ilpYxu0oX3zpLgjCSt6NObGV/GjEa3UILP2oOdVyjHJwxc+YFZ0PotIx1b332qPWGOvMSwBtyeCKLz3C+4D996t/OrLDCKSxY68pk5YVzkfWjTnpxLLZZi3HU5GRss/ii8q77bpLOeboozpsL467wr8ShJtvXkm0vn3f1uVG7Hzh8le/+W0lz1rqRe5Q57ujo+tPP/NsJSdbvqbZVDYbMbx+GbO9l70wvunmW1o/QpAE1mqbwK7/YBJYXX+OUsJEIBFIBBKBRCARSAQSgUQgEVj7CDQSWN++6PbyiWP2Lk9PmlGuvPeJWjB7Zdeggf3L2YfvWUZvNbtsOO0rpWleSzH19q6OCCwk0kOPjCt33XV3zVxCrKiBdewxRy+r27N8a9qfOfOVMvPVV8suO+1YM44UXUcOIQsQS2pAISPavixDhDz//Ph6lA7BgShQS+qkk05o/Wqf7BXHCxEIZ6iB1a0ly0nbUS9KO4in0089pRY1jwvJ/dsLLqxfvVPg3pHEww47tJIixoZgeviRlhpZ2tW3LC1ET9urnpKYPr3MeuONsuMOO5a77rmnZpptu83W5dhjjyl9evd+xzPPPPNsJdnI6hq52Wa1XlfgoPyEjLfXX/fS2nHRbmWnnXaoxbzbq3n7zq8QDim/98lPdKgW5pKcTz35dK2Zps6pove9e/cqsqiuHntNmTJlakvWUN++ZV+1w/bdt/Ts2ZIl1niZ1+eeH1+/BOmopPlytHPChIn1eWNC5O24w/bveNb4zbEjomRCovkSn6OfQdzRA1i0kpgrIbDq16B/9ZvWL1KujMBCkF3wu4taCSxk5yknj+kQu5r9/tDD5c677q7P0Bl6fOQRh7+jVpqXRXQUPp3JwDrskIPL3nvvtUonQFa29tfm7/MIYQO6SWCtTVXLthOBRCARSAQSgUQgEUgEEoFEYH1BIAisGa+9Ub530W3lE8fvX86/+cEyfuorHRJRSJ9ePXuUUUM3Ksfss10ZsfGgskXvh8oGU79cmhfN7XDoHRFYHlAI/PHHn6iZUbI4kQpOBOy66y5l81Gblb59+pWmplLmzJ1Xv6LqKJ2jhrvvtmtrf888+2wtFK6OEIII6bHXnnvUEg4IEl8slK2FQELMyCxGEBx6yCH164JxPfTww7VgOMJBPa7G68UpUyoJ46uDyKlDDh69XMYO2S+86OJa68q11ZZblJPHnNRaTD2yvx57/PGaMUZOmUG777FbzTzr17dfJeTmzJ1TZHw999zzZfToA+tYLr/yqjJ37rxy2GGImN0rQdb28uxvz7+wFvhGbCBuDj/80ErcOG4I1xtuvKk8/sSTtW+x8Vlnnt7hVx9ldRmPzDLzDrO3jz02l3lz55UFixbWAu5qLPma5KWXXVEUT48aS77650vDLsTenXfeVcZPnFizsipZudmIsvtuu9UvMvbu1bssXLigvP7GG1XG2bPfqsXuN95oo/q8LKg77ry7frl63vz5dV5lmCksP6D/gFqcXL2xceMeLVOmTqskoeOGB+y3X9l5552WOwXx3PPPl8uvuKr1yOUWm29ej+x5Rjvz580vCxYuKjvusF0lK83pL3/167JgGTk4dMiQsu+++1Tiz1jnL5hfFi5YVEaOHFFGDB9eM7waCSyZVFGTbGnzkjJ3ztyq9wqpxweNzM9jjz9RHn74kYpB1Y/Bg8uee+5eNh0ypLWMiAy/m2+9rZ70cJmX008/tbUG1vgJE2tR/5ajky2E8NBaT6upLF68qOpRt25NZfRBB5UhQ1bvS4dr08YlgZUE1trUr2w7EUgEEoFEIBFIBBKBRCARSATWQwTezsB6o3znotvL2YftVn5367gydWZLUfXlr6bSs0f3svWITcre240sgwf2K+PGTy19e/cun9h/dhk45QurTWBFP74Wh7jxkazX35hV5i6rmSSDR/CNKOjXt28ZMnRI2X/ffZY7fud3rc9Pm1aP/ArUkRw9uvcoCxYuqOSEepzIIvWu1IlqrOuIMJAlpfg3sgFB1XipPSRTDEHjd74m2Hg5Xnb9jTfVr8q5kDJqGTVmgukD8fDCpMmV5EDKINfI1rtXr1rPyoVUGz5sePHFvufHP18ef+Kpelzt8EMPXUZGtK9w4x59rJJ0LQX5m8rw4cPKoQePrjVuXcitW265rRjLppsOrTWhOjqG51hnPd751lule7eWwvuNR+AQLsZjLvbcc49K7txzz70FQbd48dIyatRmNQOrkSCUiSYLa/KUKWXGSzNq2wsWIKN61dpedLJHj55lg4ED6tcGkZiN2WGyjxCRL0yaVBzTm/3W7PpMr169K/G0cOGiSugM2nCDMnLkyLLN1ltVErPthcC6+ZZb69hlokXN2pb7msuCBY7+lXL6qadWksexyEsuu7x093XdZV/YbcWiubksrCVDmsqRhx9aC/xPmjS5XHfDjXVeI4sv7jc3xoFc8rVI2X5xwRMJO/GFFypxiMhCmJKFrrY8u7gWz++lFlv//jWDb68992zNWHx+/ISWsXXvbsKWm7fAqH4w4fjjOnVUd12btiSwGhDPDKx1rX7ZXyKQCCQCiUAikAgkAolAIpAIdEUE2tbAOniXLcqixUvKLePGl6VLliwLfLuVAf16le03G1r223FU6d+nd3ng2cnl0QnTy6zZ88ro3bYpfzh67hohsHQogBfcyx6RZbNkcYscLgSHIN6f9o68VeoBmbBwYZm/YEHNtGoZR0sQ37NXz3r0DsHREWmj0DhcFD93zK3tpW1kBSKtbV1TssssWrK0pZC9LCnEUXv1T92rLUSJ7J2lUTC/qdSxqWtknEgO44ijbmRaUT1V2MEtLplXyIp4Rr+IQURZr549V/ghqiVLlpY3Z79ZFOvv1r3lKGXjBVtYkSkIsqjbGscs4+dtn/UcMmv+/AU166rl6GnLh48QdcZeC9UvO8LZ9nl4hI4sWriwtVyb+80v0nNFz+tXplstct82mw1J5Ahtc3P9grj50J9jkO5HYC13NcsibCGV+vcfUPr06V3HpX0k0jvvb67tGbFC9u3pYugxQm7e/HnLjvS+nXXXo0f30rNXr9KrZ68WkrYScS2/h2tLHba3CaxWeZcRYE3dmuoHCrpiLccksBq0Kwmsrrh1pkyJQCKQCCQCiUAikAgkAolAIrCuEWgksP72p9eUpUsXl/2337yM2nSjMnfBwtKje7ey6eANSv++vcr8BYvKuPHTyiPPTy2z585vqePU1FQO2WO7FgJr6hdKWcERwqZu7RdxX9djzv4SgUSgayOQBFYSWF1bQ1O6RCARSAQSgUQgEUgEEoFEIBFY5wgEgfXqG2+WH1x2Zz1+JVlpg359yuCBfUuvHt3L4iVLy1vzFpY33lKzp3m52lgSPvbabvNyxp7zS/+Xv1malryd+dN2ME1N3cu8DU4u8zb6eClNjgTmlQgkAonAOxFIAisJrFwXiUAikAgkAolAIpAIJAKJQCKQCCyHQBBYjtvNemvecr9rOdC18ktB9wG9m0vT4jdq7aAVXc3d+pXm7gM72fLK+847EoFE4P2HQBJYSWC9/7Q6R5QIJAKJQCKQCCQCiUAikAgkAu8KgSCw1BLKKxFIBBKBroBAElhJYHUFPUwZEoFEIBFIBBKBRCARSAQSgUSgCyGQBFYXmowUJRFIBCoCSWAlgbVOlkLLlyOWvxo/s7qmhWivv+hjbfa7pseR7SUCiUAikAgkAolAIpAIJALvBQJJYL0XqGefiUAisCIEksBKAmudrJAksNYJzNlJIpAIJAKJQCKQCCQCiUAisEYQSAJrjcCYjSQCicAaRCAJrCSw3qFOyKY1maWkvfnz55du3bqVXr3e/qrImuyj7SBsuPrUX48ePYqz++Twf3LklQgkAolAIpAIJAKJQCKQCCQCHSOQBFZqRyKQCHQ1BJLA6mIE1ty5c8vrr79eFi9eXLp3714GDhxY+vXrV3r27LnGdAeR8+abb1ZCZ4MNNqiEjn+/9dZb9c+gQYNK375911h/xnTjjTfWdvfff/9WEmttElivvPJKufrqq8tee+1Vtt1223L33XdXQuuII46oeOaVCCQCiUAikAgkAolAIpAIJAJJYKUOJAKJwPqDQBJYXYjAWrp0abnvvvvKD3/4w7Jo0aLSp0+fMmzYsLLrrruWgw46qIwYMWKNZA8hlK644ooyZ86ccvbZZ5cBAwaU6dOnlwsvvLASWeecc07td00RTMiyn/zkJ5WM+/CHP1z69+9fUV9T7be33GbMmFG+8Y1vlBNPPLEceOCB5ec//3kl5z772c9WIi2vRCARSAQSgUQgEUgEEoFEIBFIAit1IBFIBNYfBJLA6mIE1tixY8uPfvSjcuSRR5atttqqIGIef/zxMnLkyHLGGWeULbbYopJY7ZE/nT36N3v27EqSIZa++MUv1uyuK6+8stx1113l1FNPLaNHj16tDKzGOleN8iHMLrnkkkqOnXbaaZUwW9sE1ssvv1wJrOOPP76Sfz/72c+KcX/+859PAmv9sU8paSKQCCQCiUAikAgkAonAe4RAHiF8j4DPbhOBRKBDBJLA6mIE1jXXXFMuu+yy8pnPfKZmXi1YsKCMHz++nH/++WXo0KHlYx/7WNlk6lUhNgAAIABJREFUk02q1H43a9asWuNpww03bD0KKHsLyaXukz8Io8YjiDKRfvzjH7dmJD344IPlhhtuqMfrjjrqqEqOIZ169+5ds8BcUUNKO4goG5o+Xnvttfq3rCZyBIkWRxId23MU0hFCcp1yyik1E8uFUPJ7sjfWxmqrrTLTyOxex//8iTpW2oSB/2tHX66JEyeWr3/965X0O/jggyuBpY3Pfe5zSWClQUwEEoFEIBFIBBKBRCARSARWgkASWKkiiUAi0NUQSAKrCxJYl19+eSVaEFhBRCG1br311kps7bzzzrVO1p133lkeeuihSjQdffTRZc8996zHAh1DtOG4B8l13HHHlc0226w1awuR40ifDCzH65Bje+yxR/nEJz5Rj/c9/fTTtS+/06a2HnjggUpqqWGFSNIHIokMfo/82nfffevPEE7PP/98uemmm8qrr75as8fIMmTIkJrhRd5JkyaVW265pR5d3HvvvWtfG2+88TsyyxBn5NGfrCqYHHvssZVY838/f+SRRyoptt9++5WddtqpDB48uEyYMKESWGeeeWY55JBDksDqapYn5UkEEoFEIBFIBBKBRCAR6NIIJIHVpacnhUsEPpAIJIHVRQkstZp22223SmAhhB599NHyne98p3zoQx+qR/wuuuii8uSTT1Yya+rUqTUL6Y//+I8rkfOv//qvlSDaZ599KgGlkDlSJy4E1k9/+tPy8MMP12ykTTfdtJx77rll1KhRta/bb7+9tq+vww47rGZfyWCSbfX7v//7tS/H84YPH14LpCOh/FHfChH1wgsv1JpTCtHvuOOOZcqUKZXQQiSpr/Xiiy+WX/7yl1VWWVPGscsuu5SPfOQjtah8XGQZN25crc0l64ycSDAyIdEQb36PfHM98cQTlWCTdYXc+sd//McksD6QZi0HnQgkAolAIpAIJAKJQCLwbhFIAuvdIpjPJwKJwJpGIAmsLkhgybZCYO2+++6tR+UQMn//939fdthhh5rp5AigbCa1siZPnlz/799Ir+9+97s1Q+nTn/50zbxy7K+xJpUsrf/8z/+sBBAC7O/+7u8qeeUeG5Xsq4svvrgSWIcffnglsNyPwNKmv7/5zW/W/k844YTaP9IMmfXJT36y/OY3vymOJf7RH/1RzZhCsP3gBz+ofSkaf+2115b777+/fOlLX6rEmr5keH3hC18o22yzTaus+jUuRyhjLAg9xw2Rb0g4Y5aR5Sjhr3/960qUIfJ8RfFrX/taElhr2mJke4lAIpAIJAKJQCKQCCQCHwgEksD6QExzDjIRWK8QSAKrCxFYNgk1sBwhDAIriCcZTggZmUqykOKezTffvEybNq3+H0Gk3tO//du/1X+fd9557daWkoGlUPyll15att9++/LlL3+5bLfddq3ZXggsRdfPOuusVgJL0fcgsBwL/N73vlc+9alP1WN7Mqq+//3v14ysj370o+Xb3/52PUqIoJJRpdYVIgpZdcwxx1SCS1sf//jHW48h3n333fUIo+OEjfWtkGy33XZba3F5GWN+r9g9rMi+5ZZbVuJNHa8LLrig1gnbeuuty1e/+tUksNYrc5TCJgKJQCKQCCQCiUAikAh0FQSSwOoqM5FyJAKJQCCQBFYXJ7DiCKGMpX/+53+uR/AUKkdAOS7naN28efNqFpSjdEFgIbocC2yvOHocIXR0D6mEJEM8ye5SfL2zBJZsKzLoW4bViBEjajv/9E//VNv90z/901pTi3xXXHFFbZt8v/3tb8tTTz1VySryzZw5s5JcCrwfcMABrYXYTY22ZWi5X4YXAkyW2fXXX18JrK985Sv1y4yOG6qVpbaXjCxjSQIrDV0ikAgkAolAIpAIJAKJQCKweggkgbV6uOVTiUAisPYQSAJrPSCwFGJH4lx33XXli1/8YpkxY0YlahBUw4YNq+QNEkoGFJLIcT4E1ooysGREIY18ddDRO4XWHflTk6q9I4Tul3nleJ6/kWkysDoisDbaaKPyJ3/yJ5XAcmRR1pVjfYq9q2nlSOTxxx9fCSwyK+wumwwh13jc0dj0p1i7o4faQJyp8eX/MrAQWNpAdskUU2tL7a0ksNae4ciWE4FEIBFIBBKBRCARSATe3wgkgfX+nt8cXSKwPiKQBFYXJbB8hVCmEWJm4sSJ9YgekkkRdWSOIuh/8zd/UzONXO5zIXY6S2DJxNKPAvEIMsTPSSedVOtRKeLuCOGhhx5aM6i+9a1v1S8aqlO1IgLLsUDkFnnci5ByXFBdLgTVmDFj6jE/bSG4HDV0rz+Iq0byqnFcfv/444/XsSlir6C7DCyEGrJKwfibb765Znoh9tT+SgJrfTRJKXMikAgkAolAIpAIJAKJQFdAIAmsrjALKUMikAg0IpAEVhcksGQoOYqnLhVC6sYbb6zZUmpEOSboOJ2i6n4vg0r20uuvv15JHcXM/+Vf/qX1q34dHSF0BPHNN9+sx/x69OhRiZ877rijnHbaabWdX/ziF7U+1nHHHVcmTJhQ+0Og/fmf/3l55ZVXWjOwHPmT+aQmliOEsrjUonLED1nlK4iO9jk2qF6WIu433XRT/b1/I+CMDUG11VZb1QyruGRf+YKhv41DMXfYOCJItsgcU0helpd6WYixz3zmM/UZBBYSDjGn4DvC7vOf/3z98mJeiUAikAgkAolAIpAIJAKJQCLQMQJJYKV2JAKJQFdDIAmsLkRgIV2QP4qgK9Quiwhx499IGMcCfVEQSSMLC+kkGwoB5SghsmbjjTeu2VoIHsXM2yOwoqj63Llza7F4xwYdS/z5z39eyShHD1944YVaKN0RQPWs9KttxJrjfzKqZIMddNBB9SuDCCy/l1WlXeTSQw89VL+GqA2XjDIyklkGGUKKfDbHww47rJxxxhllwIABrTMiq+rqq68ut9xyS21z/vz5tQ4WIm/o0KH1qCMMPA87z5588sk1Q8t4vv71r9c2DzzwwFpEHoGFsEsCq6uZoZQnEUgEEoFEIBFIBBKBRKCrIZAEVlebkZQnEUgEksDqQgSWLCRfFLzzzjvLrFmzijpSvrAnS6mR2CGyDcWROsf9kDfuke2EaBo3bly9f6eddlquIHoMdeHChUUBd8/tuuuurXWokFfa1Ja+ZWT5+qF2Ro0aVbO7/I1MQk55Vt0t/9envsmAUPOc5xVoR6bJ6pIpZjzxe7IjvxwjlMml3/gCIVnh8dxzz5V777234uGLhsgpXxh0n6wrchgLIkx2GpKMHPE7/en7scceq/LvtddeVY68EoFEIBFIBBKBRCARSAQSgUSgYwSSwErtSAQSga6GQBJYXYjACtLGZuFC0jQSOm2VB8ET9/oyYdSPQkzF8x0pXHv3aC8Kwus3Mpsa29ZH3Oeexj793L1xyaCKn8V9bQu068PPGvtoK3O009592vf79n4XY/E7/24rX1dbjClPIpAIJAKJQCKQCCQCiUAi0FUQSAKrq8xEypEIJAKBQBJYXYzAStVMBBKBRCARSAQSgUQgEUgEEoFE4L1GIAms93oGsv9EIBFoi0ASWElg5apIBBKBRCARSAQSgUQgEUgEEoFEYDkEksBKhUgEEoGuhkASWElgdTWdTHkSgUQgEUgEEoFEIBFIBBKBROA9RiAJrPd4ArL7RCAReAcCTbNmzWpOXFoQUIdJQfHGOk2JTSKQCCQCiUAikAgkAolAIpAIJAIfNATUkJ03b15rzd0P2vhzvIlAItD1EGhqVtk6r0QgEUgEEoFEIBFIBBKBRCARSAQSgURgGQLCxHyxn+qQCCQCXQmBJLC60mysI1mkAy9cuLD06tVrua8Gtu3+lVdeKfPnzy9DhgwpvXv3XmXpfB1w6tSpZcCAAWWjjTaqXwvUt35X9HXFVe5oLT8wd+7cMn369DJ06NAycODAtdxb55qH5UsvvVT69OlTNtlkk849tA7v8sZu5syZVc9GjBixQj1rK9Zrr71WXn311TJq1Kg6vg/SZeyzZ8+umPXs2XOtDp1ez5gxo2y88cZVr9NBXatw/3/27jvIu6JKH/i1ytpyd2uNq+KCgApmEURWERBBEVTEgIoogmQQFEUBBXMgKGBEAROIGQWzkkSUqIAsggETZld317C6Va7//OrTv33eaq7fyTMw77znVk3NzA3dp59zuvuc557uW4UXAoVAIVAIFAKrHQJFYK12KiuBC4EVj0ARWCtexTdtoIno5z//+XD11VcPD3vYw4a11lprIgLu+9KXvtRIkic84QmNvJnr8Yc//GF473vfOzzgAQ8YHvnIRw7f+c53ht/97nfDZpttNtz2treda3GNAPvJT37SUpk32GCDm43cuPHGG4ePfOQjw+Mf//hho402WhaB/u9///vhtNNOG9ZZZ53hKU95ypwIojHwyCYE3a1vfetGhllK64Dzj3/84+Hv//7vG5nkugPx8ctf/nK4/e1v38iPScQH4vPss89u5e63336NxJzNwe4uvPDC4XOf+9xw8MEHD/e85z1n89iKuef8888fvvnNbw577bVXw3Ypjx/84AfDhz70oeExj3lMGwui39T55z//eWD7IbD1XePFmkYqLqUOquxCoBAoBAqBQmA5I1AE1nLWTslWCKyZCBSBtUL1PmllKKLB+SuuuGL4wAc+MBx44IHDgx70oIZAf3/u+9SnPtUIp5122mlOWT4pC4H1tre9bXjwgx88POpRjxrOOuusRkDtu+++w9prr32TOskwUwaIjJ63vOUtLbPn8MMPH+51r3utemaq9o7VO9WK2b7uMRYIPwTWtttuO2yyySYte2x8z3Rm5F6ZSAg4wf902WczYZB6ZOrAQqYOskNW22xXA4/r+Mtf/tLsAXG18847D7e73e1aNddff/3wmte8ppGFhx56aLMBZNeVV145fP7znx+233774eEPf/jf6E35CCxl/uhHPxpe9rKXtTJnks9zykecfvSjH23P3fe+9/2b8mcqZ6yLqXTb3zdb3GdT92zLmmQzcP3617/eyDvEUeoblzkbOWbqUwjlt771rcMOO+zQyNmxDf3whz8c3vjGNw6Pe9zjGlGKWHzmM585rLvuujPqclLbJuGyGO1YoUN4NasQKAQKgUKgELjFESgC6xZXQQlQCBQCIwSKwFqhJtEHvuO/Zc9861vfGh7ykIe0ILkPdDNR+f3pT396kOnzxCc+sS0BnEtg7nkE1jve8Y6WtSTL4/vf/347hwTql+LNZnJ0z7e//e1GiFnOqLzHPvaxq7JBxmVMV+Zc7oWNZZAf//jHGwm38cYb/w1pNhMuiCtZNbKZkD49mROycKYyxmaKWHzzm9/cMmL23nvviUs8Z0uyIdeQTT/72c9athRyEamFSDr22GOb/o488shhvfXWG/76178OZ5555nDVVVc14uz+97//RLsIKabNRxxxxCpSbBJZ2rcNgSUL6Qtf+EIjzZAlU5GQ05GOU3XrqQihuQwDi1HGVPVp9ze+8Y3hoIMOmjVpPF95EFj6E5sMgRW5lGkJ8Wc/+9mmf9lg11133fCIRzyijQVTkWOTiPC52PZ82zIX/dW9hUAhUAgUAoVAITA7BGbjo8+upLqrECgECoHFQaAIrMXBcdmWIhNGJsWf/vSn4R73uEcjrCwNk1UkeydLuxATP/3pT4ff/OY3jRRBYnzxi18c/vjHPw6bb755I7Is+1t//fVbpsZUh7ItTVKvjB1LlGRgyfJQhz2wfOlRtg+yQpBMFqSOZWpTlY1kEdx/9atfbcsZ1fOCF7xg1TKrZDjJbpKhpa673vWuN/mqpPosidQWbbc0DtECg2RVueYeBBscLKuyjOrDH/5wy0TRfm37x3/8x7/ZN8jSOniZ7LUx+wqRR0YRYuKwww5rmWOuO+z1ZJkdbGfa90gbYaVt5Hrf+97XMNtzzz0bgeU6ghBh1stHHjJrm7/V5XqIBbhccMEFTd/777//cJ/73GeQ4fWJT3xiuOSSS1qbtd0yM3idfPLJTY7nP//5jWBiW35gSI+yzHoC64UvfOGqvc9cJ3scIvJaqsYeXKP/L3/5y61esjiccy1LG53zPBKPHbiOYFG/tqjb39rHvsgzft5z6nbPHe5whyntTnnugx+MYUd+duycv+Gu/ZEzS/E8G2ycI0P2kouutCXt9rcMrGuuuaaRg9obTMf7YdGPMsjDluChTc5pr3202IGyY2vjPjsmsMgYTEKyaiP9aK/+wqbJpOxgwh49F5tTDznI4373wYGsyugP1+jRedejQ/fDyvX0t95ml+2AW4IVAoVAIVAIFAIrCIEisFaQMqsphcAKQaAIrBWiyHEzTDiIE1k0smAE05tuuumwzTbbtEwbhMqznvWsVWSF+2QJCUyRIk960pOGG264YbjssstaYCnQR87Yz2rHHXdswer4EMTKnrG/lmDePbKmLEuTvXT55Zc3QmG77bZr+yfJAjv33HMbaaZ891imN2mPHUTPqaee2kge5VrOdMABBzR5PIt8Iz8ySECMxEB0yR7THv9/7WtfawQYbBAvMEFSIWcE75ZuuQfRgzwgJ9IGXjJVlNNnTJFVdopnZbVpOzkThCPtkIYw/NjHPtb0QJ6tt956uN/97tfajzQir2B9yy23HLbaaquJ2CoXsQNPcsMAsSZ7RpmCfOQHslL9yqMn9Sv/nHPOae1wjR3Yk6zf84iuZcs99alPbfIhqD75yU82PYbwe85zntN0ddJJJw13u9vdhj322KMRE7J0yOdAzsGNDpF+iDHLDOHPtmSwKV+56kRKIkC059GPfnSzx4suuqhlhMkQRISQ2XnYsEVEIVtC9NCl///1X/+14Yfo+bd/+7eW7adO9oZ8kfWXei1jpSu4eF42Hz2OSSIkEHv47ne/28pwr/6jLGWzF3jYCD1EizpkKbGTa6+9dvjKV77S2s2eZDnRu34UXSpTZhsbRMLREzy1V7siO33BCN6XXnpp62OueYae9QtLOxF/MKIzBBIieqo97EJgqVs2I9z0ITaPdGbT5GQ3bA7Rpy59B4F28cUXtzpggORyXTlsjh3qo8hh14xFrsOajTj0Wf2frbmPDtlKiDz6ULb7jBfaseGGG65WH4BYodNLNasQKAQKgUJgDUGgCKw1RNHVzEJgNUKgCKxlpCxBoqDUMdXyr2RlzCQ2UkAwbBkgYkgWjQBYAChIfde73jW85CUvaUvABJEILMSGvW4cAm0BreViAktZWJ4TkMt8Qi6MM2JSjgBY4GyZ2XnnndeWpQnsERpIHM9rpwwibXa/YBoJsvvuuzdSqj+yfPDtb397y0yR1YHMQlggbxAxyIx3v/vdjRhBdCANkBTIFHt4CZI9LyuM7Igum4zbUF5WFFJDmQJl15FLAm9LuQTpRx11VMsSQSS4B1Egs0WWkMD8jDPOaPs9wYoMyA3nd9tttxa8Iwy1EQn00Ic+tLXfBvcIGkG7gF/m2vOe97xGpvSH+hFdCAPlq1d7kRiWDyINkD72LIMdUsO99jd7xjOe0UgYeqBDz7IF13r9IXosSUQwIS/pXpuQj+RG2MDCvlj0hsiBv73BZKwhPJAassx23XXXRuJYdkkmukfSfO9732t6QHwhA9/znve09iOEYEYm9oc0Oe6445puYEVXsH3a057WbEUd9lNThrbATdnKJYdryDxtQQTB1g+5nFMvUgaWMHjgAx/Y+sV4E3MEDuzYKEIOkUVexK9MRiSbPsFeyO1vfQyxCq/3v//9jSSj3xDIiD+6oK973/ve7T62xo6RO/SGLNX/yOp5sj796U9vbdOnyG9vMPalTn342c9+dnvWnlbu8ywCDKllk39lj5fy0as+gYiVrYiwRE7BWT+RgcfO6AU2CEf2A2d98oQTTmhEGZ0gzdwLRzhbdmv/LO0z/qSPkktbyCY703hAXkQVco690qmlq85ljzV2R0b752l3HYVAIVAIFAKFQCGw9AgUgbX0GFcNhUAhMDcEisCaG15LdrcJQqAqSBT0ITgEvc7LQBFoCx4FqwK5mfaVEWiffvrpjeRAPPSbYcvgOOWUUxqBhQwSxCJNBI9ImtT5mc98phExSCXBtqyW173udS3AHe+ZI1vlne98Z3tWAK9cpMOJJ57YCCXZSEgcWUM2qCYXcsMyNHW719I0JAs5+kPGiuBa/coWwCIP1Ol/wbNAXmaQLB4BMgJLuxAKykMYqBOZhvhATrzpTW9qzyKwyOY6cg3pQU7tQVbIDnnta1/byva/zBC4IG9kr/hSXgg1uNCVshA9CCwkDDIAwfDKV76yZcsgpJAs++yzTyMIBPxHH310I6PGXxV0DTb0Theyq+gQQaKtMDv++OMbcWU5IewRlzbrt1E/og7J9NKXvrRhx3Z68grWyDrtcdAv4kMZsJFJ5Ac2zvtCIGILkYcwkZUjEwyZYWN55Mdzn/vcVq/n2BnZZSolkw1phUS1KTjbIFM2t0eEIiOReUgyukD2ITPUA2v61VYyIM6cQyrtsssujcCSoUV2ZAhilK7hg+hBjiCtyIg4m4oURrKoJ8veED7aJ0uNXAg+dSNVZfK5jpyCjWd9JRJ5R2b9Qj0wggFCj13qp3CnY/gis+gV0Yn4Ub77tR0ZCwdEDyKHnulCphO7QtJ98IMfHJ785Cc3otU4QkY6p9MsX4wzSl59huzqpyPkFNlk+pEfESnziX7YtPbrs+5BUNkPi9wwyvJHerEEUZ9B7JHV2CX7McsjEVfGJ1huscUWrX72YJxyjr7Y5Ite9KKW7UefyHT7qSlTG/wYI9nNdB9GWLJBuwouBAqBQqAQKARWOAJFYK1wBVfzCoHVEIEisJaJ0mRMCSgFeJYjCT4ToBExe8TISrFEZ0xAjJsh8BbYChJlcyBFLN2RCYH8EPC/+MUvbgE0EkIwL6sm+xMpD4El+8WzgltZLq9//esbaYJ06PerQr4JQGVgIAlcs6RQVg+SyDOCbWQEYkIwK+tLcIt4QLDI0BKoO9cfykZGCW4F5wmGPY/A8pU8uMlMQQDJINIuGUAwlGGC1EAqIHQE1zCGgewom4UjiBAAiANEB6JB8K/tSBCECsJB1o5gXsZWAm7lycgS/CNGch1RglwiD7IOgfXqV7+6ZadZUmh5nTIF6Ei6LJuDX79vkcwf8gn0lYVAk8nkHPJLBswb3vCGhg+SQ/0INplKAn4ZSogNhAiyCaExXi4HLwSE5Y7wR1bABhmhLLaAPCMLssF5m3rLolGuLBqEojJkK9ELAgymZGAD6kBosgvEFQzoRJtk/yFk6Ite2QICCrkZsgPphZiBq6wnZJW26jsIQbKzLVlT8Am5qS+QU5sQkFlWS1/601R7KyFHEEhsk360V5uQjogppCQCTV/QPnJqPzxgzGa0j+3rg1n2iTRSr2w5sukLMH7Vq17V+gesQ2zqf/oQIokd03OW6hkTtEnbfbFRXYhaeOqHcGH3sGBTiFNHnFFkua9M0rPMKNghpmAqe9FSRs+xeYcsPQQWwhYpjWgzFiFps3cZWejWPUhV9yF1lSmLSplsR3+FHx0aW2SaIXzZsLarR/tkOCJE2ZH+TUYEdAis8binnpnI/WUy5JcYhUAhUAgUAoXAskegCKxlr6ISsBBY4xAoAmuZqFywjDRBApgsBPvIJMGYbCyElb8FzNnseDrRlaE8pAlyRXmyRgTBAnEZWAgsQa5MI8G862MCq/8K4XQEVjKoEDgC2BBYskcQE7JSBPeCfEEoEg2pok4EEMIOUUA+GSs5tN29CCyZFzLQlC3Ql91juRKSKQQWAkcAjxgQLCsX2YBAQpwgsBAA8Fa/wNgm48gGwX/2WfIc8sLSLgE2QgVRgaiR7aG9MERCkFHmDMIEcUBPSLcQLTJKkBI9gSV4Vybihjz0Y8mU+hEg/WbXsmHoCDYIKO0X8MMWGYbUOeaYY1qGDUIrG5y7T3aQ34gF2VP+hhFird9rTBtkucgGQuIhgRAeZEdayYBDZGi39iEWLPWDm3KQfln+imhC2iBPkGf5CiHSEIFFdqShzCgklmw4OMBanbKYPHv44Yc3ctJ1upIFyF7giuiUVeTIlwsRpIccckhb/ohwQg4iAmML9Mte4ITEUi57kmEExz6LB4Yy/mSRsRtZefqC7DBZfPREh9qNNE3GIRunD+Va7ud57QyRAz96QyB6huz0rg9YpopUgj1bIhMZQ2DJAJTVpB/qC8pgo/osrMiJDNPX4MamZC3JfEPcIUp7Akv7EF/6nev91yzp1v5k+rIMQoexib4dMg/ZL6Iq/R0hSwcw1g+QUGzZ8kWH/soOEViw0afJxNbJqk+TnV61mZ7ggOB2DeGs/4bAUmbGx2S45dwyGdZLjEKgECgECoFCYLVGoAis1Vp9JXwhsCIRKAJrmahVICuIy1KqfmmMANx55xxIiNkumVEmMkXAjrhCPFiaI3sHgaVsm3fLosheNQlykS6CdqSJQH06AisZSQL3BLSICkGqc7K7ZET1GVj26BKQIogSgMq2QNDlsP+T5X2CaUud8tVEcmsXQgkBJXtNhkYIrOxBJAhGPIXAQp4hAZEp7hfcJwMLuYbw0dbgTB4BvuVUsr9k/tCFe2VgIbBk1iCHkIBZqmnjaUSLTBsEm/oRicnAgoWAP5kxab8lWWOCMgQWDJE8iAvEhoAetggGmXF+JwOLjIgBG9m7X3YOvGQQyaCScYdo6gkN5IolakgwxJPMGZk56kJWIKjgjzxhE7J0tINcyCWH6/BDyMh6om/kSrLeEFhIF8sKySbDSKaYspQBD1lFiBD2aU8mGUTKykbucEWmIckc5EJ62Z+NPclmUgebphskLWKOzrSb/K4j7Nhg6o3elYmsyR5N2oqoYStIGQSpNiOw6AuBRWfwQ1gh1xCE+ivsZIYhlhBbCDqkHUJLtlMyieAjQxJxBA/LftkeXfUElmWmCENkVrLoEGHkQ67BAYmHQNIHEIHkYLvpO/0SQtmXIa0RfjK9lJuvUiKjkIsO/dlYQW7Z6WxPAAAgAElEQVT36RNkno7AQh6zSceYwEKuIazgHpmQU+S0PDGZfJMILP2f3ska4nScVbhMhvYSoxAoBAqBQqAQWG0RKAJrtVVdCV4IrFgEisBaJqo1QeRLZ0QKYdUvhwlp5fdMy2SUJ8hzyN5CgthXRqaFrJQsIRR4W+qDKJCBIZDOHkkymCYRWDIkZGD0SwgRTQghZIElaIgDhJng272CWCQCQsOeOTIwlI+kQExkKZi29Ztpy15BgpEvX85L0I8YEOyrD1EnOyQEFoJKu2Q3WaYkuEdyIbCQCFkOpV4yWL6EtEGsIAMcyhQUy0CyqTgiDBGAFEvGFyJCEG/5n3bKHtMG1wX7CABL/xA9MrAs2ZJZg1hAVpDH8jIHwkF94+WhCBxtk60iO0pgr+2WcJEHYSLgh5HrdOgICcqusk+QbDbETDb27gksRJ16ZPLQLWIQyUS3llMiNJFk6rS0jw7dj0iSHUbukKyw84yMIgQWEoIubfyNWLOPEuKFXPZ0yhI/2Voyg5AbnkMuIU7YDr3J5oEr+0IYait5EbLsgg0jO9k7YhI5irBlQ/SGwIUfvatXZpf905LtleEAISvrTSaTpZPwYD8y3bR/KgKLXkNgpe+px7JBfQP5hfhCbLIV+o49w4LsbJpdwGxMYMGP/YScy7gBe0SvDCeZXNkgnjzKVW+y+uKMwggJi5S1jBDpisBFCrMT+mYnyDgHXepTiC7ly0CEDxuHz6QMrDGBpX3qQPbRsWysfEmUnUYv+ttUBBYCUuakJYnINf0i4+Fsif1lMuyXGIVAIVAIFAKFwLJGoAisZa2eEq4QWCMRKAJrmak9G7dnaUwysjKBzDZAy7I2AbAsEUGxDCoBvIBfQC1oFzzKzpKJgoiRXYEcENTaBBzRI/hNBpYMIoTQeBN3MCJkZIDYkwnZYCmUJVXu9YyAWOBpY2YEE/JDtgXyQ7CKQEFmyR4JsSKzCREic4ZMOeAhowPxJBvEXjyyh7IJOjIIqYG0kCECB9eVjWAQvCMvyAqHbFotMBd0e172DNJMcI/YQpZYUodAgBdiBZ7+RwjCFYmlLTKKXLdhvcwxOCRgl/kEV/IgED2D3ECgIQtCoKWtyCD1IcAQJ0glOCPlLLGyBM515ID2IJmQl+SQ0ZKv58k8k51kuSNM4NAf5LdnmmwxBIvlZZ5hSzK3ZP94BuEHb/ggkxA0SB0ZQ/5GpLEXpBOZ2A9SRN2IN4QXXSIxEB+wVj7bRtywOyQPIoZ9ynxiA+pUlrbL0LKcMOUgauiG7mQ4wRvRKpsMaeoZ5Bd9IsjUCyPEot/IunyBEyZ0hyCkJ+UgfWGsHsQY4tKz2omIoke2rR1kgLuML/jRH1vTt5A98GW7vo7pPgQbMg9u+iKcEHwILOQl0oqNu9+z2iIDS9tliulLdK5ueNObfgRXOBpDEFH9vmrayOYRzPonnJGIbAbJjewis7LZJ1JZ++lMhpfrdJ/sNXiyeX1cFp3z5JbVmSXBlnbSmz2ukKL6jHbLcNNPLaWkA+NVMs1kosEBlvqz/qS/wQhWMhKRqSECtWsmcn+ZDfklTiFQCBQChUAhsGwRKAJr2aqmBCsE1lgEisBaxqo3acw3IBOUJ9D3t7IEe4J4hIbgW7aO7B+kA/IJISKYFpQLYgWvsmYE5MgbWSmyLmQ5CeD7TKkE/ZZQWZrlmoBc2UgEgaw9iATkykZ2INXIIZgVdCJ6kAWCaUfaIPMjm5336rLPEVIIQSCAJz8CCMmTTeyzB1YCbFlfiBIBsyV16pL147rnBekwcA/5ZXeRD9km2EaywUUAL/BHiCgLSUIWgbZnERcIB3LJjkGayAIil2VTnpPlgnRQvkOZ9leyDHF8IHGQEUgA9cEKyYLEUJ4yYCmbyOEedSA+6ARpRS5EmXMIp2RqpS5ElfJl0lmilz2kXGczCAckEjIRFtoiKwnxgSCkQ3qVHcSuLJtjC/RD7+pmNwgO7bEsEanKNskiG0d7kFzICdlUyDyZQXCiK2Rn9s6y1DCbw1tKiRjzP+KMnj3rXvize/pSr0wl8iBryIT4Ile+0qe9ZNI29yL2kLpIEs8jY8kp2wkO+gciVpmykOjcveSwdBPuiGm27Rqs2AqbQCq5hsRByCHvZC4iGGUPIk+RighAbUCo0Sc9k5dsCNHsK8Wm9C9kGdwRWvqiZ/t91bQRGUUH6mUT+hkCCiEEKyQbMhBJFiKdTcsoZHsILvZAdu1FsBpHkGX6jrFCufBxwBPJpW30jYRKhpjy2ZNr9KyvwJQtwYENqI/tybiiB/1X/fmyZoirIrCW8aRWohUChUAhUAisVggUgbVaqauELQTWCASKwFrBakbECHARE4JYmQ2CXoEtYknwnX1jED2WCwroBfwImCxjFOgLwgWYSCNBd78BeCA0yalTOf4WgHpOHepFsmQfJXUoTyCMEHIoU2CbpYkpT4CPQJj05UXtSLaRctQjUPesNnk28vtffdrvb8SA60ceeWST1XmEh+BYG+ElOFaWetTvN4zUMZYV1oL9kFEwDMmn3cgvBATyydI25cAqBJ52q69fmtljq2z4B1vXyESPdAV715ULd2SOdjiHSNHW6Nb5SYE+LLUDjv3X+civHO2BVZ4lC8yQN9qBXNA+z9MHTJXnurbJsCEv/D0na4m8lqLJrCGf58gb+3Rd23rd0oOMHQQPwlW95O2XLiID7XUFTxlB2px6EY3ahAChi0mYu26PLuSkNssqJEtwVTZM2Un2YiJ3ymJHstSUg9CBSzKFYIKAYY9w8aVLdZBPG9J3PKutygwBBQt2BFPnPQsDz8HOs/RENjYHNzKO9U3XbEq57nE/HdOBNqpbGxFd6pShCQNtyEcH9K2UTRfaRY/qp1tyyRh0KJs8yDX1wRJG2kFuetAW5SPTst8aW4YrPdAXeftM1blmp67gIb+aVggUAoVAIVAILCoCRWAtKpxVWCFQCCwCAkVgLQKIVcTyR0DAjWAR/ArQsyRJcG1Z0nh51fJv0fKScKZswakcoBARk8jJ2bQw+3zlXgSQ/ciQHTLrkGCOMXnjOT/jLMJJdWYPsUmE30ztzr52k+rp96+aT9bQdHL1xOd8yu5xmC1W7lNX6hvL1+/11ZcfjPKlVdcmtS1fY3U9ZfXt9Pds9gecjV3VPYVAIVAIFAKFQCHw/+fbhfoRhWMhUAgUAouJQBFYi4lmlbVsEUBYWd6FqJKpY6mcDB7L2SyXmy+BsmwbvIYKJpNHZp2sIZl142WSaygsK67ZHOqe/OyJwnK0V5y6q0GFQCFQCBQCtxACRWDdQsBXtYVAITAlAkVglXGsEQhkjyrL1gS4SCx7+dijp9/7aI0AYwU30rI0Hw+wnM1+TeN9n1Zw09eopiV7TaNDPjs3249crFFgVWMLgUKgECgECoF5IlAE1jyBq8cKgUJgyRAoAmvJoK2ClxMCMjTs4+N3gl7kRvYAW06yliwLQ6Df+6yycRaGZT1dCBQChUAhUAgUAmsuAkVgrbm6r5YXAssVgSKwlqtmSq5CoBAoBAqBQqAQKAQKgUKgECgEbiEEisC6hYCvaguBQmBKBIrAWgONY6aNpwPJpM2Vp4PLV82UvdKymuAgk2euy5OyR8/quLF09hhaHWVf6Mbwa+CQUE0uBAqBQqAQKAQKgULgbxAoAquMohAoBJYbAkVgLTeN3Azy+NS9z9f/y7/8S/tUfQitVJ1lV9/61rfal/se8IAHtD2jpjuUcdlll7X7t9xyy1X7Ss124rPsy0+W9Y1lGtc91dIwJNqYbFKW88iY8WbtU52P3DYFh4PN3+9973s3cq6XbTo5fv7znw//8R//Mdz3vvdtOM/3mITFbJfGpR3aqS3k/7u/+7tpvyjjmV//+tfDD3/4w+HBD37wqi/5TaWT2ciy0DbMpP/ezn7605+2Dfo32mij1tb+iC3AAxYhad03V4Jypv4wk8zztYd6rhAoBAqBQqAQKAQKgZsDgdn68TeHLFVHIVAIFAIQKAJrDbMDE5Ev8H3yk59sX+BDrjgmEQyf+tSnhv/6r/8anvSkJw3//M//PC1Ssl7e9a53NcLmhS98Yfv622yInhT69a9/fbjkkkuGxz72sY0wmw+B9b//+7/DpZdeOtzhDncYHvjABzaySjm//OUvh4svvnhYa621hoc//OGrSA0kB3JqvfXWG+51r3utIjD6un/3u98NJ598cnt2l112aUTeVIRfcETokOWKK64YLr/88uGZz3zmcPe7331eljYdDjMRR/2zP/nJT4avfOUrjYTz1cVb3/rWU8pDl3D8+Mc/Phx88MHtmYXIMZV9zSR/BJwN+dVnFZKdvg844IDhtre97U3aibC64YYbhiuvvHJ4yEMeMsDFsdVWW60i6ualqO6hhRB9C627ni8ECoFCoBAoBAqBQmAxEODPhMCarc+2GPVWGYVAIVAITIdAEVhrmH2YiK677rrhc5/73PC0pz1t2HDDDScSMu779Kc/Pfz+978fnvjEJw53utOdZiSwTjnllJa586IXvWi4/e1vfxNibKaJ7xvf+Mbw5S9/edhuu+0asTAV6REhJpUn++utb31rI6j23HPPRmQhLJBIb3zjG1tbjzzyyOGOd7xjazOS4/Of/3wj6JA6/dfMUg8C78QTTxzudre7Dc997nOnzViLzGST4YOUO//884fdd999WH/99edtaQshRPKsbKovfvGLw/3vf/9h6623npHAQna9733vGw477LCWyTTtIHKrW83YttmQUFMVMptnewILcfilL31pFZHal0sv7OHMM89ser/qqqtatiAydyYbn7GR/3fDQvQ12zrqvkKgECgECoFCoBAoBJYSgSKwlhLdKrsQKATmi0ARWPNFbjV5zuTz17/+dZBVI+sGSfM///M/LVPqLne5y3Cb29ymLSdz3X150+JeJBcC63GPe1zLZLHEyrKrSeSR5xFYspoOOuigRvRMul/5spP8VlZIIzKpSz2W6yGeyOC3nywFQ0Dk2jiLiAxnnHHG8N3vfnfYZ599WlaV5ZJIKssbXUfIIJOQXaeffvrwgx/8oBFullNmeZnfWWb3n//5n8Nb3vKWRmDttttu7Xza1ZNpwc+5LE0LKec5z3uOzGP8tMkPLPr9w5SZA2a53pM1k8wwmPVLJi0f1BYZZMjFlOF3vswY3aoXgXXaaacNL3nJS4YHPehBTeboLm1UfuzFuXG9aVOW5rnOxmCQZ/s9tmKrwSltyx5k/vf8GH/nxwTWOeecMxxyyCEtEzC6gZ9nZdX97Gc/G+5617s2m6NTGXJ+K8f97svywl5n/fV+z7exTlNn2tq3JZmBwWe8rHU1GVpKzEKgECgECoFCoBBYwQgUgbWClVtNKwRWYwSKwFqNlTeT6AJw+wF9//vfb/sfWSp3n/vcZ/jv//7vdu5+97vfqiwlS6muv/76FrQjn+x9JJNFRhUiCOEj0JYdZTnhpID91FNPbUuyHvOYx7Q67GeF/EDeuD/yIJgQMuuss05bLohEQ6ghFhBJAvvvfOc7LSNG/c6T1TK+b3/728OvfvWr4c53vvOwySabNLKrPy688MJGWMmocd0+VIi1f/qnf2qyPf3pT2/Lxf74xz+2bC1yyMoiw49+9KO2vIycniWfut2HCHnYwx7WllQigciNANEupIo2yXIy2T/0oQ9tslqmdu6557b6/vSnPzVyytLGtddeexWBg1SSERfyDu4yxBAglj7++c9/bvIoWxtkQ7k+iURUN9y/973vtWcRlO6HkfKVATft+sUvftHK1n4YeVabQ+SNCSzy3HjjjU0v5LGs8J73vOeqvc4QkK4pV71+/O0+fwcjdkcG2HmGTWoPnZODfskLhxBt5CZncHA/HHscpiKwYKYP0A/bR14qyznkJZtmo2T0929/+9uGnbLVS27LbOkM5uxUu8j24x//uGFIVriFiLKXm/pc1z62y77Uq30yAxGrSDTlui4LrI5CoBAoBAqBQqAQKASWCwJFYC0XTZQchUAh0CNQBNYKtQeEgyD6ox/9aAvCkS4CeEv0kAgf+MAHhv32268RAf7/4Ac/2MgZ5JRge6eddmqEDwJGFgnSQeCO/LAkTsDfkyjqe8973jN85jOfaQF5yCeB/bOe9awW4CMMZPUI8AXsyJZnPOMZw+abbz5ce+21bT+qbbfdtpE3J510UiPN1I1sQiBtvPHGjeRABCCWLG20HK7PWkIGffjDHx4e//jHD1tssUUjVd773ve2+775zW+29npO297//vcPG2ywQZPBcj+ykwlRsu6667Z2IjKOP/74RnhoU8ggOCSz6qKLLhrOPvvsRsjAbo899hg222yz4eqrr24ZYcns0m6EkuvKRV7Rj3bDUzvvcY97DE996lMb3pYfIuTgAS+kBx3C0/UxieX6xz72sbYsLtk922yzzfDkJz+5kSnqQkDusMMOw9e+9rXhggsuaPch1xCc9Pac5zynkW/aBB8ZWM7LJrNvGhm1BzlpCd4jH/nI1oPICj+2Rld+0x8bozf7m9lTSz3ZqN89++67b1vW6HrwVz6CkCxwok+yIn5gTD9sZuedd27nHGMCi92+4AUvaDbNtmVX0ZfyyGq5ashB53bddddGRNk/C4Yw8KED98jOch2Ri9j77Gc/2wgstgJzBO1ee+3VCD3yyf5CoiazUQbjE57whCa35ajIRDYbMhSpqj2VibVCB+NqViFQCBQChUAhsBoiUATWaqi0ErkQWAMQKAJrGSlZQI9QmOoQEM/2a2lIHvv82OfJXleIEeSLYF1mlQ3XLadzXoCPGHrKU56yarN2hIogXyCO8EB8yB750Ic+1PaXetSjHnWTfZSQLO9+97tb8I6gQQYgxuyjheRApAj8bSAvYEdy+J9MlvshntSHeEIYHHPMMY3sQBzA5CMf+UgjAGyILovGvZYrHnjgga1NOZBC2oYwU4+2uhcZZRlhnkEaIUyQVzLOZI8hqGwiDzvEkzaSOwQWWWTjyMzRTu2Ciwwv7SA7AktWjaWQ6kPEPfrRj26ElswehJQMNeUqAzHjunJl/8AXmYFkg49lnAgtWUKyw77whS+0jC7kjbpywN/eTp/4xCfadXpF2CHmDj300EasIPJkkSkPwYPQ0gYb2yNT6ApxSbavfvWrjcA64ogjWj2WW/pNdqQiEgjxhbjR9je/+c2t3Y94xCMa6YMEkrH10pe+tJFB9tNC+iAo6RMZRhcve9nLmk3LckMKIhrhBBuyuJ9u4CarDomE7ETS2ZNM1thUBBadwwtZSc8ha7Urm9kj2XysgD0+73nPayTrcccd1+wX8QQXe4fRn/5Bp+94xzuGTTfdtNkKXOlI1h1Cj30r3/Oe0f9kNiLq7MF2+OGHN7KNbNp93nnntf99+EC2WB2FQCFQCBQChUAhUAgsBwSKwFoOWigZCoFCYIxAEVjLxCZk51jCZslcv69QT1DYl0fgnf2UphMdCYOgkEmDUEKKyPpAdMh2QQrIrlHmO9/5zmH77bdvBEz2mlK2wB5pgjSSkeTv1772tY0QG9+bPbAQYYJxGUKypBAbMm4E+zJpZKkgUATrslkQJfYqQlqcddZZjTRACiE0kDqyh5AISAOy+rKc5WcIDht1I2f6L/yFqEGuIAm0H+GEJEPwIG5e85rXrFreZ/8rRAusZMkgUOgCJogZssoa8/f+++/fMn5k3sCPXIgmZBcZkBRZ1oak0TaElPbJvEKkIPlkF6lLG+GAOIG7epWLhEMMId+uueaatqcYQk72ky8iIroQQ/2m4/StLll3nkUmIbCQa9pObu2wWT1M4eAHKYTA0iYZdLKhkFSIF0SMemQMKRuBg9STKUQ2ZJlzyoZXMs8QsYhP+tZ29oywYjfqQkSyLUQUHclucy/8EHWW6YXwgjm583EAdbFDmUywh2P252Kz/rZ0U4ah7DpluU8WGBtVr2yyvffeu2WWkdU5utIf2A1ZkGewohM6Y3twpUM6Ui8sXEc0qkdmHLKLzVmWyiaQV2xX/3L/K17xikZuaXeIQHUjkxF8M33sYJkMVyVGIVAIFAKFQCFQCKxwBIrAWuEKruYVAqspAkVgLRPFIRAQLAgggfY4kDWJCKKRH4J8pNB0hzJkg8i6ESgjhmSJCJJlkSA2BOyID+SDgFrmjnuzHEuGUpbqIUvsrfT617++ZTbJyurJrhBYyJVsnp19psiJlEJE2BPIDzINcSTwRyIhnmT1KBfxIOiXLSQDx1IuxA0SSfaXZY7IKz+eVV6OEAqWzCEhZDi5f8cdd2ykCyIFwQYDSyLJ6m9kDWJQdhdSA3Ek22eXXXZphIaMNBhZigkzZI/licpCCCKDEB6WaCoDhkgcJBIShoza6zmZQLKuTjjhhJaVg0xxwJC8nkPmaAM8ET+IrtQrE+7lL395y2zKIVvt6KOPbmQdsoac2ofsQYD1BJZMIZk/6rKsjl3ImpKJB3tESwgsGUP2HIM1IswSRnbonM3tZRmxRSSM5YIwcyCJEHQy5OhPm9gbUlI7kUxwQ+y4V/mIHZlQSCQZeWz94IMPbrpBosFau7TxDW94QyOREIzZED4ElqWbiE0683zIWxjJDKM3+EZWOqIXsrIfsiDjZISxBWQaQpLtwdRSSAQunN0vw49u6ck1uLIbOne/foQ0hOsrX/nKZteu62uxHfIWgbVMBuMSoxAoBAqBQqAQKASaL5uX6vWCrQyiECgElgsCRWAtE03ISsmm2tOJhCzwky+7TXdvNpOWEYIQEHBbSoXUsMyuJ7AE7FtuueXfEFiIAxksMotmQ2BZFoYUEoz3BJYMJAQWUkAGVfaFQjIgVAT6loUh2pAtyBHL23oCS7uRCLK7QmAJ/GWH5YAj4k52EHLF38gGf2d/LAQScshzMpDgg8Cw7E/mUr40hyj0HAKDzPZkstwQkYQYlF1z1FFHNX0gfJAR9kRCliEpEBmWKiJL1NUTWNoli0hGncyensCy7A1Z5H5ZXsiPmQgsS+Fkx8niQzIhCJEvnqM/tpAMrNkSWO5/8Ytf3LKO7JllT6lsZk5fb3vb2xpph9xB+CHqkHcOuqRDpBBSVpssF9ReBJb7YQYHywMRgPQCXzp0D2INISgDCpGKrHQdgYVIhfNUBBaiiD61XXuRnzBAMNEbfJF1DnaBxCU/Ipks/tZWuqZ/Mlmy6FkZV5ZwItyUSc+yyJyTyed/mWYIXti4B9km+1AGFpuS1UhHRWAtkwG4xCgECoFCoBAoBAqBmyBQBFYZRCFQCCxHBIrAWo5aWUSZEAGIJNlN9uqxBE8wLgMLOeGNytvf/vaWrST7qd8Q3Z5ICCxEwVwysGTKIA+QAUgMh6A9y9DssYSAU7flaPZWslcTUgOBJQsHueO+uRJY6kL82McIWab9sl0QJ0gGe2khmdQbgsxSRssXkSFIE0f2G5MNpA1IM5lSCBSEBPwQgcmEytf8LCdEtlgWKHsq+2+NM7As07O3FsIHWZKvGcKI/AhF5BuZ/Q0TWWoy0Sy3tLRPZlkO2UUyurRLVlX2U/K/DeBlbclkQqzNlsDKEkKkJFsgByKS7hBz9sWiL223pFOb4czhQXiRVfaX5y3TQzYiBelE1psftiUDComIoEIa5UAAkV85YwILdohJBNV4CaGMLpvqy26TdWdpn725kEkIJljoBwglsmbJoWwt+rYMEFnFfkJgkRmuMtfIyhZgEQIrX7iU4UVn9g7LpuzwQnIqezoCKxvSL2L3r6IKgUKgECgECoFCoBCYFwJFYM0LtnqoECgElhiBIrCWGOBbqniTDgJJ8IzAQA4hqmQRIYyyhFBmEKICQdAvm0JkyUQZLyF83ete15YQIi4mLSG0fEumjqVisoEsBURaIGzsS4SEsdQsS/WQCkghRINMHKQEYsFzsnsstcsSQnLLVkImIRmQJuMMLHjbQwrphOiRdYbAkumlLTKzLOlCPiAsZFbZi0lGlY25ZdEgGxBCCAjyHnvssS07Trtk7cgokrFDbkSI+8mG7LBEERmHlFKfNiFDegLLPlMIQ1lwP/vZz9rSOHrQTsQMvOwtpY3INcSQ5XTwlI1kg3Y49MtI4Yi0sQwVYaN9SBfyIxNlGY0JLGQMe0AuTrWEEFGWpYvZAJ49IUPpzPOWwtnrDDFGXwhCGW1ksQTRIYtJFlIIL9ldsuAQXIg+JJWsJKQl21MnG/b3JAKLLbMVe6uNCSxyIWxhhDijr2wAL3NPNhi5ZUnBJx8xQKDJ7oI7Gx1nYHmGzVkuKYOrJ7C0xXX16jfIYXbsYEswkiWH8GTXkzKw6JM9uNf+WX7XUQgUAoVAIVAIFAKFwC2BQP+F51ui/qqzECgECoFJCBSBtULtAqFx6aWXtiwhBAaSBikgMEfwILAQMoJw5IalVQgPWSeWW9kPy7OyZ5KB5X8EFpJn0ibuSCAEgcwmAbgMInWpE6GF2EFcIGBsoI08QOwgEiw5QxyoC0kkA8ueQSGwfM1PgI84QGAhIZAJlkH2m7hTJ6JAppVsGOQVskCbsoE90muLLbZoS+6SKeaLjYgPX7Wzt5Sle/5GLCGVLJ8kJ1JCto0ldIg8+2bJJDLJI7xk/3jGUk1fYbScDIGFsAsBpe0IFXjIYrJBO9IKCeIreO6nF4SUH/e7rl76sNeSPcWS4aPN6lefdiNMyE7fCEzEknLpRxssSYSd+pFdlu7JDiKLDCokkgwqhJdlf2xChhpyUoYaLGVNhYhja+610ToyTP0yz2TvIXJkQrEv+2aR2/2WziFokIh04HmYIndkj9Ehm9F2RB990HWWELIPtoIQG+/LQI/sEDGYDehhkY3TkWuyEBGWrusn7AxpmC89IqNCYLmf7SB4EVTaFgJLuYhAxBfCDAEFRxjRIdm0Fy7aCU86gLv2W0YZO6YDbbXPF2LPMtw6CoFCoBAoBAqBQqAQKAQKgUKgECgE/j8CRWCtUEsQoCOtEAUCY8GzDBpkhYwX5JEbYh4AACAASURBVIXNrREwAmwEjWwhBInNre09JINLNg2iAnHgOcQAMkU5fYaIAF/GjXuct0wLwaJOwbtsLYQVeSw/s/TKsjhLu5Rn2RwCR9Avmyn1IDAsgSSbbBzEGoID6WYzbhk4yukP7dF2xAQSjPzZMwzBYJkekszyM9lEyB9EG9IGCaQt8PIsgg3JIJsKMYOEIQcSQtucR2ogp5y3rA8ZglTTJjjA2XnYyN6BuXP2qEIKwcTfSA/7KiFWYGjjc3suIdQQLTBEICF5+uy3tF27yQ8retNmJJCN0m2Wr266RW7RAVJIeZauaRu8ZKR5BuGFmEMQyV6THZa9npAycPHFRm2BHwLHdW1GeNEhOWSoaatldXRKx+pgT9qETEOaIedkLsERKeScrD1kpyV7bFg76Etb6ITdZB+rXv/q0D42DCd/axtbY7dIKrJpIznZh7IRo+RAQiLx6Ew/gps2et4zdOJvOiYropYdIG5h7nqwYBPsX1u0WYYeEpTt6B++GokMRDLqHzLbPOP/LANdoUNUNasQKAQKgUKgECgECoFCoBAoBAqBOSFQBNac4Fr9bkaM+BHIjwmn8UbwgnUBuQDavYicfP0wy7SQJJ7rs396AsV9fpSTfaT6DBnlkUc56ggRoy4/KbevJxu+q8czystG3/2eXWMSS3nu79vpnPrVM16ilWvqJlfK9n9je291q0a8edb1tMt17XX0OCuPnJHZ/2lXX3d0pL7UiVCSkYbUsNzQ/al3JitMedpNHr9TtzL8kCtZY5N0m/vJk3bGPtJO5SS93DnYIAIRL8gvyzUty0OIObQJEYYcRHYi72THydBywBCBKvsKOYRcmqT7nFP/pI8ZxDaCu/uTjRZ81YHMRH4iqmJ37kPcakNsM/rPFzr9n7rhpKzoLlgh3JB52hBCL3L0tkdXng9Z1dtRffFnJkuv64VAIVAIFAKFQCFQCBQChUAhsCYhUATWmqTtautqgwBSA4FlbypL22TvLMcDKYOsQVxZ8iZDSpaapaIIIPt3IWJkeyGKnJOtZDmjpXK+KtlvXn5z7reQT0OPcZ3q/FzxR26F0J3rs3V/IVAIFAKFQCFQCBQChUAhUAgUAoXATREoAqssohBYhgggsCwhRGD5OuJyXk4mk8nSOJlLCCxklSwo+zxleaiN82WTuS4TS6aRzDJLGCvTaBkaYIlUCBQChUAhUAgUAms8Aov1Um+NB7IAKAQKgUVDoAisRYOyCioEFg8BBJC9nCwxs2/VpD2vFq+2hZWEuLKPk/23fPnRpvT26fLlREv87GFmnyh7Udm/yvJA1+1zNdUS0IVJVE8XAoVAIVAIFAKFQCFQCCwUgSKwFopgPV8IFAKLjUARWIuNaJVXCCwSApagOSbt87RIVSxaMdnbzMbsssV8MbI/XJeBJaPMHlgysSrzatHgr4IKgUKgECgECoFCoBBYdASKwFp0SKvAQqAQWCACRWAtEMB6vBAoBAqBQqAQKAQKgUKgECgECoGVhkARWCtNo9WeQmD1R6AIrNVfh/NuwVJsMj3dRNd/sY7Qs83AGT83m2c9k6ygfI3Ocrx8GXHeoN3MD/Ztt2+U5Xi+YifLaT7L75SXry3K7EoZs9XFfJrvq335smOyyWayhZmuz0eOm+uZ5Sr7JD3cXJis5Hr6sSZf+ZzNGOWe/ln/56ufS9kfV7ou0j7LsMfjzlzanvkjesmzC9XNUo4PfdmRvx/n59L+xbg38vRfvV0dMorT9vFHRabS3XQfBGGDbKb/cvNMNqQ8mPnpvwQ803OLobNbsozYbD+OLpU8s/Er3ZMvR4/tdja6mFTHbOeG+bY7Ph75FqOvZY6qD9LMVyP1XCFQCCwFAkVgLQWqq0GZlnL94Ac/GO585zsPd7vb3WZNJs3UNJOdTbp9lc5G5P5HIN3xjnccbne7293k8dk4AAnyxvXO9Kx67bf07W9/u20kTobLL7+8fQlvo402av+vDkccY8vvvvKVr7Sf+9znPsMOO+zQ9pqaCYdxG5Vnk/WvfvWrwzrrrDNsuummS/6lPHtffe973xu23nrrhj+Zx8Qce/GlRQ47ovFOd7rTTZyvubbz5tAtIvA3v/lNWxZpj7J/+Id/aMsjBRx9++wRpi/kK403h2zjOuD63e9+t+1TttVWWzV861g8BHyJ87LLLhvWX3/9YcMNN2z6n43Nug8xrV8bkx7+8Ie3r3PWMRkBeBkL9SnzyaSlygkQ2Tqbt9/eXe961zlDSi90qs5HPOIRrY/PVq+TKjOuKdPy6ZAZytMWujd+zMZmpmvIeFxlV+YJc+AtcSSY5mv4+iw5lsK+jcFZnn6b29xm3k1VBt30ZRjn9W/n2Vt0ZEz9y1/+0sb7nmTqKzfu80E8Ez8k9jmdkGzlRz/6UZtfNtlkkzY3LsT25g3I/5HsbFS/M2/M58XZbOv3gs5+mvyE+93vfotCwExV92wILO22f6fxI+N6yptNX70lCCy2auzzdWfz0UKPIrAWimA9XwgUAkuBQBFYS4HqalDmz3/+8+GDH/zg8LCHPWx45CMfeZO3gwsRn7PHYTvjjDMGdXD6/fja3BOe8IRGls3FAXBvnABlcxiVNxMB5RmTuC/5PeUpT2lBwwc+8IFGXm233XYzPr8QDBbz2Tit2nLKKac0h+SJT3xic6jm46grz+bwb37zmxt5tfvuuy85geULheecc87w4he/uG3cHgIrDuAPf/jD1rZtttmmkWu/+MUvhgMPPLA57XO1lcXEfqay/vCHPwxvectbhhtvvLHphU5suH/f+953WHvttVc53xdccEHrE/S2GA7lTHJNFTx/8YtfHM4777zhRS960XDPe95zPsXUM1Mg8Nvf/nZ417veNWyxxRbDox/96FkHm/qjoPmNb3xjC47322+/IhensTLZEF//+teHL33pS8OTn/zkFtz3gWTmCufOP//84ctf/vKw1157DRtssMGcbVfAftJJJ7U55wUveEEjpxdCIvzkJz8Zrr322mGzzTYb1lprrVbWT3/60+HCCy9s5MaDH/zgBc9LfcAcu4KROfCWOMiDjKGL6667rs032r7YxyWXXDL44WP4eMh8Dv7FRRdd1OwJ6YlQdCDefEXXfLT99tuvIpN8fZc+vVAy7k/KdkGAfOxjHxvMFfq2zOnZ2JCXgF4yfec73xl23XXX4S53ucusnptPu2d6BlH3hS98Ybj66qtbG3ofbqZn53r9V7/61fD+97+/zZ++YryUZNlYD5P0gkR83/ve1/xk83ffv2ZDYPXtX8izc8HRXHTqqacO97jHPRqGCz2KwFoogvV8IVAILAUCRWAtBaqrQZkcKw6lt7Prrrvugt/8psmcnW984xstmBOsc8x9mc5btc0337xNqPN9m2iD8CuvvLIRBLKHpjtMurJ+Pv3pTw/PeMYzGtnDEeHMP/axj11woHBzq/j6668f3vOe97TMK070fA+4IIyOO+645qTvvffeS/qWk5wc+M997nPDkUce2XQ3dvxCYG277bYtcw/x+bznPW8VgTVXR3G+2Mz1OW/HX/KSl7TgQuYMx5GeZBsKGPPGXcCNNJT5pL/dEofMDzoQ+B9++OHzCuhvCblXlzrZwlvf+taWZWh8me2hP3pj/oY3vKGNUQcffHDLPqhjMgIhsJCx+tiYwOqfcs8111zTyHDZj3M9EEBvf/vb22PPf/7zW+bQbMiHqeoxd3mxs+eeezaySrD+4Q9/uJFY++6776qvts5VzqnuN8ezq4c85CFtDrylDmOPFxjm4+c85znzyoabSfaLL764EVg77rjjggisj3zkI42U2n///RvJT98yiI2ZbOhVr3pVywwK2YXYYoeI636JYOSlg9NPP73NDYceeujfZKFP1S6ZW4hN8wnSbz4ZhDNhNtvrfDovAhFYcFlKAsvLKy+zEFjPfe5z24vHpTroEM7Jjqa/sa9xww03NF/W3P3Upz61idKT5DPJhrz993//90aGyojKsZQ+DVs74YQTGqlqXFnoUQTWQhGs5wuBQmApECgCaylQXUZlmnxkteTrcFLATdQCAecETRxzzrpDZpNgTJaTQKrPdOKIcrqV6S3qpAwgzg5H/bTTTmvOpKwaTpy3apyBo446qk2sDpO7ushjKWPvAPbXyJElUIJwb7CRA54hn2uWC5Ir5fhbfQispz/96a1swYgAEwmU+jlI3pxyZrTPfd76+T8/SBX1jJe1uQ5bb+oji3Owm+SgJFiFhzexiLxkI3lD62/nyaNN7pOVkaBNJhM8yZ/lJu4hA+eaHrNnhjLUxznzBlk5caAQRm9605saofi0pz2t1SO7YLyERVs8q8zYTXBL+8gNm8g9yfQ//vGPNwf4pS99aSOwHN4wB2u405//1Rl7CDbqj816TlvyZlYbPQ/zfonO+M1tnFX35ZpzsI0NZTnIbJ1mjil7ftSjHtXezpJTMHrWWWe19h1wwAHtLSj7UA/9pD+51z29PMHOeTqhD23t9w3LstyxrrTdc+4l/zhDEUZ0IJBEuslIgZ02Z48ceJNTHTDKlyLd1+8Doj2e6ZdvqT/jhzId031pUnnKpVflpb5gAB/6yf51kSHt8nwCjtjHVH1Oe4KL8mNjqYu8yp8kL9kc/dKhlAHvXBM0GF/YgmAHHr3uUpe6lZnMVOfp+uijj276Rrb4rW3jcST92TPG3tiF9md/Em31t+szBUnRP+z7JW1sxbne7tQR/foNM21k06knX031/yQ5+r2APO8+bZzuSP9WdvQDP0uNjHm9DfYZutqDrL3qqqtWkeHqmylzlyyxPe2TYak+fSYkmHpiu5Nkn2pvSUS2lyiyWCxHMp6TTyaZJYrj5ZCRxW/tIVd00vf1sQzkzlLsY489dth4443bHNj3Lddnwn5axfxfIK+u6fYryj5kslD5DjvvvHPDEUaTMpZmwjZ9b/zsdEsI+7r8nTly3D46ZTPGyBCK7FRWlkw8+kFkmjcdZ599dsuS8hLogQ98YGvPmNxgpzLdzaOeNc/O5tB/LP+UuYv04wNNZXNzIVRmU/ckXG6uJYRedsoeQmDtscceC7bR6drLDpBystz0wUm6kfl+8sknN79xp512mjN8fIR3vvOdjbBGdI6zz+dc4Cwe4K/KsEfAyj5d6FEE1kIRrOcLgUJgKRAoAmspUF1GZcr88CbabyQE8oOzhbyynIgjbVkd51q6tHsQUJwxS2EsMxM4cKguvfTS5lRxApFIJvX+rVIcbs9762jCVoaAiBPHiX35y1/e3pDKOpCp9bWvfa2hZRmjZYZIHRMwx96eVQIkjoM64/DLYtEGzrBgjxPiDayJdsstt2wOu3J6AovjIBh5zGMe0zCwnMMbYe3gHCJi1CdrTHBv7xTkGjk5OJx0b1nhwfHXJufhgUDylpuDywmCZ5YfxBSU400uh4hTg/BSN0JHEMBxhrMsJL85vpa/WHLnb23nzN7//vdvpBM5kCWca0vYZNF5M0o2mVUIJc6gt9JwoFeZIZwaej7++ONb5pDlD8qBKR0oh+7JSwfeRguWtF0bBbbawSF3kIm8cIfbpABxTGB5xvIL5cEBfnQIb3UjfehQEC4biy60i82qF3nKVmQ6wZIdpRxEgnYJCLPnmudkACoLLjBHotKhegUpHHQ40yFs2cGkN+p911Y3e2ZTHGA4sFN2JFBlZ0960pMa3mSgu9i3PsLOyeM8vbBROmPLv/71r9s5mV3aRlZ7cdClv9mYTAB2BhN6Vh4ZkLva2MvfE1iHHXZYwxiRCVtZLDBjR8qnDzjop8YHh76iDWSkO+V5jn2q03XnyeO3vghHNjEmUlzT/9RHx+TwHJ3DHdFBLw5tcQ2JoO8IbGBI7pC+glf2AKf+MGaxX/fql8k0NWb5m67IzZ4FMzDTZm1nD+zUdbanLfQBUzjTHx05jEX6nkBHe8lBjzD2XOyQfZFHmc6RWXvVdcwxxzR5BMfaox/oH+rUp7RfxiwM4EcvgiL9UdYCAlifRRIoB2769nRLcOgwY6z708fYnwxX59JeWBgj1ltvvTaXZAygf3ZgnCaDa8YzutUGtg1T5Rhn9E/6JbPDtanGDTjIQFGmZ2CpPnao75EHjq6xW7hqP0z1G+OXcdWYCmO2ZsxlQ5MOuGVZmDGBTs8999yGYZYQaoOsLrZFN9qn7bBnD3Rjvyfji5++D5pjLWOXWcKGLMt6/OMf30hP2Hte31MuG4Qj20X4kEWfgQlbMJbpV/oMnbAR8ke+yH/mmWe28s2VZKMX8quH3foZ70mlbXDQZ7LcD8b6qXOygfQ9YyqZjGF0Qw4y0XH2wPQ3O6JH86W/la88desjCerZROwKBpENtsrTR2GUrPEeW9e1ibywI5d5y5ziGl2oS/9jT2xO+drTj0/62Hvf+96GlznN2IrQghuZ2boMaH0HMUE2S+ONSfSujQ52qg1kMP+RQd/2v/HMdWOuI3sW6T9sjWzGKGM6XVm+ph2usd/sfaksbVEv2diIPs9e6J+NwIgu3cvPMcaNfZP0hfQjfchzd7/73ZtO/Q13Oochu9QH2SG5UrY2KZudwc2YkZd7cCaTcYW9eF6fDRFNrvgsCCxt1E/0C7i4l+3D2diXLFU2wW7g4G+YGhOS8US3+oQ52N+eJb972IvxQdl8IzKM5/0QWOZbtuuZ7IeVF7hwyR5v5kIYkV/b+Mwy5+kly1t7n5nM5go40Tus9Q8yw4NOXc8LTeOeOmCd/UQzbsEge+x50cs/KAJrGQVjJUohUAgsKgJFYC0qnAsrLG/Spitlprfq/bOcCOnYJr0ErJwbaeAmOkteOPcmb28TkUzID2SHSZ3D5O2iSR+ZgkRJoG3CFqAjl3rSIhlYMq44epxncnDiTLycEk4I4ucTn/hEc5A4JhwkywuRKJxuzptrnFHkCWeBDBwCTopzCDQOqWUZJnpOCacNcSZTiYzJwOoJLHIh7z71qU+1t6KCKA6qrCSEm2waMti3Axbk4BBzSF74whc2x4CjrY3axCkjv2ADJtoxDgo4//DVHjogG3z32WefFvBK+XYe3vDh+HN8OKz+J4s6yfq4xz2uOVGuu885jpWADQ6ygjhwH/rQh1aRWxwibfFmmcOsPs6ZQA8R5G/Om7ee5LB8gX44/nn7ai8OQbN2COw4fJ7lYEa3k5Z20r1g7YgjjmgOGnKHnLvttltzKtkeQoCdcYbpkLNHh9oshT9BO6dOkOA6HARGr3/96xtGgkl2TZcIJXudKU/d7IZTqS+wJbhzqk888cQWJHjWdTrUVyxhnGnZUQgsNpN91vQ/zrk39mQ+5JBDmu60D7aCZxlaiAMkCuebQytA1ncsKRKIw10wxsb9RirAka0k45Auya19sqvYgbYJaul1nD3pHnqTTQIny2XYoyUqntO/9Xs61DbPR2ZyCeT0PXYiKHL9oIMOanhl/OBYswn9haxwHtsEhxsm+q2y2CWds2nZBnT5jne8oxEgxgt1sjHyJehGBOjDMFSG5R39vl6CMRjro/BVBpkEB4JTpKNgFaaOZDexccQSnOiJnQoU2L2AVrBibLjiiitavXDUD4xbCCz6pDv1wxCBabxRPvy8TCCLgJbsz372s9u4hcBCxGoDPNmwui0pdN1m4vodjLTBWERviAO2TVZ9ybPGW/VbqjaJQMwcIWgSLMJWVhA9sdPXvOY1rU2WS+kjxmI4Ic5hSW/JBhHsaoNxXr9829ve1uxC24xJ8JFVxi7YsDGF/RpTE7DTsev9wUbUa6wIKYEA0B+UY+w2ztJVxmLzSMbjZz7zmS2oNUaqiy3Rh3rgNl4GFVJVOwWM2m2c9Iz5kV3QreXQynUIhI1hdG/8RHywfe02h5ij+j4IW/cgQQT3MNYGdcEENuZFy9XYVrJ39HGEfDIoQyyZczKWwZtc8IIrXWYDan3UeGkO4A9oHzzYi/ph2hOdSAn3wcrSQ/epi26NyYJ586r2hPRkd+Yu4xs710fowv/sA4Gg/6oHJmyUrbM7+iW78cjvZIIaC2QzGuP7fqr/wrAnsLwcM2fJNNP/ZEPSifmCXSBP2IpxBq4OczVc+kw0bZe9gqxg77CiMwSEvk/nMmvJDw9zhnFYXfon7JNty7egB7Lr28mw0++M1WzUWGdMMB7G/9MGpJV+bVzVBvKrn38GT88hRJWdjE7jAlvkk2X5azJcyZ2Xkuw55EufPYmQ5DOwG/fTHZ2yLeOLMcjLD/MbufR9ulSv/qofm3f0G/2TPvgh5Ce7vgEr42l8PDJpmzaTy7jI9uBq/NKX3Es29qRdMGAD7MY4Kduf3egX2gsbdmq8dl6b2L4261f6NLtWtmts2xjBFmDXryzgp7ElfgT5+Vuusw190qHP0mEyrY25xgXPGH+8ZCSbuYvvzZb6MZjdm3df+cpXNr+RrOYS98PF3Os6+8iLNnXHzySjeY5tJzM7cw+dLPSoDKyFIljPFwKFwFIgUATWUqA6jzI5DAk8ploK47wAYjabd3OiTJwcD0EU519gzMnyVsaEKiMJgYUI8CaK08E541i7V5DoDTFH4HWve11zDASknAQTP2fDsrB+s22ODMdWAB+HwX1kN6lzDAW/nEKBKydO2wWsITWQK5ycBNZZzpKN55WBnIAXh12QxNFCOJj4tY3zyxnlaHE2xgQWJ1t7EQwhsCy3ENgKhkOwCVwEiYIzTgInyz0cRw5kAnhBFGcFmbHLLrv8TfYOB46jJKiHC3xlqQketEWbBaocPE5MNuLkwCOx1M/JJRvnjsP+2c9+tjk4dKt8GHIuX/aylzVHmryuIzToBBacNESRDKyQmfSACKRTmAssBLZw1H5Oo2vk4hAJtMjCGYMNvajLvbJGxkcILEEdZ4sjylHkNMq0gZsgny1yZt0v2wjhRW8CBc6jujnDbJpNsSeBH8eP7bBdtggXzrUAAnEo4Ob0CljUz/bokbONwOLIIpAEYYLjtG0cVI/b1RNY9JJASB+gW4GXYFQgjvDgkHMG3/3udzcHW4DLMYcne+XMw5EN5UMDsGILyGZ6Erxos/4lkKR75SE2XBMkCSrGy+H0EUSXfm48oG9jBEdeu/PW1/P6nrYZKzjKgiJBgmeNHWySLZMbhtpCJ36QFYJL5Xs+AXKPHQy8IWZT2m18oRfkgPL0L/bnPgRaCCx2oe/70e9hqr8gl4yLPVmgHwiEtJGd6HMIAPWyI7hpEyxdpzN2CGP/60tsT3v1S2X7QWzpR2xdO41dCbiNH/5mh/q5oIYdGpsEHsoXQCE72aXARKBqjLUnHZtHWMEAwfHRj360EakCNTbMTrWXrrRfHdrChpStT+lHdAc/Y4uyp8rCYhPaY6yjB/YOY+SENiP09XlyIPuQDfBDRmgjm4MhjLWRTXhGP1Ov4NEckoCTvjJGGgvYNTsmJ8K511+WnSvDGK1fa4cAjbzk1HbBojI8a5xnK+Yn44QAWj/UL+CcPajod7yPoGCTPSOzlWs80W+1z/xoHGWv5i7ju/GIDNpOJzA3pmqrsj0/XhLoBYN74G78Ua4sFzbDDgWyxp5XvOIVbQw2psNPIGus0L/YHptkv2yEjZPXOEx+/U6fgwu8zYfu10f1R8+Yc80h5j/jrT7bfyHYeG+MDAkKe1iwC3VpKyzgqA+wZXWr0/xhnGCvxjE2aTwx3yKw6IguYGGchiXM9H3n6ApxAgt9ll2yAeM0Aopd5cVWP6awYz/ajiCQHWVMMUfRg//1RXZrvtcW/oFxv39RgXzRd4zFxh76hiG5/c0+Xv3qVzdb1y/MreY8dm0MMS7on/lAjnFc25A/yjNmK4PtuEaP+gx7Ibtn9St2DjNjBIyMkewXqUV/iDG2jTRhm/qpOvQN84x+wI6yLFkbjUfGCj6cMZPdxddka+YYc5j5gW8FoxB5dCdbXpnmXnZs/NEmeqJ//5M1pBKbYx/mQRjSGwIMQUN2Nq39yo2u9GM2rX3aSWYvLo2Z/FL2zW7JaJ5QL1z8bx4zPsFAnzSO6r/IH3YEI8+yZS/52Kvy+WL6ovGPHnpilFz8ZAfb5BPBxbhvzGPbxm3jB5mR3Oxfu9mqPqg9XnryEZCr/ctNfU0fJ0NexMGPz8NW1GmsNy4YI829+ok2sm19hR3CwL0w0A+QfmyRLSz0KAJroQjW84VAIbAUCBSBtRSozqNMzpWJkVM/icDKfjAmMW9kZzo4piZvAbmJlKOM1DC5CkQ44BwWTobJm7NkEpQOz/k3iYbQ4WByXPKWirPN+eTs2bvF/TlCYHEYOTae4Rxx2gU23tRzaDgF/ueYOQTunAKyCcg5UP7mvAcPb0M5dJyeLBExuQuykR+cH5uqkj2bk3NwJhFYJnl4JwNLdoYgktMNY84gR4dT4A0kJwhenF/BF2wdMrK0P46vIItT1++nkDersOH4ko8TKBjhkCAROOiCCM5lCCw4IA+0lYND5gRP6hdICHgF3YKNBDDazqnSBgGH6wIX2CkPXhxQxBgHh7PO7pzjeHFuOZxwph9yC0jYKMcPEcKRRN4hw5AFsqQEbgKp8SHwYg9wdJ3DzfFTbrKvsl8UrDjpggiyJWOJXGzVIfMGGREHktwCJbbFBmTewErgCwO2CmNOZDY4FQx5JkQdnMjENjnX9m/T9kn7tKR9UxFYrtOFdiDhyOANPCda8A8/gR7skH/ZY0Nb4aStgkOBTDJR6Bv5yOnnLGu/+t2nLvanv0z1lUP9j7OubWxTMAAT9/dv4UNkKdtYoT6BloAMNsaHjCUCM2XpX/qd8cMXDgXHcJbJQGee7w9tUnYIYIGP+4032kyvCaY46a4buzjlAipjgvGC3fkwwKQ9ywQSAkN1G/8csuuMO/Qu2BCkk4+uySQQENQKJNkzEoWNC3TYgTEJfoIO7eyX4ngOCW2sNH4IgvRB46rxIB+U0F8FGcgoWVfJUmPD2qE+dpjxSH8XjJKVLvRfmKffICfoSj30qe/6H/Zwcm6qPd30NTixI9RHxAAAIABJREFUOSQS2bUPFsZadcNJgGVcM08Yk/Sj7E8juGTPAkZzDlvWBuMkYiNfw2LvgjnEu2DTOCATxvyBcGDHvZzmDGM7DGUMmvPowBzhxQybzzirDOULaPvgEybmP2MLmzQGwlwgmQ2ZY5f0h7SEbYhw50Ke63vakg3RjTPsF5GDBNG/YJMXCpPmcIGn+pWLdKfLkN7mVPYHT2MsG4FPCCxjtvlKsG9cY5NsSp9RJwzVr18L/M295hrXzTHGcgEy8oheYU1+/VZ79ekcWdJunIWxso3/dIJIoENtQHzpr9oOBy9xjHfGX+ShZxE8yjP2GAM9QxchXfVNdspuzA/6PtnYCizYr3qRAORU3iRsBfjGfEE7ec117AU27NnYYd5lm1kaSh/jr36yYfZsrDAOwFhb6NjfCBI+g7+NYeYoY5c5jqzmDP2Krtgb/0E74EV+RLt51FjBBzN2+gKpsZ8vETINpvA3h8CMfoy/bISP4lnjLyKUHcHEGJk53NxuDEDKwJQ9eFkER+OItvWZZ+YlMsFLeeYYOkceskft1peMt3wX4xGfK2On+Yh8dE63bICdGrvYsb4jS834p03mPWOGdsGD/2NcRvCwY+f5WeSlR8QXeRF28NJ+9xu76JvNG4/pVJ/RX81t2qBMduF5cxRbI6c+pU3GGHOzMse2RWZzATxho58aV/QBtmNc6vf2g5u+YHynT33QhxQ8z8cwbrCP1GMuMbeyp9e+9rWNqGenxiIEFrnN/foWu+Mz0Inrxmz/w9Z4oE2eN+6a5/QVul/oUQTWQhGs5wuBQmApECgCaylQnUeZnA+OuSCpfzOWokycfgRcnJKZlhImfVmgwzFEsphoHSZCbyXHBBZSQoBqojeJchQ4S5xpzq/J14SZPUzIwbHoA7ksIez3wBJociQ4dLKDOKQmdU5blriYwAVuAlZkUZYMcL5N1NlXxnkOlskZMcC54JB6Y83RITcZEEEmXm/cODeO7IGFaJmJwOKAkVewJQOCIyMg1n5OG6eC/JwYzqHAn1PHuRt/apocHFiEmDd6gsYsdRNMcGInEVje6mo/AotDHQKLEyytnQ1wkrKBubekMiU4Y+7lzGUvKXJl2afgkaOLxOGAC/oE6yEdnc9XJAUbAgAZYHCmH0EPW5Edwgbo07MIyUkZWJx5AZt7Bf6CKbIn4OXE0Vf2BNFWDhrygXMqOCETJ5As2tYTWBx1zqG2OgQ/7hF0eJZDKeiGExsWSGUJIgcZcdgTWCGL2Nl8CCx9D8EisOHEc3bpgl6SycBBz14lHM4EP4Ii8iF+BScIm7SBI+459i0AQFrJgOTQCmY4rzCjgz6jAibsTdmCFH9bJhbSl30qkyMvqGWrxiMZBxxgxAAMySkAYffqRzAYW9hwCCz26Lq2629IxUkEFkz0KcRDlsyGwELKeFYgm2wm8iAtsoQwBJbgatJm1GMCi72xYeXq08ZDfQCm+aqY/o6wIZOAgd3q24gbgT8ZBFfsGOHS20YIEDYDL5jqI4JQ5dGpMZDta6/+5hp8YEwv2qtPhcAy/rIL4yts9EUEi34i4FSG4NbYQ15kgKBN0KSdAiBjy3QfJdAHjcXGeOMsnSKy2EIIZ+QDO0SsGxeQFggqh3Hb2IK46AksgR17gZeyYWBMNT4JTMlp3EDo6OMC/V5O+CXghpexBXb00RNYdG/sZCfIg35eFGjSQQgpAbaXFEiYMYElKwRZhQAUqKpHsEx+f8NS281DeYGEZGTDMnLMicgFQaQ5bdIheDZOwk+Z7ATWyMGpCCw2A+uewDKumYeMk9rDRowXdGecTDZo9lYz3ptDzL1syfhgHNRmRKU5v1/WZIzVF7TdOOlafAUEGQJAf6DHfGRE30SuyTiVYSRDJASW8cYYZm4mqxcqdEveZFRlmTjyXr9CapAP4QRbc6uxtJezx3hMYBkP9SNjqP5hfOJbsTPn3W9MzkuQlJUXcEgFfoM5M5lbxhTnk4HKnhA6NnLXftiYI5XhmnqRr/TuQGzDSz8xt+vD5l+EDnmCqTHJHOKc+vMyQ99hDyFqjedkzJxrPqAnY5t78tVly+3YW4htf5MrmfPRj/vZuTEQ6WgedS8b6wks5IwMOdgav9zrJRGdmkfJnbnPeBUCkb0aj/iG5hb9NfsNwiDZeHRNBn4WvJWRr+npJwgbMmije9khO+LHmAv5fHnxCSP9me/AroxJMNJHEHls1ljHVhFY4yN7YNE5/dGdcQUe5kL1GG+N79pMBjiYf81N5gUE+0IILHiZb9mq+V8/4vMYq9hcsm9hYDzM3MuOag+seQRj9UghUAisFggUgbVM1MRhz5e5phLJ5J2lLDMRWMnAMkELIAWVHAkOAyeFA5A9LZKBlbfdkwgswRQHy7PJKBJIca4n7YFl0jXhczIcghekBMfJJK88hIPy/K9M5QkO/c9xyNIrQSEnTMCDwBJombwRWCZvZeQrQOoSaAlKTfocK2+xpiKwBAMCEsEImQT15CYvJ1SwyylFqiGNONgcr+zjhNAJgUWWZI5l81v1ciw5PAIvgYjynEPC+J+DFQKLoybIECxz1PL2fExg9XssCfw4kSGwOLycSMEl/PP592yQzg6QcYKnZGBl3yaOIzwEKa7ni5FsTwCNKOS8CphnS2B5O83RFMgKQDix8OE4I5C8odXufCoc0cBWEI3sQVsEYZxAdoKc8paccyYY4cxxQOlmTGAhCRARbAaunPbsW8RhFThxkOGgrOyLxMENITZVf5xqDyy2K1DNEoA49wisZPbpN2ShC3Jpn6AUmecNNttnA5z67P8kgM/XA+lDXxaw6i9slX2x03wVsSeWQ2AJgAQ4ebsL85DOgjC2Sf/kknkQQmZMYAnqlOV5QakAkROPwGJDsyGw2Gf2xOPoC5TYBV2MCSzXZVUI1siOwNLXbKI/FYGlPwuyOPZjAkufYWOIGfLmpYGAQB3BFNEGf7ZnjBFQeUafnURg6a/G2zGBJYiVGYBIoPeQhtmYXNuNI2MCi/7pGdmm/owr9ENXnqdzhINxXB+bC4Fl3NAmdsf+EA/0iYQQZBpn2RUSCNlhXIcXciuHfqN/CayMgdqQDKwxgWXcEHCSczoCK6SrdslgYSvqMCaQTUaNPo/8MXYi8sYElnGCDZOdvLMhsNiW9ofAMm7pL7AxJualC/3RgZcJ9I3cEDh7eREifjxu6B/wM5cZzwXb7D8E6qQMrLkQWGRlpyGwjKuIzzGBZVzLpu/6rz4+/hiLvmWOYWPGHGODfhnily8AJ7ac7F++BiLT+DUmsPQj9oM8VFdPYCEzjcPZJF3fM17p1/QduzNX5yu2Y2x7Aou8xl82Zi5HRJp/2bh+m+wltmi8yobgyqRX/cmcgrxDMulz/ICMQcmiMb568YLg5ZeYG/MRFOV4DvawMN4Yh0L4GU/Ncwg659yDMGLP7MO8i3zhl7ARejI36ateKpJBvWMCy7hpPnOPe5E0xkBY8vnoVB1eYmYpW/aJTBuMa/A3Lxhz+E/mcHMSwk45/leHPpfsXv4W0sncHAILkaOf8BnMGfRv3GX/5pl88ZkdGRf0HWNICCxEpBc9CHCHsoz9+hvfJttcwDakLF3zG+g9X5TUr7XL3MzvhfFcCCztJHsILL5bsmWTcWVsoEvjE5kRWHyEmQgsfZzNTZWBZcwwVobIDIGVj6jkZTHflZ7ZKZKuCKxlEtyVGIVAIbAkCBSBtSSw3vKFcipMjN4ymmgRByG9kqlkIjfpebttou8JLI5Tv4RQxsZ403bljTNUOD3qlMXSE1jeUnJSObicFo4UBzF7/SSAzG+OSjYi5YhwuJTNoRGgc8I5yiZvDjjHiePbt5FTILBGmJCTU8rp6TOwvNUNgSWInIrAEkCRH6mjfsGCI0sIve3OZp/wDhnjHs6WQI4Ti6jhwHNsZF0I9AQC/nbedU6Q+jghZBe4cXYFZO6VBcBp8nZWXRwngWicYkEUooQ+vV2Pgx5sBU4hENXH8eP0OCfDDx7kpRsBuSPPCjKyv5NAVWA3UwaWYJPDp2wZPpxLZI5giGPL4ROcZPlbNm/WDpiwTYFZMrCQUiGwvM0fZ2CpwzPKhEOWOAl+evvgZHOmxxlYHH/OdDLF+pT/vmf3XyHk3HIeObiIRPUjNwV6CDR9ghMuINI+gQ9CMNiy3fQldp4MSMEt51twIXsgn3Dvn4tjjxSlN3ZP7/0eXtkDi1zs3xtvZWe/NkGD/iRAEYTJHlAW/Nmg+jn/+iF7E8RoJ1sVDCDpQmDNJgOLHOpDPKgjSwgFfd40C0DzkQM61of0B2OQoBCBPBsCS1vHSwjpNvtKCe7YZZaeRQ/sxBgku4iNCriQ7+xYwAeHfi/CZGCFwKIT/Y+tsnWZQAJO40VIqIyfxjeZSJMILP0diSBoU3ZeCCifvZDRMhj2ZUkNnbPLZGDRjXEnLx3GLz6yZFcfoTdji/ENcWQMZ3vI7UMPPbQRCc7BH4bBjBz+RtK5blyYLgPLWD0bAit2zdaMOcYt9sJWzAMILGOIDDLkioC6n4+SqakfsnVtMqchePTXcV9GpiM3lCW4N67pA8ZPAaw5yxjk2XHbkWOCaX0UZpNeMBmXtMOYK8Blw8gG9u53CCykLHzYfEhPLzrMZUiiLCUyR5izkDL0Tla469PGIhlMrhvHjUP2sfRbfw7pG92N5dX/2RzyFsbZK859XqyYB8w9CIcxgZUMLOOdedrYMyaw9H1zqL5pDsk+QfDLCy22aQyAmzHZeD5dBpa+hmwxjyANQr7wI5Aaxkf9yXhjTkJgmf97AotN5AMq+cInAolOszk5HdAfnbBldqZvk73PQIatvk2v/ANjvrmGXSXjjC7zUsXcoJ3Z+4t8xh3jR09g8VGMiQhT9dOpQ7leTMnS0YeN6V5w8MPoW1l0ipSGQ/bGM4bQGfthO/oKfTvIwjaN/+aMEFjGe3Kom36N54hzPh08tMVYpz+xJTaTF1V0DY9sb6AeOoeN8da95iBtYyPqZ2uO7JfKZ9Hfs/wZwaiN5ihjA7ncg2jT3/mI6uAzJQNLn6ZLYzNbnSoDi7zu7TOwjJf8E33M38YMtq4v6LOwgFUysPiN2tsvcdYetjkmsPjefMm8ZDJmGAPJaO5wnc+DwNLfXTcveIFhrNdnXUeoLsYSQnJONX/c8pFOSVAIFAJrKgJFYK1QzXNK4iSaCDndHBYOQr6al68QZhP3EFgmQZOkoMrEyJEQEJkYTaKWK3DmTNacpX5STgo+5zz7CKlTYJM9lLy5NOlyYjh9AjROo2fz9SqyKpcDwwkUuHCqlMMBE8whC5TDWRKkkEuwxXFR5vgrhN7Ua48g2BtbjqXnkEgyrjgNnAzOEOJDUMJpUZZggbMUhzBLJkLiCI5chwenuCew4Map4cxwejjMnEHkiQCT060dnC/BDUeOw+gNLCIiX/jKPjeID29sBdYwdl3QipCkEwEQByqbz4b0gCOHFEbIKk4JWQWunFuOHwdWMAR3gXr2maFvwQvHWVu8Dc4eWBxnwV3IhXGXyibuCAA6QXyoR2AFYw4iG9QOMmoXLLSDg8ch7gmsZGBxzshDr/SWDCwBD+y0zVthjrxgJoGnOvKVMToXjGQJYT6jTh7EBucWXoL28VcJYc5JzT5y2q1uy3bZlDLpUnsRDP5n4+wkREeWUmbJH9nYfZxQNk1uuhVUZ8kLR15ZzulHybaCHbJT8NDvhyXIEMTlK4T6DDkFIfSQDEHLIji+sm9gk2WyrusD+bKWYERA7QiBpe2WiIbA4kTTKZKoP9idAAipbQmyvqL/G2846Pqk4AwRZ68WY4L+wtGHoWCATullqgwsY07ISWUYT/R5tmgME+AIlGDtf7rVd4x9fgRdyZIiqywkREkyqfLFLUGqspOxko8yhMDKPjnZWF0gpZ9kPydBl3FNwI0M1KfYdPbAQjawa/3R+CmIN37Qv3o9LwhDEAhKjfXjDCz2YXyil/Fn4smJmNI2eOrvbDPjP/sSqBuj2Cbb1afImeWsxluys3HjvmshsGDMnmBsTM0SwhBY2o1YHi8hZNtsNvvLwDEbVLO9LNdTdvpGvqCqT9EhfRvXZWAhWrIHFnsdE1j0rcxkxcDYmGgMlanhGWNclognoxl++p6yvUDInlGTCCwEL3zMAfSU/XrMZ8o3vguG9QnZE/RqnpF5YQzX3/SZLCHMHlhshM6M3/logPHN8/qA9huj9B+6y96CsDWHCtzHgXW+4qkfCtLVYV7MsnyyGmOQT4Jr8zJ7NE/LepspAyt7YBln4RvZYNNjy66MK65Pt4QQeZVN3GVgGR/YJ1LXPKbfWz4GO/O5sY+/YzzT3/rDnANLpJRx2dc4lZXl6/oK+84YYE5jG8Z8ekyWFTyy/FFdSGB69XIihJ1+EXKAnMZvetWH6ApOPYFl7jWm8kP0LXZtLtUHjZfazWfRpxCW2qosNmqMyP6L7GmcQWqfU/NkvnKovcmuh182P6dv+jCuI5GMReYHstKffpMPArGP7HEFSxiwHbYJP7YfolqfdS9s4G08Uw/74wcZo41tXvYZv9Wv75szZKIZq8wTfCn/swNEYb4UyffJyzFkonGNnRoj4peN+8FUSwjzUsx4Zlwjn7E1++bRvbnJ/7bfMGfRo/G6Hxtgxxb1a9ssaKPsRO0yT8Q3NIYbB7xgMDbzecwLMnq1FykbItw4Y+7VtxZjCWEIrJlWfazQUKqaVQgUAssUgSKwlqliFkOspHYLvjgiJud83YWTxjn3ZkkAa5kGJxwhY5IVwCKtBGTeqpnIOSmCHdc5A4Ix1/slhHmbx3EQmAk+yWHyU48J1/0CBW9BTcwcvuzvxbHy1gyx4T7Peo4DLsjgwJngOXDePHOmLC0S1HiTySEnL9k4ijImEqzki1ccH06AgMNbbg4sx0Gd7vVWmJPlHnUIsLWfc+gtGweRU8XZFNCoV8DAcRNQ5Qtd0SEnJZ+o1ibYkROJoD4BNgeXPM5z9OCBNHKNs8apFZBxkDlkAmL4caA4L3DXFn/bhyTECQIGvq7nC2gh/jjI2sbJVpe2kccbd8sZBE+cXPr2O5+mFuhpK7KNQ47A4kzDddKyOwROiBP10a+2awu8ZCjRaTKY6JwOkCvskOONQPKjHf5XnmAx+4Fx7uIMIxkENBx3citfUCVQgz9Hl4NLZ1lCyLnMZvfaTcecbw60wIdO+w3P6Rbpkr1/ONwccOWzeUQpPbF7zrw33GTkbMOD0yxQ01byuJavZtKHYEZgAyO2zuHXDn2YPrO8hpOeL2ppK7zoSbDZ7ymUJYRwEURoKzk4/Jxk4wL7Q1LAic0KiAQ0Ag146wPZhJnOjQfkUReHXkCOAMsm7vqbwFqQ0x90yJbZpkBC38vm+uwD1gny4AlbfVH/F1xZwpdlFfYAm/SVPfLLTGJrnH42rQz4aA/9cPTpRnBHF9pkrBGcwlQfc03fy0bj+fS6c0gY+hW4arMgL4Sy9sqggDfd0pm64M2utMsYLEjxv8wJ40I2lTa+ZGNjGOof+rvn6Mp4Z+w2ngqgYK9uZZEb9nTHjrPkTiaCQKofr8lJ54gOeAm6ssG6jAxtIH/2MTNO6f9sjZ3DLBvA0ye9ICAF0Po4wgZOxjFERJY66kvaoN0I82wsHjtRruCSDeqnnjPWuM/Yo4+yBX3D2Jqv1rEVOOoD+q062RhCypwj+GWviI0xqWos1QdiD8ZTNsJ+BYfqVU+/F6R2ImAyP6prTIikHjoyniCQjFVw12/MUfTEBmXgGNMQD+ZaWWfazF7dJwDXB2EBm9gI/dCV+RGpoQx9CAb0YSz1t/HO3AB/c5e+gZzqlxtHXrYug0s9iHpYO/IlV7ZPDvMIXRpTBdUhKJKNpi8af5ETcNff2VEyR7SNDslOT+YEsvntmvrhliXrk3wj/ktIXH1Av8/yTvMdQooNeYmirxrP9Iu8BOnLTMYY0hjJ4Z68YDAv2kuMn5JNypWfJYz0pg3mUzbI9jPO0q8XEsYgY3s229fv4Bc/wXxv3Nef2KTxOQQsX0e/Z5PaAGu6JB/7VIdyjbH2ZjPGePmjT7AlfVZ5sBkTKcY8ZRo32DWZzOfKh6dxxnxHN3SXLzKTmx27bs5VLkKTDMZSdkz/7AeBqG97Hm7wzdYZxhHyGne0w7gTv4jcyjK3G9+yv5pyEY3k9YzxVb/VRmUjh4wj+ge78zdc2bN+S2ayuK6tbK4fH/Vrvg3MjRtkTgZ4XqpmKbo+7X791N/sJGOceTL+UZ/pxQ7ypULysB//8w/4JHTJ9s3lfDP9NJu854u9bN9cjNiEAXvi85vnsvRyofHEVFnoCy23ni8ECoFCYL4IFIE1X+RWk+c4BBxXkzZHQ4p7UsRNtsgXDoq37+41AQpOBNCuc8ZNqiYwjgMnWXAlEOeQCDjHb2aUZQLmqHEW3cMBU06CTU6LiVhgZpLnoHAgTO4CDc6lgNU5AaIgP0urOB0cNg4P+TksyvFbcCdIUydHiQycyASUzmuv9sCFs6Bc9SDTyIkU4OxpB6zUTUYEl2BKwAUj9XG84cLp4ziQn/PUfypZ3RwfQa8y6EFADGP3C8hdhwcHjTze0Atw4AJDwQSZOGqCcfLL0hFgCQy0W3sEEwIWz8kKIR89cmDV40e5znGqUq466FP76ZNs5OVAut91uOZLfSG8tNO96uH89Zln6SL0Cavs/0MuwRx7iKOsHjJxHvOlOTJHPvfGDuGkzfkyGcw8k71nXIOVQBzRoz725By7o38BiLrIwTn0PJIBkQJHZXMW2Tv9CgLGgSn7FECojz1ou/bQBVzSLwRgbEmZzmuT9tIVvXtOsMPGOOAhRdkAOyGf+5TjOdjTAwc9+8m4FnKDLXPW+37JphAKfgRI+o92sdnspaTd+lHITljBADaeIzdM2R956Eu79YdsdsyGXGcz9MIOx19GZLvIJHrRt/N1KX0RPiEq2bY6jBkCbfbAxrTdeMbuOP1TbbRvPNMespMJHoILQTTiCCbsNtiph40miDDOwVSfJxMZ0u/YE/0pg47Ipb8YOwSpITjVHduK3QvoHNrKDpVrTFOX8ZkdGrvgAVvlhVDU7mRGkEm9+lYCfnplH7BnVwmgveEXfIZ066cvejYukYtNKSPnYKCeLHd1Hl4CazYAe5iRAwFLPiQGHWkve2WL9Kx8YxaM1OF57dav9I0++0Ebojv2YZwnh3kH7oJ1Yy65YKOfkkkZ7mXjGVMFk/oJjMxLCI5+eW2wQFwoww9byNI5Y7T+r2ztUbd2sydya5u2slV9bxIZpA7jBDndk7HKc3SjLrpXhvKTRew54wm9uUbX7tMe/VF72J/r2kuPbE5b2LFyYIZoIq+xGJHDhvx4Tp+dRAInCwtuAviMf2yeLMhBetIv6TwfyjCOmHfpRzvVY8zOPmvZUJytqN8Pecmm7WwfvvqNcv3vXnJOWuYFI+X7IYN7lJPxgrzazPbYBazZtWye9M0xmUlX2pePPITUMD/QF2x7Mthc4P5s3k4GhAL7hIe6Yv/q12fMFdpmnDOe0A8C1ss3fReG6ov/Q3626R5y8Vfi98BLe/URPhw7QW4aW/Q/cwubN96wh0nZNJl/zJNsnQzp+/BUpue1lbz0pi/Tr/Ffv3S//sc+kEvs2xzgunENCem6OthuPmiTrwwrGxEJX3Xp29roXnOKsQCh737tZX/mTPM4Hel76iQH0hZG5KADGLmHLclMgjO9IO48Q5/svN9Tkc5kf+rndMaWjPNkol99AqlML9mX0LxEDi8MnHM9PisSrP/iJ7tjA2zK2JAXbNrK3smIoNJWtku2fHXWmESnfAttZP/0pnztds38uBhHEViLgWKVUQgUAouJQBFYi4nmMi6LI2ASGm94bIKdKgCc1BxlKMtEO91znF+T/ThlelzmVPepw/P9PjN5Nl9T7N+UuZcT7P44Z+N1+9rq6OVWj0NZrnvG31k+1O+r1Z+LDMpSN0dHhhYnRwbYVOnWvewJIvp2ZGlYlhYphwzuzSb+ziWrzbW8wfT2nvPkrV2CDTI7p44EKX07os+p9JTNXJEowS3LehJwKsO5fh+nXs/kDq45H3skk/a4njb1NhpZ1Z36ez1Oskf1JcjvbaHHVlmROxj7HZ1E72Pcx4GOoDHOXTLVxjZOHmX3dueZPAuD2EDsuD/Xl5d+kSW2rpFRWVk6NZXtKdtPMPes55wTXEQm5/Wjvu29DtOO7JMCq3HZwTZ77EzCpLeJ6DFBRtoVnUWe4Jh+OynwTl3p/8FGEGUJXJZcpc/HxpUVbIKp3+oeLy1Jv8rYkeVCsaXI3/fZnBOkOdhL5I/tkyn9QRvV29edZXXpz+6NbmKzPfZIDllQrsmOmzSekmXcp3MuOhrbFDn8kMPYkL6jnMwNff9ybtwvp7OR9Ht1+LvXQWytn4Niu65pK2xTRi9PZB7rs7cZ4yW9Z0zsMYid0k2Wj8aOxroe27wye3xyPToNjsm+1CcdsI2e+/4bWcY2wt7J5/ksVe2xynXP9eP6pPk+c0vscoyTQFsZ+aKd65P0M7bRYDGWXdsRXbAnf7CdhFsvb8aqzEFje/a/e/r+nTliUrszHymvn59js54Zjz3KQxzAF4HhJ3059vn/2LsPKOmKan34R68gRgREzCJixABIEFHBjGIEs0Qx55xzzhkD5qzXnJBgQMwBFfUqUVFEUUz8jSTXt3713f3eQ9PzTs9Mz0xP93PWmjUz3XWqdj17V9Xez9lVB+GiX/CqMUX/9fZpxG5lzg7DzGf9OVW95pOap0pWBJ0MeqQMIsf3SM/1vZG0xjwiix4Q92VDha8+99fcGkeDOlcGMVMZ9pUlL2sNgediOwg6ZRFt8FJPX//K+R55py73Isf78xHdIs/9RjzKhPWAwgPOyurWjrqRsTK2ZKsitktOsqob2TfoH8LD/FMPJY0tspO35n3zbGUv0wGd0mX5anVERj2IGbQ55asPhQ9dabPHQxS8AAAgAElEQVSOb6iHYtr3GRsqG6QvfYOBNuqai0wfZvNzfQaj8nHm8i0WUl/KBoEgEATGgUAIrHGgmDpmCgFOgqdlnh56umhRl5ruyZxtdbWVbblA4Ux6oow0q6epnB/ZJZzVeuvQcrWfeoPApCMgWJHlJRji+AsuahtTZSjOgjMu8JPRIBNGQLeQhxWTruPIFwSCwHAEzH31kh7+wPqI/nFjiGhCJJl3ET8eHNj+LItp8Ky7pbTND9IOf6yyRm3llLmKKJO5iFhCKCLjED+2/8kOsz2vMvOXIsMs3BsCaxa0nD4GgbWHQAistaezSLzKCAiOpbQ7D0X6tgXeUzNbk2wFqyfnyyUmx00avCeNHFVXbUtwcGdtA1yu9lNvEJh0BDyRFjQ5C0Q2oifcxo0n77ZlzJeJMOn9G1W+ymgQwC73vDSqTCkXBILA8iJgO5/z3JBXHqitJHHNN/G2Q1sQZUt52Mc/cfabrcbjenBgjpd1buuc7XIy0WzhtMXQmXJ17qPtfbZcylqy9dG5arLkMx+OZoMhsEbDKaWCQBBYWQRCYK0s3mltShDgPHESpeoLjJ1TIxtrpQJjTxU9fURg+du5B2QYR8r4lKgo3ZhhBIxJWYnOa6otz85VMUZWaozOMPzpehAIAquIADLHOVPIe1vKVpLAkvWJSLJtzgM+D9Sch+YsxHHKgZx3bpofbdZ5jM6/qowr/pFzDm2v871zx5wh19/yuopqWhNNh8BaE2qKkEFg5hAIgTVzKk+Hx4nAsPOdxln/fHUNntk0X/l8HwRmCYE6m6V/ttYs9T99DQJBYDYR6J9RuJII1NlzHqzJgpLpVOe7jVsOffQw0Y853rbF/hma/CNknu9lfskEW8ntlOPu72rUFwJrNVBPm0EgCMyHQAis+RDK90EgCASBIBAEgkAQCAJBIAgEgRlCIATWDCk7XQ0CawiBEFhrSFlrRVQLnidfg29eWyvyr0/OcfTNoaMOF/WksN5UsxzYlA7GdebEcsg4WKdDt72RybaDwTdmrkT71YYnu7Zo2oZGFq9Dr7eBDcrhSbNynuzaruHAcAfZeutT/61vc+lBeVsc5npD0WL7XW9r7N9ffei/yXGu+tm6i3zexFRvsVpL9rRY7HJfEAgCQSAIBIFZRyAE1qxbQPofBCYTgRBYk6mXNSuVxe73v/99OyzTW16uec1rjvXcg9UGxpkO3//+97tNN92022677RZ1ICmCxhvREBa77LLL+V7TPa7+IRy8bcdZEA4wHefZE+OScbAetnPsscd2hx12WHe/+92vnSm2Ghc5YPfpT3+6ETcO5nfwd/916n25Tj/99O7jH/94ewW3w2O9dekHP/hBu8+ZS3XNRfycfPLJ3Wc+85l24O51r3vdJeuK/OxUvYi0upBp3gSFGHQuiFegOw9kri0VRWDB4rvf/W63++67tzc75QoCQSAIBIEgEASmH4EQWNOv4/QwCKxFBEJgrUWtTbDM9Ya8N7/5zS0gv+td79oCclkcAui5SID5uiQjRjDujIPVPMMAOfHqV7+6EQEPf/jDG4Hl7TZ1/sJ8/fC9w02RI7J6bnvb2469PxwOBOIb3vCGdngqOfuZQKPIuBpl2M5RRx3V3mD0lKc8pdtmm20WRRAuVXaHfnvDozfY3fve9+5ucIMbNMIS4TOMhHKQ/yGHHNIOzH3gAx/Y3rr0ta99rZFZCNy6Zy4Cy4G37373u1tbCKWlko1w/OY3v9neQiU7zJgxfsj3gAc8oP3/8pe/vP1+0pOeNOeBtkVg6c+XvvSlNpa9RSpXEAgCQSAIBIEgMP0IhMCafh2nh0FgLSIQAmstam2BMs+1APlcUL2+7zU1GHjXfb6re/tBt+1xXqUs+8SbZ7wh5stf/nLLNvK2vH59w7a59euv75E+hx9+eHsF8uUvf/n1EhtzbZ0bJmsfygrY1yefzJZjjjmmvR4asSHb7Itf/GJ7u80OO+ywXrmqfRlYCBL9uNOd7rSOwBpFPmXmIzgcWqp+eHnbzjOe8YyWzTSMQOljvUCzWnDx+dryfRFYT37yk1eNwEL6IKRkHj372c9uul6f7Keeemorr5xXhSOkisDaeuutRyKwPvShD3X77bff+QivBQP8vzfYovrZz362++QnP9leKY5EI7/DdBGv7Ocb3/hGe2PlzjvvvN6tmu5DYBm/CCxZlbmCQBAIAkEgCASB6UcgBNb06zg9DAJrEYEQWGtRawuQ2Vtgfvvb37Yzl7yB5UpXulILXL2VBflii5nsqDPPPLMRKbKCfO/6zW9+0zI33OM7gbFysqjU5Ttn/zi/R/BuS5xy2vQ58sTbZ2SyIFRuf/vbN5IHiaUO27PIJrPF1iTtIlmQVYLsql+miFclf/CDH+zuda97dV6TfIUrXOF8RI5FFvGAHCKP7VwIIu34TpaUM43Ipo/1Nhpkl8+0hZxyBpMzj8iur+6RfeMzdVV5Mqv3O9/5TvfOd76zbTG7+93v3u4bzDJTrvDWlmwo2TEwQ1rY0uV7W9F873Pya0M2kB+4wJSuYAWTQSKrSBblZInBExZ77bVXd9Ob3nQdUaatenthncWlPXKoAwFGb3SpXJVHgJCp3uzjb+VgRy724TPtutfndKK83+pVh3O/CiNlYO5e/bFV7f3vf3+HwLKdzn0+r7cYwcI9ZIVJvX1IOXWot7DxvbLahSvZ6j7yqVd9ZCeje8nHVt7xjne0LXhPfOITm70qr5x21Fv9dM9CCayyB7Kr5xe/+EX3sY99rNt33327a13rWut0UG2xl8qgI2fh5V6fw6Z/FYFlmyr72nbbbdeRaPpcY0U/3Ku8H//DqsiuanOQwCp9kl9ZmNJ51U2Wwqp05x5t1Rgqnfi+dOG7+t79dFaZjWVP9OUz3/lRXtuVHacf6lbOZ2xhsVmfC5hmUzQIBIEgEASCwNQhEAJr6lSaDgWBqUAgBNZUqHF4JwSN3/72t7sjjzyyBagCYufY3OpWt2pED6LA5wJiAaKAdY899mjbznyGmBHMyypBYiFGPve5z7UsDtlHyJuq2yJ3xzvesWV8nHLKKd3nP//5Rpo4+Pktb3lLIyYQATe72c26+9znPm074Kc+9alWJxlkqsjwQIJ95CMfaaQAGWRvXfva125ZLT/96U9bOdvu7nGPe5wvcFefTChnKOkLYk59Mo/qjKIiywS0zie6yU1u0gLtr3/96y1jTB+QaggubR533HHtXrioS5/hYXteEVrvec972nYthJr+3vnOd77A2U364IyjE044ocmFKDj++OMbmfegBz2oBeLwIjsCRUCODLNdSxYQjAXiZIEJXWinDhan/coe8xtWb3/72xthqE3BvK1tdAFr2UGwZB90hRCwXU82GMLHeU677bZb+0x/v/CFL7S2tSmjDkFgC+QWW2zRiDsExxFHHNGwg72tozvttFMjBOmELunHfaWXG97whk1mcqjf94gQ7SlfmU/uJzeb9f3PfvazRio6f4xeDj300CY/nLSHmNQPNkrPcJaNxN5hywbVt+OOOzayEbb0CSM6ZcPI0g9/+MPtHv27y13u0jCX0YTUUq+2ZQMiU9nVQjKwELTs4Ze//GXTK/1ry1ZP2VLq8z0CGUb6sueeezbs9Af28EI6ko8d9UmaIrBks+2///6NwOqTnfTgDCx2SH59klWI8GHziCm2foc73KGRt30Ci/5PO+20dk4Z+dmQMjA3ZrTDVsjPtpBWzmBDBrML/bPlko3Bga3XIfk3utGNGjnrezrTDnsyZ5k31OH8OW2wG/fDxJzlXledoaYsonTvvfducuUKAkEgCASBIBAEFoZACKyF4ZXSQSAIrAwCIbBWBucVb0Vg+atf/ap729ve1oI85Mq3vvWtFhw/+tGPbsGqrWUICwGgrB9Ejq1w973vfVsQKigXzMuGsdXI+U8vfvGLu3ve854toPe9LCfn9thipM1HPOIRLdtLu4JHATKSQMAqCPXjXgGuIBrJIoB3P/JAoP6yl72sBci+E3wLcAXuSB5BsIAdyaYPLu0iNt70pjc1Igk5JTjXF8GubCekzq1vfet2DpDzfFyPetSjWrnXve517dBtZxAhNQTP6hQ46x8SRRB+wAEHNIIFgSCQR8Ioa6sesgeZgFjRRl3IBH1773vf2+RCwNED0gvOMPI9csS9tmghdMi+zz77NIyQOQJ0xB0SUkabthBK9aa+yr4iH2KQ3h784Ac38sH/zpTSNnmQW/RT+LIJxMDDHvawRoo9//nPb5lusEYWvfKVr2ykwiMf+chGbNFvna+FCHrf+97XdAEjxALMlUUOvuQlL2mZfmwM0QF7WUaIO+XU43uEFzuQNeS+F73oRa1vdIPUYFcIKLpgC0glZNVzn/vcJo/7/Y+wZV/K66vztBApu+66ayPYvve97zUdk8//b33rWxvWldFnnJBHn/SdrfsMYYQQIgO5kLeIMPUghEYlsOiP/dAh20bwqBeB9qxnPavpn758xs5hwbYdaq+8zDD911/jGpbkr7HA7orAMu7YV5GF2tL3shH3yM6DyWte85qmvyKv2Y3vkHTarzOwjEXZlOzX2FYne0YU0ymZbIdEWJsXtOFvmNIpghq25hL3u2o740Mf+tBGMMq0VF6/9JV+n/CEJ7Syb3zjGxuxxZbJi3g2RrVND0h3utIPY8I46R+kv+ITcRoMAkEgCASBILBGEQiBtUYVF7GDwJQjEAJrShUsIEYSIUcQIcgR2RUCdtk4SBYHOQuK73//+zciCwEkwH7c4x7XiA/kCWIHkYPQQAIJEA866KCW8SLIFlgKEAXLAnMZH4JagbZDrAXAgtXXv/71bTuTwFtAjLhAigmwZY/4X7bFQx7ykPa3exwwLUB32WZlW5zvZYf0L7LLKhI4axPxUgG9ABgBI5DVlowPfZJ9hlQRZL/qVa9qgTcywgUH2S+PecxjGnkioNZf28mQA4g0JAlCSQCNvEAGIVVc/bOmbOFDGPmM7NpB8rz2ta9txIhMK/1CvgjCEQxwhC3iEHFETwgMZTkTMtroCUnjPlcRWOT2vQAeweV/OkeekZEcDgxnG0gtMsj+gTksZKWRF9lkSxs90CVyyfdsRbYOvOFML8gcWXpIPDaiPeUQC+qVqUVWdiGzCZZsAUkKWzqTYaVPiD7kDmJKlpOXASDVkHHII7jIKkN26jtCVRYT8s1v5AgyDglHNvXJDqJr2Wv6LsMLWaKej370o02vtivSLRs0dmDge6QScheJgtSU1aMc0gWR8/jHP761OyqBpc/IInaNwGSnn/jEJxoJ+vSnP721DW/kDnuFCX0ar+yL3cDVYexsmd775BVbMB7YKPJOllad4YX0kbmIgJNJ6T42Qp9wlmWoDTghm4wzNmDeQGDRk7HKXs0n5IMX2bWnPwgoJBNbkGnpQsgdffTRzZ6NB/1BDLJJspLTmHjsYx/bMjLVxdbNFcavuYNsCC39R8DBHYbmN9l/5jj9MnbZJSK8tpTOd2bclC4B6VYQCAJBIAgEgSUhEAJrSfDl5iAQBJYJgRBYywTsaleLcEDSCDxlPckwsa1G5oTgXfaIwBBxYKuQRcrWPeSOzCSZLra+CXKVFegKFm03QlL5W2YFIkFwLStC9oygFkmD6BJ0IrAQAYJapIaD3G3ZeulLX9oyQ5BjspkQCbIuBLFIB9uYkB7adqlD8IqoGCSwEAsIN6SDoF4gXVvIBOe2+SGHtIfAkZGDcBBkIzYE5LI5kAKCd6SKoFcQjZxwPhEy76lPfeo6cgCxpW/6IptJ0CzAHySwZMHJIrK1EoYIAEG6exAz8IdFEU4Cem3RBSz8D0vkGrKxCCzbpxCNCJW64IC8Ubf+Ko94QYjAxWeCfHggmhCEiDhYa0OfkAoIBN9rH9lIr8gkRJc2bdtDQiE3kC9ICWQFG2MH2kOUIEzUi3hAwJHPvcgMBAbSojLFkBH1FkIZc0glhBVihYxkHySwkH3ISVlLbAs2dCcjCIHlN6IGyUrXCA1tI9zYKWwOPvjgdWSR/tM7PGCoj8985jNbBiDZ9N+Y0EfkmDHwtKc9rZFEoxBY9MQe2TfCBUHjYkPkRnCyTSSbsSO7jf5h5jeZYYvUrPvZ5+ClrH4bU2wAPuSvbMn6vggsNgNzdSI0bcWUOYfUo2MkUh3irv8IJ/boexcd0rOMMWSlrESyIkONNzbE5mQw6h+yG5nFXlzmJHpxj7/Zv2xIeoc5YpoOjDF/I1eR8GyfLvXT2FMfwtT37FG/V/ONpau9BqT9IBAEgkAQCAJLQSAE1lLQy71BIAgsFwIhsJYL2VWuV+aGQFNwJ3AV7AtiERGCT9kwCCwEEhIKsSIYtJVNoIjIEhwjiwSVsnf8RoQoL0C2LVDQr051uxAX7hsksASWSAYBsqyl5zznOY0skLFBNiSIgFMmj2CX/MgqwagFVJCPoLL9cdiZNrZaKUN+9yKX9E3wLQMEOWCbk0sQjQhAasiiQmA5b0pmmewOZAISTj/1FwkoKwh5o58IniKwBNvkghnSQcDez8ByTpCMG98jy+CMBED8CLgRVwgs7SLy6sB5mTj6j0xBLshAQhj4HqkDL/KQsy79pm/ZVfqOTLCtit7IjRSCAXwRgv5XpggshAE5kZTqQOAhamBbmWuIJxkviDCEA2LStj2y0WMd5o4MkfnDBumrCCzYwVNGH9IRGYOcgr+LbcAf2cFGZev0CSx6IDvStQgsGYDaKwKLHSOwkCLIHyQTGRA3CCTZU3Sr7+xYnXQh+8hWTVj1CSzb3tgR26qzspCtZH3e857XiJT5CCw2oV5EkDbptuwYWYiwRAzDgz0as9ote0BEIWl8z57ZsO2cSFE4922uf4g7AkrmnO8rE8nWyX4GVhFYdGSrJQKLTfYJLCQmfNgD20XmGgMuWy0rUw6O+ijDTpaWNmVw0SOd+1tWHwIL8eeqtzba4luZlAgr8woi3pZA2ZqyqpDJvtMvuCMpyQMHBBpdsl24KW8cVJbiKk/JaT4IBIEgEASCwJpCIATWmlJXhA0CM4NACKwpVTUyA1EhSwrRUMEmUgBpJACXGSTjpggsgSgCBDkhaETwyExCUiCEZFoIMgW2SBWBb2XGWOQEnIJpAaq2KwNL8K8OJIMMLKSPbXvqEuRWcC3bCqkggBeEO9S6MrBkcQiCkW+1rXBQde4R2CMwiqQQJJNVXZW5VWeDydJCzA0jsJAjAmBBMqJCkCwjbKEEFnlkjsm0Kpxl8CD/ZCghsGS76JNgW8APD9lGiBuEi4wc2VDKan8uAku2ira0ifwowkKmEZIK/jCnG0SCDKwisBBNMsLgoTzMkCiyxepwbZk1yABnZtnipk+w8z9ygu5dyC5EhiwxRCF7kRVX2CE4ZNiwJ3IgF2HBhpBt2pYFyJ4GCSxECgKLbgYJLG0jvxBqCCxkCMKsCCz24X5nPtXh3sgc9ooIQdzJ3IEzArYysLRjaxp8K9PH1kx6KRvtE1hsVdvKGj+lB/3TDhJGtp92XIg8Wyt9hvCkH7YCt3rjoSxHOnUZu3BSV52VVm8O9X3/EPc+geU79c1FYBXBLFMTgaXuwQwsGOg3IlnfXLVtFQHLnhCc7kMoaY+e2QEboG/9RWDVWXHIcmQjnTqHD3Zsiz3pi/kIuY38VQ8CC9lnbNK1sYTAsk0YgVrZcdqlZ3Pc4DbLKZ32060gEASCQBAIAmNFoI6oGGulqSwIBIEgsAQEQmAtAbxJvlWmCDJKMIhkKqIIiSCgRnIgsIpYEeDJUBFcO0AdeYKAQizYZiUwtL0OseA7W3kQWM4Iqq1A6rbQ1ba9QQJL0GnbFEII0VLb7hAV/ac8znwaJLCQFjLGEFgC67ku9QjwHQRPLtsnkREIAWch1ZvsZE35ThbLfASWQBiWsmaGEViydWQEyVDpZ8KQ0ZlHlZ2i//qKYKszuGS82AaHPPK97DV90H86kVGCXEI2FYGF1JHF1c/Aqjf60QtZBPzldCAkkELIJ2cHOScKkYBEQAYgO2FUBJasLdlGCBz9QXwhs9znMxlPCE0ZRGSjT3aB8BzMPhtGYMnAQpYg1cgr20qGDZtlf7KD2BUSD3GEcGXDsHPuFNt1P2LpFa94Rctc8/8ggYUYoTfEI8JNNo/26FN93ojnghNShR5se0O0wIvN2UJoG9oLXvCC1l+ysiHZfkhZRI4swVEILG0h+9ynHYQNHSNvZGDRJ72yDeQXQrP/dsG+zcvYU04fEaCDLw5ANrKdegthXy+LIbDqDCz1GFtkl1FIfkQa2zC+EM7kMvaRpbDVP1ljbMTY9H0RyuqTMeVsszqXzJwlg6syDvXbnOXsMuerIcnmIrBKn9qp7YSyOtkSLLOlcJJXrcgWBIJAEAgCk4ZACKxJ00jkCQJBIATWlNoAogXZgOyQuSGzBimCpJJRI8BDIgkyBZ6VoeANeEgBWQt1MLZgXoCNZBCwy4xAUiE9ZA7ZFoh8kN0l6JSBgriwBc0WPYEnksj9SCPlEAnKydyxrU3gTk6EmewPsiKrkAMuWTKyahBRzpOqt8ZVwCp7TPaKLXVII/ULsJVFsqifPAJsh04rI2BWHnGhXaRGEQPIEVkd9WY7pIosKAs5cgCJB1PEB5IFuSSoJ5dguS4kjQDdmWK2aMHOGUDIBRk3yCby1FllSCBbuPTf1i9kF7LNgesyyOgVoag/znaqM7CQM7J4kC76VRl35EBQIRiQHbZ+ISgRWOqsDCz6QmCRR6CPlEAAyLKx1VAmGxuo7CCy66dMIGc6yWZDaiEkyO5/ZE2dNVZbCGEnCwoBgQiDfdlnndtmm9wLX/jC1qa+I0/Zib6zRUQWUkrWETIFgYXwcCFHyOQQcv1GeNBhHU4uQ0s9dIkshDXbt40NyVKkK5uBpa2u2kOqIq5kjrmfPSBd2Co566B1ZzOpC2nD3thV/xBxfYGXLEDbMdkZ+zj22GMbSakvdAU7JJa6ZUPSDdtF3pHXeJMVqI/0099Kaox7EYDtk8Y2XVQmV53nRQ/k0l9ZmtqUNWV8Ijwdjm8sw5WtsF/9YW/swjipbZ5IR1lY5gvyGg/GLczZP9JRf41f48f3CFG2VjqT6cee6aTOPTOeyIhws8WUzcPZvdquDCzt6weS3rhmF3VWF7IbSW++QljaiplsrCld9NKtIBAEgkAQGDsCIbDGDmkqDAJBYIkIhMBaIoCTfLsg15YcW7YE3f4XINsmJfBFSMhMQUD139qHBPC5AFQwjBCQkYPUQgohoASwgnREjAv54JB0W3YEswJ8W3pkXMncQjzY2oOEEZjapmbrj7OcBPEWSGSaLYbK1qHVFZjbjoaMEMyTTXCPUHDpmwAVEeBvBAqiCEEge0e7yAmBOXJG3bJbkFv6gfhB+Oiv7COEEnJGdpS+IioE8XXOku2JSBeEXJ1nZZukABlhoM269AuxJoi3/UpwrU6y60edOWSrG0JPu+QTaAvw1atfMoyQSeqDm77IFKpDvBEjyJna+tg/9wcmtm0irhCKyD4kkToRDXRHXzCTGSRLRZYSogFBKYOliDy6ode99tqrkQvaZV+yZshOPvUgPmCJSJENpl3fKYdY9T/M2Q9Cr/+GPzoiG9KG7anDZ37oFskHZ8QSW0UasksX3TkcHhmpb+7XN5jCHlGC+HDeGTtF1CFIfG9ssBkkjDYRr/quPNINiQNf+tM3toi0US8SRb+RnuwNISW7Tx/72U/6ST72AD9taV+dMKH30jl7gal72Cb9u68ITtgbS3TWJ2WUZ6P6oN4aX+SEE/s0L2jfGKBrtuE7Y9iYQDzSG2LI1krjy/hHgOkbTCurydjUVz9sR2YmPVS/kVjGCcKUTo0n7cEVZtpXVlaWMWQLIrzrjCzfIUzJa84y9silX0hZ9oNMZqOIOXYGG+0iHI01hGSdo5UsrEletSJbEAgCQSAITBICIbAmSRuRJQgEAQiEwJpyO0BaCYQFdC5Bn0wOQS4SRBDaf5MZgkB5gS/yyMIlEBQ0u9dPBaZIMGV9r5wAsggRQbl6/VRbFajb7iTgRgCo1/eCTHIJstXpEuAKWtWtDLILcYC46J/xpKz+IcX01z1kr/vrDXICc5c+C461ibggg6DWPcqSSx/11eV/JA/5fI6QQ6aQVXn9gqU+CcjJ17+0UWWqXmXJWUSTOvW7tg6Sz3ewda+2i7ArzJSp7B736b++9XVUctBV6Rue1R9y+F8b1ScyKg9vuNBXkVVlB/2MHzIqq04XXOBQ2JC7+kkHZGUX6naPrBkZR+7Rz7Il99EnoqmIJ/ZVpAyZYEZu9ZObrsijnM/Vj7Bz7pi6nX+FMJHBI4tOvb5THrlSpAms3Fu2Cg8yVlmy0mu9ZACJo0/uV5YM9DCMLNF/GZCILljJKNJn99Z4gbO2YAhrxBHdkhcZVFlZZC676Nsce1IH/OqCl/6wT+NFm2Qkr/q0Uy9kQFppT/1so+xFf9RJ3wg+9yK64EEvLt8jSNUB88oWQyrahukeGVn0guBDiNELkgqBZYzD2v3uRdz5gbfP9Rdm9At3mCDltI9oZi/sgVzITbqQFUdGn/Uz4qZ8+k/3gkAQCAJBIAgsGoEc4r5o6HJjEAgCy4hACKxlBDdVB4EgMBoC8z3hm+/7Ya0gPJBFCAs/SB0ZWwgPW/1qmyWSaPDtkXNJvZCy8/VcXa65CBV9dg2eq1YO5XISMX2858J+mByV6VkvI0BAydBDUMl6QxoWSatvyssqQ4bJwBrcCqlMP7tsEJNh/9N7bZksHYxTb/PpNd8HgSAQBIJAEJgGBEJgTYMW04cgMH0IhMCaPp2mR0EgCPzvAfq2ECJRZBrJenL4uq2qtmcOy1wKcItHgKMrO8z2RX/LikJM2aZpK7HtjkhEW49lS8mIkoXlTYLOr7ItuLK4Fi9F7gwCQSAIBIEgEATGgUAIrHGgmDqCQBAYNwIhsMaNaOoLAkFgIhCw3cx5Sl4AYBucLXFeYODtlwRfiJQAACAASURBVMiTXONFgKOLJPQiCOec2cYnG0rWFcLQtj/Zb85wsz3SdklbE52z5vwv2xsHs83GK2FqCwJBIAgEgSAQBEZFIATWqEilXBAIAiuJQAislUQ7bQWBILBiCHC86kw3xIrzqpwllUO8l08FMHfGFYLKmWzOoKrzqrTqe2dc0YczuugEweU8q1xBIAgEgSAQBILA5CAQAmtydBFJgkAQ+D8EQmDFGoJAEJhqBOY6S2qqO73KnZvP6Z3v+1UWP80HgSAQBIJAEJh5BLJWz7wJBIAgMJEIhMCaSLVEqCAQBIJAEAgCQSAIBIEgEASCwOohsJiX6KyetGk5CASBWUAgBNYsaDl9DAJBIAgEgSAQBIJAEAgCQSAILACBEFgLACtFg0AQWBEEQmCtCMxpJAgEgSAQBIJAEAgCQSAIBIEgsHYQCIG1dnQVSYPArCAQAmtWNJ1+BoEgEASCQBAIAkEgCASBIBAERkQgBNaIQKVYEAgCK4ZACKwVgzoNBYEgEASCQBAIAkEgCASBIBAE1gYCIbDWhp4iZRCYJQRCYM2SttPXIBAEgkAQCAJBIAgEgSAQBILACAiEwBoBpBQJAkFgRREIgbWicKexIBAEgkAQCAJBIAgEgSAQBILA5CMQAmvydRQJg8CsIRACa9Y0nv4GgSAQBIJAEAgCQSAIBIEgEATmQSAEVkwkCASBSUMgBNakaSTyBIEgEASCQBAIAkEgCASBIBAEVhmBEFirrIA0HwSCwAUQCIEVowgCq4QAp2DwutCFLnSBz0YtN0o3htXlvmHtjlLfSpQpmUvG1XSmBmVZrv4P6mmS9bNcGMxCvWtxPM6CXiaxj+NcB8bdv9jxuBFNfauBwFLseCn3rkZfF9LmavpcC5EzZYNAEJgdBEJgTaiu+4vhSgWvo7Z59tlnd8puuOGGIxMfyp911lndf/7zn26jjTbqLnzhC48V+eUiFparXp0fBe9h7S9Fpv69o7Q/ViUtsrKSk/34m/2s1Jjoi1xy+P2vf/2rO+ecc7pLXvKS3UUucpE5e3beeec1m/+v//qvZvPnnntuK+v/YX3wvfIbbLDB+epcjf4uUl0Tcxs9wRJ28803VW6lcdZuEciTQNAuRnmrhd1iZB33PWzMz3z2NY52q62+jS7EXpdTT/25cbHyjQOj/rpacixnv8clc+qZDASWQkIt5d75er/aBNJqtz8fPvk+CASB2UMgBNaE6fzf//53d+aZZ7bAqxZERNGlLnWp7qIXveiySnvGGWd0v//977srX/nK3cYbbzw0wBa0H3/88S2Av+ENbziyTMofc8wx3Z/+9KfuFre4RbfJJpssuC/wQJ795S9/abJd+tKXbmSGoP+0005rslzhCldYcL1z3aCvv/71rzs62WqrrbqLXexiC6qbDvUbWUG2vmPvc+TGJS5xiabnv/3tb03n+qT8IHGCvPnHP/7RXfziF299JpsftjFIdqxPyMIQZn0icSGB0IJAGFNhev/a177WsNl1110X1OcxidCqoaPjjjuu+/KXv9wI2fvd735z2pyyJ554YrOhG9zgBt3mm2/e/fCHP2w633rrrS/QBzr5n//5n+7vf/97t+OOOzbbYeubbrppG/+TrqNx4jyOuv75z392P/jBDxp21772tZu9D7uM72OPPba7zGUu013zmtdcETKi5Pj5z3/exjH5zAfsfD5SdBzYjKsOc9LPfvaz7qpXvWq3xRZbjKvaZa2nv7YinpYyrozPE044obve9a7X7Gy5Lrbxq1/9qjv99NO7bbbZpq0TrlFlN6cYC1e84hW7q1/96hdYY5Yqt3XFGvzXv/61u9rVrtZseCHyLbX9/v38mP/3//5fm5etF+bgy13ucm3+HRWvccqTutYOAn0iltR9Ump9c0WRy0X0KLuUB419xMQDbNr8upxzzHx+Y8bO2rHjSBoEZgGBEFgTpGUL3k9/+tPu0EMPXUdM+IzjdfOb37w5n8u5iBx22GHdV77ylW6//fbrrnvd6w4N5AR7ynFU73GPe6xzVOeDUfkPfOAD3S9/+cvuMY95THeVq1xlvlvO970g7yc/+Un3ve99r/vzn//csl4ETXe84x1bwP+e97yn4YNQWF9GzEIa1c673vWu5pg/7nGPW7DMsPrGN77RmkS6VADt86OOOqo5OLe+9a3b78997nPN0b7Xve7VyLL+hSj55je/2Wxjt912a2QIUuQ73/lOC2YET6PahUDou9/9bvvZY489WuC8Fp6uCUhe/epXN3t7xCMesWAycSF6X19ZpNLrX//6RmJd//rX7/bZZ585A3dYI7q+9KUvtbFCb+94xzu6K13pSt3tb3/7CxAq6v7v//7vRmAfdNBBTefu33vvvbvtt99+RYmVceG1mvX84Q9/6F772te2+XP//fdvROCwS3Dw8pe/vM159IkUXqnrrW99ayP1H/zgBzci5NRTT21zwmUve9mVEmFJ7fzmN7/pXve617V5+Ja3vOWS6lrumxHEJ598cnuQYj0yH5uXkcmDDw1GlQV59+53v7t76EMfeoF5e9Q6RilnDfjMZz7TSPxHPepRjWhdyLzNrp773Oc2Hd3znvcc+cHTKLIpgxQ0zyHg73a3uzUSyzXqujRqO/OVgwn9Witvc5vbtAc+73vf+7qdd96522mnnTKHzgdgvm/rLz8TYVxkN0LKQyVr/uBcYWx6AGIu4KfyQ7fbbrvu8pe//Fjs7Uc/+lH3xS9+sbvTne7UXec611kVDS1krlkVAdNoEAgCM4dACKwJUrnF8gtf+EL39re/vdt9990bQeOSGSD43WyzzdbrEFpkBNaeCgt458o4mKvLnGNPaTmg2h7mfBaBZZEXWNeT1vlgLALrlFNO6R796EcvmAziTAgyZVXssssurTl4ccYRBZ/+9KfbU9Y999xzbASWPn784x9vWWkHHHDAgrO7ZFW97W1vazI/8pGPbHp00c+rXvWqph/EmOt5z3te98lPfrJ7ylOe0t33vvdtWTp1eer+mte8pmW+CXQRT5x0dSNC7n73u4/sKCHl3vnOdzan/glPeMJYCb/5bGAp3yOwYMDeHv7wh68agYXMfNGLXtTd6la36u5yl7usl+xgn/R0xBFHdLe73e0a0fiGN7yhBcyc0cHx2SewHvCABzTyE0m51157tXtXYpvSUnQ0afcat30Cy/w57EJgvfSlL20Y77vvvitKYL3lLW/pkEBIWePb/HiHO9xhzWQzIUZe+cpXNpnNS5N6GYuy3cx7CEPBpXnZ/CkjeKFrZfVT0Go+NScNPngYJxaCZGvc0Ucf3R4ALZTA8sDjOc95Tpu3rJnmEuNDJrS1ZqlEE3yPPPLIRmCZr8ZJYOk7+RED/XVxGL7k8BAOocA/kbHy3ve+txFYfhAMiG0Z0UjizKnjtNLpqMs8wddgJ+aJ2ubNz/JwYfABB5/KPM7uttxyy/Y9Xw+Byldd7NxSaH79619vD7b4oPz6wYufyi9nz4sl4ufTXAis+RDK90EgCKw0AiGwVhrx9bSHiJHdxFHlEMuu4VjWGS5+c8D89jRZedvHagsZR0+Wk4DI/bUNkJNWjpp7XP2FrhZo20H8yFSo861qW4syMpv8FpAjpDiqHESyWOB8X7KRU5tVzyCBJQulzqawbcal7LAFWF0yUTzpfuADH9iemtc5RNp3j0Xc79pq5fs6T4gchdFcC7Gyfqps9YNzon1ZHOoomavP2pwr4wuBJeMGMfGwhz1sHYElY0wWj0sw4hJAc1Q42Q960IO6a1zjGu1z8iIVkXf0KZOHY2QrGqITMXLXu951ZEf8xz/+cfeJT3yiO+mkk7ob3ehG3f3vf//zEXPVvzq7CR7VP5/10+jJ5rM636lS5uszGKqvbFY9lVpf7ZSelO1/X/cWzpX5hMCCpQCkzpZSVj1lx9VG6XpY+3VP2Uj1oV+nftSZVYWBLBm6oIfb3va26+yq6un3Q12yBgV2Mudku73kJS9pZLTgSh/6dkpOJCaCk50bz34EmeU0D2un+um3OvyuM7Zq/qgtDmxqsI/6OYh/fyuFNn1fY0gbrr6++vUrX+NCW4P3r2/KLT32A8t6Cj44Z9Wco77SVdkreecisEqmmgeN8Ze97GWNwEIeVx3a688Xw/pS32u/P7eub7tJ6Qh+SGgkkPna3MXOBT+l776sfbzJPkg69G1pUP99ey/76OM5eK/vahxXW4Wx76p+siPjEViCu7qnxksfn7KLureva/2s+WXw3pKt9N0f32VL89mYcfT+97+/zaUyjK2t1gw2bb3rz3G1DtR6NswGtOtewa4sXXOShz79dVCf/JQtlA7686N6yh7U15/Lqt2ygc9+9rNtjZCBJVCuMVj3DM6Z5C8dI4AqA8vcZY6R6S3ARob12645tz5b33jtjwlZxTKfBPpFYPX12td7zRewKb3X3zWOSicI5o997GONIFVvv57Se5XV3qc+9an2IE82pfWiCCwZWL/4xS+6z3/+8+34gyIXlkreTZALGVHGgAAfCSnNP/IgudYf84S5eZD0tH7wxfyW6WtssUGkkgeXxtdc83WN3fq+Py6qK8b8Rz/60VZ3EVhVjv3LpvdgzcPbQTK6/Kyl2vhcfvMY4E4VQSAIBIFFIRACa1GwLc9NRWDZKiCgEej2F0tO+OGHH94WUY6Y7XjKeIrM2ZT2jORBQtlyaOG0gCFDZH3UVjSLWTlvFlnbKjiFnL3f/va3rayg2eLI4beVCQElfdoWhG9/+9vtKTYCS6DlaafAS4q1hU7Ks8wTAZnynE7BAnKtMrDcp11neVigZdhwFqReD57pREYOAVye+tSntj73F2Ryyl6AFZLAxWEnF7JI5gXSizzDFmJlyEw2pMIOO+zQAgT6gAc8/a+PMCc7AsgTfH0j87Anw+pFYCnXJ7DUe8ghhzSiUTaaez3xg4GyyA2EB53ou6w8/Xc2GcdbAEJedSNREFhFVMxHDiCvOPd0jFzh9CDN3K9/cPS3fnPE2Bo8PEWUbQBL9qSM4NUTd4E/HHyGtFO/7Vi2b7BTdinA8Bn90BOs2SaM2AG9bLvttu18FmX9Dx/3ksvT929961uNxPMk0tPR3/3ud60+MsFJMEkGwSn5lWHT7EBb+lHOpPrJjwh0L2zJy5ZgrB742NZJXo4jvSOjYMjWZTP4jYAlp0Cr+mmsaAMW7rnpTW/acHrjG9/Y8KsMLONIv+DmjAu4sDdbCNmD78lmnPjbuPrjH//YZFGf/hdeMvWMTXjZosve9Ylu3OtHO/TKZmGpPs6vMQc3+KjPZ9o3bo0l48IY0lcOMzw5+MYFO6VDc4Q+04NgXhswgb86b3azm825ja/slj0YY7CQUak9NqZv7FQQYR6Dq990qoygA7noKbTP/C4Cy99shp0o614yuvRZO694xSua7flf3+FgnmH3RbSon03AlT24rx4qGBtlfze+8Y2HnjOkHjqAn3GuLduu2Kn5oc48o1N2q3/q1S78ydPP8unPgerWX3bIfujfvOI+9sZe6KK2YNuKor4iUemZHQrC6BQWsl6VIQvckBP6KCvBWKULY9TWXusNeyKDs4ducpObrMuSNN+ZV8xZMGMX7q3zFMmmfeORrmCrzSJk6MO96mFz7LnmB5gZn3DyW7vDzjpSztiDqYcGtRb0A0fzAKzZG1uhx8raKz3rf82R7BleCBIPAuBrfMEG/uYg45nO6mxGutEXOtZX/ba+wrf6pi3zJpunH/McfeijtdJ8z35gYB1Xj3vMXcYOPemvOZ7+nN3YJ7A8APGgzLYkcx284QZzbVrzYaH/Na/315VaQ+kPXsaecuYV6yL5/K9Pxr6+wJHeC092o7y5DUbmd/0gu/FJFnOrPiHGrIH+Vwe52Lb7v//97zcc9EHd/v7qV7/a2kWkVQYWnOAho9p2fWMP4apOdpsrCBQC7BnZzXcdzCodRgRVVrvx8NjHPrbNtR64qsO8wK+1NrLZOvPUOmeMmgeNNfOGv60PvjPH1nlXMrH7BJZxZZ61ZquDPZs7733ve7e5Wz3GgTqNZ76DOXGxR2sUWTaKjxkrCgJBIAisFAIhsFYK6RHaERRy1GRgOVNDwO8SIFqsOL9PfOITmxPOYfOZwFFwzCkVjHpyZBFEgHD2bDngpHLmfG6rmgX3BS94QXPoOLbIEWUsrrYsyerxnYXzIx/5SJMBoSX4QFpxDtVhCxWHnjPMQSSHYJ1DXgG3OgWPAtL+GVjuR9rIxBJk19Nw2xcFoP1L4CJwlCXBIfcEncNb5J5FnJzadL/F3FNxAbhyAiDbRJA9g0+oYOlJNJwEHRZ8C70MGE6EbZUCCEQPGd/0pjc1h0NAIrhQ3nec4cFrLgJL8KEectpCyHF3jgx9+gxRoB+CZ0GQ9HFtsg8yeRK3GAKLQ+PMHcEBkkzau0CD46MviBFPEitIpTOBBjJGUMIuBRTOGeOksRtOGjLmPve5T9Mj3QvQ6YjT5sk5PZFdv9mP+jhdAiW2LYCobR0HHnhgc8LgWtmEyBC2y+44lOqmL/bpKbtxIphRXlvsjR0j+NgxWfVDf9wrGFS/7+kWBv6HtcAGmWAsyYZi8+4XoNOTAIhzKvDimOq7PiOOfK/PbAqmxh8CzJgwPowxbboX6QwPZJgynE4BMFulf1sI9VdAhygjo0BOv9i5e9k3MlPgCz9jQF3Ksj19ZvfGvnrIoZy26NPfdMXO6q2Kyppb9Me4qDHEYa7gk87og76NE/qR1fDBD36wte1zfTGelFWH+8lp+9JcW/mMHzpACJgDzGnwZKcC1Sc96Ukt4GTHHHo40zV9yE6prCG4s2+Oty2ERWCxcXOVAJc9GueCFME7EsZcqC+wcMHIPKoscoc9mIuMRTYnODEvqtM84XO2om1kWz9gIAvdGst0gRg2DhEAyAzzPcyRI5UVqc0Pf/jDTRYyIELYuzmgiJeac+i6xgv9wtx6wZ7NF/5XF/uoTFr9gzEc2Q5yqw6+Np7gab1hb8gOW2QqI9d4MP+bE60l5gXjy/d0ZmyYF9mCucrDB3M+HOjHveyOfuBiDoCfeui+tn8hbWDGnlzmc1lybAv5R6Yi+tk84hF+g+dFCvrUozybofP+gxKymZOKiNUPa415WL/YOxs3/ujCvcaK79hObUeDhzXNd/pq/jOe4SEARJizb1m2bIBOkE7qFLDe+c53bmc1GavkgRFZ4GGOYvfqp0P9JaMxRQ7Emy2SPi8dmy+t5+Y5GVjWKXORMUXfbIUubZ2FPz1Za+HlO1gOPkijB2ME/rKxXUgydmRuIw/8zW3GrcBefeZd9mtONX/DE7kKJ+PQ2ucBnXrYobmNLZlXiiRjO9Yf+jA/sXuYm+crgLeuaFdWYBFYfBPzjnXXd2SAg/WostlGcNFSZAYQYGvGkbXT2mvcWjvm2p5XBBYb588ZC4hmPqg5lp2ZP40j87HxbE401xifHhSYm4xr8zSbNx+yTXbNvzCPmMevda1rtTFnPJu7kcPGhzFgrTKOtMPGjc/KDOZ7mAcWcwh8CKwZMPp0MQisQQRCYE2Q0jixHDjZOYJITpzFQ4DjqaO/H//4xzfnWWAhkOEkcjhlJlloEVgWRNsMOKCca0GZwJ0DbKsaR5EDbUFDVrinDj8XiFlUOXtIFQseJ94THI6l/zmfgl+On+BRMCdY8Rnn3KIrQNeOjDDOO8eZ881Zl3Wk7LOf/ez2nYPLObkWYo6loHjQWeBcc1iRKJxezq3FnKMumNeuIEJgxPEXpHIelBUMICQ8HasMrVK7J8YOgBd4c3g9DYaHQ4k5COrRj3KmX/ziF7eyCBvBqnth5QybwcyxuQgsOAogtEUm9wvkBHt+9EfgAAvOlD4LajyZ9hlHfTEEFqeGDuiGs0M3gkd4CzjohL0gEdiLLA26FnCzO46U4EB2EKxtf2KvHKaHPOQhTTZ60G86RcYKhGHHtgVrAi2OGDk4ZcoJoNgm/SMZ4c4BdD+dkEMgi3wTiLBdThxCx9+cM06kccNuZC+yY4SnYIqdC3i0x8Hzv+BJ3+oge0SO+mVP6It+cArVzyEVxNMNOd785jevI431mR4FdP6GIecXnsag7yoDyzihZzZovCAs9JGtCe4EtzCS2QFjAabPYGBMsVVOsrGov/AyttmKvpgLBM6cZEQIMpLdODdNXcg3+CGS6E/w51Ifx/lDH/pQIwaQZ2TTD4E+J94cw15gDVMOtPboj6Pvb2SmQBiGyE36oXt1sFdjCSbkm+vSL5kysOLAk1HgXbowj7AVsgpmOf10BQd9ExQglNxrDrVVV1/Zs7lHUAETNstWfGccy8DSNnJE8GAOMZ4RSwIKOocTLMikL3RIl3RKDrblHro39/azZ+lNneYw8xKc6RPpBA9bTcylxhr7Q1wItgVOxgS7MiZgDYP+9i6kDzyMb4QqLNgzfbMtOmDvZIaLdQWRo1/szNxqrocL22OzdIBgsV4gtunefKsMosQ4MAfC71nPelbrq3GN0Kt5whl75nXzKXyMc3OpwKqIUusWvZg/lWG3SCL/k7OydmEtGDPfkMEchrQ0XuCD2FQ3jI0HOA0SiII9Y0J/2DBiqTJnzVPkRirqAwzICWtzBJsyjtlyZZEa78hU24KRi2SqMyLNWdYic0pljZIHCYqYNCbN7cYlHdEz8ogtWhPMX+Yz7esLndYY11+2j3CFgTEHW/+zH7hpi72Y341nc5gzsNgoG9F2rdXsEfb6SK/K8CXYj8/dz/b7FyL04IMPbvMW+bRjTocJWzYGtM9nsb4Zs2zf3E5+ts7GzG18AP23lppnlaEXbcPT3GN+MW/DXl/o3ZyO8DN3wY7c7JsezTf8lv4ZWDJWtasupIJ2K1N1gtzAiLLKCLA345YtskHzjjnHujbsPCvrRv+oCGOHPZrH+A98HvOzudX8oT5rozGITOeDP+1pT2tzmLmmdmIUwWqO4LuYbz2UULcxwn6tC74z/qzF5mhjxlgqYtiYNueYU8URC91OGAJrlQ0yzQeBIDAUgRBYE2QYgnyBuaCLwyoIsphZ2Dh9ggQLXWUhWUwFJZ6eP/3pT2+EFqdUtoNtEr4XhFr0kB4WOQ4v55ZDysHm8HJcBf2IrwpyOJwWRvdxjus8GOSL8hZgssmm4TQKZAQPPhcEcuA5lpxcTqTPOLBFYCFJOAkCKNkK6rLoCi5qW92gahA7nHiBMqfAvdqxYOsnGTgAyCGBk6BV2/U0TLA0eAgmPARzgi9kF/JFkAtrDgNnRmCkjxwV/UH+wI4jACPBD1kGnZu5CCyfO8xbVgFiSKAoG02gw0lCapCdPDBDvvlf8KYMsnEuAosNCaoEzOQjU6WtV/aQNhEiyKgiPWQ9sBtBBaJGf9gIJ4s8MqME3J4kCj45/nCCM/KmAmO2y/ESwKhLgCGwqGwEAaoAR4DGqWJ3lUGFPEOKwtYTSfZTZ7nB3tlTgiEBPjmKwDIefI9QY6dIB3YCOzqXFcC+EA3+FsDRIwcVln7X29SMDQFbjZt6Y2alzwuakJiCVcGl9mBuXCASEC2cWfgbq4LKIrAQFYgQ2AueBaiwhi0Z2L4xIJgjA70jsNg0x1Q76q12jDft6gO8jF9BqjrpBIFH9/BQF5tBZsCAPupMI7+NLUSDvwXQnGZjQ93GDL0heYwTsptL9MX4lx2CZKVPtlXBK/mMIU6zecZZSezK/XMdnlyHVZt/yOq3OY3Mxjc7Y4f0ww44/3SNEDBnFkmvTbZHz5U5isRBYugfGeuCO6yQEHQBGwGHsrCDm3HioQHy2vhi++ZnQQTyhw0iTuixrn6gYKwjT9gLEs+4NC8b9/osuGDPgg2EMrshg7/pnn4E7fVCiH4mqc9gC58698c8CzdEBx2xNW0aT0gamBlDZDa/yfYzx9R2bzaMpHjGM57R1gSkgHHr+yK0YMw2kFyCM7rRP/cZ+7W1nU3D1Tyvz+Z9WNMP8ofcsh71qeQ2x5AXZrBVlv1b64xB9QkQzYnGqDnE/MUukKyIxsHDltm2vioj8428ZDReamzVuGDf2lavwNC8hjhhZ8rX5aECopGd6x9dGhfmReuYOdfcQo/u953+mjvYkHVM/QhJY1ifnvnMZ7bxavwJgNVrzBtjbES9iBw4m4v0AxEEe+3W+ZjWLn2whpt7isBC3sGQ7VlvjDPzJ73UGzvVgzxECNMNGyx7hqO51bxmvLMJ8w09K8++jcWSw29rJFn0F+GmH/orq5J9ml+MVfYES1jV+UDGtLmdD2FNRM6yZzZi/Jmz3UsGNmq8mjfrLcn9M7CsZ+RAGvKpVvKNoxPkakaU9SBgHWXbtTWfn4QosnaZVwa34tUZWGzOnGh9QIAXoepBAVu37pWva/5li+Zccz7fxHrGnq2N5gl+onXBAwNjkW9kjjO/FTlrnPJBzRfGkrXO2OSjW7v5deafevGMMbFQmw+BleESBILAJCIQAmuCtFJPXjzJ5KxxUjlxAg4kB+df1lJtWfMdcsZTXQQWckMQKsB78pOf3JxRCyWyAClggbW4ci7dJ/D0maBboGahVpZDLIBF7HAI+09tBNAcaQ6kp1OyIyysFjlty7ywaGobscSZ5KBy0i2qRWBZVAUjUq7Jo16BhcBBQDLXuRTKqdOijZyy6PtdBJbAwGItYJRpwqkXtPgRjJGlf8Gac6CPAlL1c6YRJYJ1QQKHBlYcFcEKJ0NABX9BhmCAU74+Agu+nuy71MNhEbToK4dFAKp9TjmHW8Aho4R8vqdz5CYHhfM9F4Glbv3RB0SIJ4ecndr+yIYERYLF2q7F0VIGZvoHT08GBVqcp3KGKrBHGtZ5IshVxAXSis45XgIeASG82TCyy4UQEGRwyuo8IYGobT8whAFb0lfZRdqrgJstsTlYcPo4mIIggWFlYPUJLN/JSCEDh4083pYGE7bob/bhb3oTlLNfgRaCA75w1E+6rif/7FfATk+CXxf7MM44qvAXhHJUjcFyhuHDaWQCBgAAIABJREFU9uCjv/TCBgTySAT6QETQN11xlovAEpwK3OjL+ORM+xtm+s5RZf/aNz9wsM0lCCc2WiSMeQG2iG5BpcAQMeF3nYHkCbHMGUEi/GRnCF71m34E8NrUL0SxvpirPBVWHnbqJ7u6kW/shR3Bjb7LSa+zdPrjkVyyJJArAm8Ou7FrPJqf6m19vjf2zUXaqbPz2He9uZF+isCiQ3OGoKCyHqtddo/AMuYQQGRAkuujsQILY5IOBdZsCSHHNvSHDPoLO/MPsq0OAK82YC9wZhf9ly7AkC6NGTaLkKN7xAgSqc6g0qZAx/j3ptJ6o2nNJ7bxGYvICfMKnZLLHO0HYW5uozuy6RuyhT6RQLXVGwGnLfgi/MhVWUP6b/yoBzlSmZyIGPiaQ13sU7/MB+wbmWX8VEaxwA1xYhxbL8x7bBy27AxxVxlXSG1rgUwfF1zMo+RCurEVcyhdsBWyGiseMswVqCnHXtkNMpuNatvnMg/ZG/KczZKLvtgRO7Y2sluXsVVvITTGyFAEnXmOndGnucqczS7ogY2Y54xVcw95zWvWmtq2yZ7YA1ugM4EqfVq3EVjaggW7JZM+0IsxQjfKm4sE0uZI7fUJLDaPeFW3OZDOyGYe9JkxgIwyJ8EXsVQEFmxqvkFWlc1Yn7TNBs355lJrA51WJpV5z9rCt2Bf5mfrvzpl+Zl3y66sP2xVH4wd9mK+MdcW+ca2kWLsgByw4buQAxE2eIi7+s3z8NLOQoP5CXIXI8oyIGBsGzvGcRFVxoGxwh6NaTbXv9g534Otm+fYoTGEsDJPm2sr+7kILA8FrCH8Rr/ZpHWXj1AElixnBDFfztprjFrr+aK1Db8e+ChjbTSX8p3M6Wzcgxo+PwKNP1kPOBYCXQishaCVskEgCKwUAiGwVgrpEdopAgspYjGymPWf4nPyOL21va0ILJkOCCxPhgU9FjOZJxw7pAGiyBNygR1nmcPIAeVIWzw5m5xgZBbnENll0VZvPTkvOSyYMnIskJxcQZunOhZtTibHlGNY56Eow3m26AvO6xB3RJWAEoFlkS0CS7scZvfPdVWApT4OgMCtT2C98IUvbPUhZjioHBKBF+ehSKSqmwzu9TRWUEDeOs+lzgETcMmI4QggIARHRWDV2S7DCKx6CyHnXYBTQSeHh0Pkf59rT6Dmf6QZ/QumOECcfG3RGdwFQfRGV8MOcacfAYO2XYI/QSQ9I0x8LpCkTxgJ1uDH3jgqCCxOvyBDAFoZekgK2NExxw42HLPaGkr/7Ij+BcUCODap7SKw2Dc7qK2ZAlDBVRFYMPA0X1DJCaPnIrD0i5NHRk6YoJATWAFePQXl/MG0CCzZDPX2SMGefiOMkDtID/0SRCKDZBAI7DiSPiMfwkg2jCxEcnEqZY0I+th5ZQeQqw4Zpyd9RTTAt7YeISNkOcAO5mxAf/WnCKzKPCsCS8DFEfU97OugajoSqPlfwAgvdmU7l/6yKX0sPNRjXmBLCCaEClJGwFyHVbM1/TYm1S34RiSQka6RfsZBbV8yFpBbRWC5pwgsZJb5BkacemQA/NnV+ggsOJqz6IL9k4HNmAsFAcaefpCbPpAn2kKIVDacvrMx846gHOmj37KozKHmF8HIIIEl28Y4prs+gaVf5EHMm2MryBGkaEedSC79NdYRHmyhHxyb1wToSCD6rAy0epnDIIGF4PWdbU+VQWkMkBGpQv91IR2QE/AqAqtIGmOdvtkauZF02oYRXGzLMq7MPWzOOFauzl0xPpFMiBF2Umcrwai2tsEKvvBwkYfs5gvrjbaN8SKw3MuGYIGUQZjrE2z7BJZ5uzJT6+B29xo/MiGsVeYb+lS/sUjH/l4fgUVG45xOEVDGqfUBceYy12pH/eqBERKOzIMElvmRDZqn9HWQwDImjRP2QA+IltKRuanmTfNSnSHFPuCvb3SCaIeFtcZ8hDTSxyKwBLTWOqSjucac60cf4Wl9NpcXgVWEVZ/AUtZYgaF5qt4eSD5zgLFUPgCyG1bkJR9bhJe2jXPyuN/6bDzQlzlJf+pMNn9b5xBYdQaVuVUfjGftGkd1vh+CQPCu30g8cwlCkU2ZsxDTxkZtd1YHP6a/hRB5FgJrBEc0Rc6HABs2d1sHjD022ffLawuhccF/Y7v15mBz6TACy9yCZC0Cy9qOrFK3+ZkfhrCyFhvn1nK+hPGGmK1M3zpawzj3sMXn/H3zYL00wdxhfLB/8xCyfiFXCKyFoJWyQSAIrBQCIbBWCukR2ikCi6NaZ8UMI7AGM7D6BBZHz4LHMUQCISw46pw8gbigj8NYBEFlD3EMK6vFooqAsIhyAgUndSaVzz1ptbhaLMsh5+gjtWoLISe4MizcSw4ZLRZzT0nrzAwLtAC1CCyBm4Ckv8VnGHQCB31F5gmkisCqYEPbgq/K5ILjYFaEegVQ+mDxF4yXzJyIOuBdMEFm/8NkIQSW4FCAK5OtyLN6O5pACSHAwahMA3II0PVNQCSrRnALQwQDMqgIrHqSTKdznWugP4JVmQn0Bq8KwiuDQHtIJ+TYXAQWp4k91UHHdWCyzC12IxBkY54Akoet2fInWKOfepW8oJ4ekBGIwSKwOIGeMgpU2Rtb6RNYMBTMCkjcU4dK9zOwBM3q7hNY/QwsTiAZZfaQzTiAvwCMTmSNsG9bxRAcxmMd9k4+dkkmGX76hZzx1FUAT29IFnaMpBK41vk+ZEUuICP0QTmEGKzZJxn0SxvsmF6KwEKiIVcrYxH55kkq2ehUO2QRUApCBamCRd/r4zACix6Rf+yHXdd5UORmb0goAaBD8mWakRvxTD8LIbBks9QZY8MIrLmmRLoWXJNTdhKcjU02YR6hIzblBwbII9lYdU6PPrNxfUHaqsc8xuaQKwhK5M0oBFadH2ZORshqo+YItlRbncwN5kSBjqACodF/Us++fEfP6iwiCLnhu0ECyzxpyyBbrnrqMGFt9rdgsgEv50DiIRORMfXyB0SGuV2ARHZZLL53sRPjERFuHSAXkkVf4IooEFQhZOnfHFbEGVlgrM8wRhxYl3wu0DIWkbTaojeBXb3dk+ywM+8hhox5JIvP+gQWnMltrNRWMfWT2XxYZx0uhsDStvnQ2LX1Rv9kmiLyzbvGElxgh0gxP7MjGPXPOkSIILCMo2EEFpyLeK5t+Agk8wQbR+LpX22X07c6D6sI+vkILPUhiWBeWFqbzevmZiRrEVj0ZL6gN+3XixX8bz6yJpnrK8uMnSJQ+9umyA4r5DL7NIeZb/gUgnKfmRfZD3JeG4g9a5o1kA0OI7BgJeOL/cAe3h6gVfatuU8/63wwc5G5y1U2xYbqEHdr3TACS92+4yskA2sEx3TGi7B384QHFObpYQSWtZSfZe3sZ+L3CSwPkevNmnwCfrp5kS+7PgLLOOPDe8hgfFjLrH3moSKwPPThgxiL5luyGh91XIC5x7pBtpyBNeMGne4HgSlBIATWBCmy3kIoC8PTRk8YXRxajp/AQgaWp8CcXhdnzpNMT3MFFJxYDhynnEPNsbSgcYY5c4gxJIiAF3HDYXVWD4dXGT+CCQQSp90CLCgS2KjLAug+gWQdbis4RXpZUC3E6qy99hbYkp0TIFAQcBSBJUAqAktGCKe7srJKNXARjGqzDt0lA1kRGHByr7Rq5Im+2YJRGLqfc+H7wYPWOQfk4hgLwGAtgEbEuAQAgipOPRlsJRFM1RlYCDDBH0dkcAshfcleICtHvraCOByYA6NOZBiMZLdwUARIiAxZPgJbwTvHnUxFYAlIZGDRtSdqCJ861JkNDPZRPfTCgekfNk+3tq1omz2pF4kB4zq4l3MlgGUDbKJeMS1wg72n7ZViDwcOHrKmSDqYq8tv+hMIwZiNq0t/BYn6TA4BmABLX7VdZxv5u7KmtKH/yB5klPbKCURKCbQFSIgNGUm1hbDeeikg5RAihWQEaRNh4zwZ2UIILBjCQaAr8Cq7hRkCS7uIJYQtokGbsgtkNpFTZgACy9hgQ4IlJMzzn//8lslDBmdVIIkEfMaqsnTKnmHriS8Cy70cVJiRV9CLIESIsFNkl7oQRmTXtiAQnvCo7cHIYbYiMCQ3mzDW2CXCo84FQ/Bom40ax4gR/VeftioDS8BbGVjmIHirz1wBzz6BRT+yJgSknG/2bD4xNwyeKYKgkr1hLjCmjB0BeI0lfUYYmMfg52mzcS9A4Jx7Ek532kCuuNdYM1/QhQC63hJoXmCXyD64+662EOqz8QIbfUXWGiNkEkiQW2Dg73qqbR5yH0LNPFiXMS7b09wMXxgZN+ZYY4P90EnZvHoRqrCmf/VrR6A++CZVAZayxp+xRv9Id0GVecp8xd7NY9omF3nYtvnCWKltwqVb5AbSwdZENgj7ynbVJ/fXtjvkmf7oA91Yk2QBWGsqcxJxIsvK2Kcfv7VfY46OfUZGRAiCwXxj7GmH3dc2etjAHqkIM0HjfBlYxq123Qs/pJ9xax5zP73IikBSmg8El+ZCeBjrxqW1wnxUmdHqNKaGZWDRlbFg7kGUIXOMWWuSOZ1t6ht90lmtkXRJPgRibZHuE1hkZPuVgWVbLvlssSRvbYs2DswJxrAxxyaQ20VgmZ9rGx4CDDb6WC8uEAjTHXmGrSnGt3XWugcPeBprbNCarm0kLCKXbOZaY8haX1sI+xlYdbZf2YU51GXu8rCEfbM/ZLp1A3bGu3GPVGWr+sxWyGb9H0Zg1RlYxhR7pB991wbbXWh2ygS5jxFlTAhYl/iM9dAWmc22jXdzHBsezMAy15rPzCV9G3IP2+erFFnN1oxVNq++ssnBDCxj1Bxi3rEelq+FJDZfIm/VYRyZN605xq3/rXPGpvnLZU3Tn7nepLg+6JKBNSbDSjVBIAiMFYEQWGOFc2mVWTQ5rRY3GQIIJ4sHR56jJiuEY4dokQ7s8qTFYoUU4vgiVPzY2odgEqx4GipY5dwK0AQCghbElmCSU82RE3Aqq36Ejr8RCb6rJzmcQs49R5VMiAdBm4BCtgbnUQAjIOeUCw4FzYJIGRACa8G5zBYBCAdV8GPxF6ALFn3f3+pnkRYc66dgT1kBvcCa887ptsBzQMmHROBcCxJsK4ChoNN3dXZAaUqwTA51wwo2+sSpF/zri60NMEFgCVZkwHCABR8Cv8qCGSSwtCuYdQ+nRTYEPMhHdsQUmTnfMjGQiLWFSbCL+BJ8IJfIJBhhC3RWhA35ESJshXPCSRLY9x0sQZagUD2yt/oX511wAEN6EqgKWAT8sKJrcgjetc2pImtt9XQ2iqf3Ail1IYwELBwmhAFb1G/Y0q1+Iw9gLmuLI+Z7/RM0kx1Zxk7YFVnYLTKjznKDm0waW170GQFDHo6gJ5wILoGeoNQ5VLWFUMBW22URdzCBGxKGLOQlHx0IgOhToG4caKNITH3lTCKw6BfxI/ASULEVfYMLskDwb6zV2xQdBi34hDU8BI1kUD8nFDFHv+zaWEJqacf4UtZYZNPu5cgiXfSXHGyeDflM8GjsurfeeMYRNmaNN/0VULJ3fYanIJsciAfzCtsmh76o39xjbHKK6UcQqS8IxzoHihNurJMdbnUGlrYFAewZ0Sd7RpDv3v7B52xTAEGXsnPUZW4zH5IP4SFgRjSwT0Q4O/G7nkr7G9FkDqFzwTs7M1aQ1eYufYCl/tN/vfmQbWkflsYpAktAYu7SB/Ou/9k6XMjAblz15jdjkH77h32b22sronlFH+otcsZvka6VlYhkNBbNyXRSb4qke+Nh8A175kekkbFnrma/7Imd0gFbqbeACnwEZfpu65k5qbbnwsUYN9ewS9uxERlwoy/bCI1tc5/5BFbKmJPZv3uMO2sRsrPIavOVNUmARS6kMxyQmmwI7kVgact40U9ysEM6KiKEvfrOOGMT7NV6VW/GVB/Srp9dQz51sVtzgPXDWEMmwcc8p1168T0Z6dU8LxBkz9Yn8w29m1O0Y55FDhqDlYFlfoSVscAGzF3GPXtC9rEP8ljrET3GA53RibGgzXohiqyKIrAEpvXgAHb1YgXrLhtis4Ut+ZC7xrGxol/mZgSWMc1+2Tw53c8m2BDiDJaIfPLQF732t9yydWOMn6L/9GpMycAW3FvT4Uwe9fhh62yZfSGwrCn0RyaEoe/ZLLsy55q/2Zp1uLJvzQHshh0gBfVNv+mLPOY949M6ASf9Qm7RjzWHnPWWYe14iMCWzM90oS1Y55ptBPgz5obKQjTvm5fr3MvKYC2U2D7/2pi25g+SoJVRbA3gn5hvrc18Ig+c2Kqx5G/jg20am+pFYJm7jSXzqfHFb7de89v5Tsadh4x8VPcbk+Yy40h7Lj6msTN4ftcomg6BNQpKKRMEgsBKIxACa6URX097Fopy9CyGLp8JxCxEfnMCOZi1xU4gyxmv7RqcTs62BYsDyNlDvHBOOYqcbgukcoJr3/ux6HGwtc+JK6IIMSDYFfyVM8v5Vb+6OPQIEgEKZ1CgJYDhUPqOA4nwEdgIEizeyiF0kAgW3DpDw/f66ylrf4uMz+rAaUQHp5uzyimt7QucDI4DbARVghlycB448xZ6Tvowkkl/OCywRZZxLARQMOCIk1lfOQQcGcFGYQZ7nwsshz3dIosncIIJwYULvmQXFMCdrskq4Kqn++pFQtTh8vrsfliRj/7q7Ti1NdJvTjr5+gSWgJQOBUr9rVNk0TaSRH2+11/10AE8OVHkEEBqW3kOF1wFcpU5ADvfCc4qS47MdRYSfWtbAKUuutcmnVRmhSAC5uqlfwGaQAX+ytG1Ouhe/8ghm40twp+8ypBBoAJ3gWydjcTJU78gh17YrPvVLwhS3sUxNDbIyO7JixBBKhhLAmo2rE3BfMlRZxTBjy7dY0wZQ/TofsES0rICJTrURzauj8gWOAv69IGjqr8CW+NDUF26MtbYa70llKOrrjqsG4FEP7IgjBtjGxkCb/0iNwKA3nxe2wyMV3IXYQMbbQqqER6CZzjI8iEDLASf8EMGCNrZL/z001wlKNAW3biQfu5FiJW99KdG8iKN4IF0pVt4IBFgKagWSNAjfAXE5kKXsW78Gut0BXfjzf/K0Ln+VUDBHoxPcirn8+qP/tIXkpru2CTbN5cixOGrDdhX20jDwaf0vjMezMMCbHIb62yGzRoX6jbG6dPcoE1ljU/ltClj09wz+BZH+qRvQb2y5gh27R7ymAPZNB3U9m9zhR+2ag6Hi+/Irm3jHsEAP7aj/z4juzHKvmHlczpnn+4nH2KoMDB3K0NP5KTTygSEnb6Sg4zupwt2w86Mbf3ymXka+SqrzJg0duptX2yJTSIJlTE2+yQfmc3xSCxrE3nr7b7GFszMYTBQD5tgX/oOc2OK/MaXflrPBLT6SEc1P9RbeusstMrWkyVoDnRPne+ob/qgTXZpbjJf+SGr8cf+6NA8Q390Wg8szOvkYUd+6MaDD3KyZfO5dbBIHw95fAZrF1x9Zr0wDslqTHuYY94nj7FnrA2O0ZIHcc026AOBx5bJZ7zWOYWw0y6ZfK9965ExBg+6M3cgz8xJbJtuBORsBZbILoE6LJCFbNb/sDeu2LvMdDjAFJ76rRw5yGdNox/rjLnFvCX7zditF04ok2u2ETA/IIz4evwM66Vx4GfYWmU9sDa6hr3lz9pu/vNAwtxiPbGmsnsPBq1FvkPil39uvmD3bNrczIaNh3rYRj5rts+MewSYdbyyhM0fxnaticayhzHqX+gVAmuhiKV8EAgCK4FACKyVQHkBbVgsONv19MetFlHBpd8CBr+LoKjFpR/Q9FOg63Of1TlEJc5gXf6v1Ol+/VVfnSNVxFrVXecs+b9/kLJy9VnJrmydBdJP01Z2UJ4+bIWLMv6u7Tv9vlR79Rknu+rU5mDQ16+//xp1ZWtLXh9ff1d9VZf/B9sdpu56vTkc1D1Idg3WU231y/Xxqe/rPv+XnQz2c1hdg30vXZTd9evw3eD/g30uvQzrlwCm6td3dZXcZcul3+pD2Zh72V9h1rd9dcC1vi8ZywbL1vr2UPUXJu5Xj2DQk00EWb3Gnf0op+3allm23renYXKUjdbYKZLR/67CqezOb23Uq7sLo34f/D2IR38MlRxls7KPONyyOATspcca21W+2q7PCz+yltyD/R7UV/WzcBqcS6q8fiEZZH/BWeA/uOW1dE83yhcRUfIOjn111/hyr++rTjrsz1u+V7YeEFRZ8vdtb1Bv7lNX2UuRlFWf71ylw7nOGdEHQXTZVZXrH47eP6uPHHRediAgH1b3oD0jLgQwHhAgYJAThV9lUJWsNffWWKq3YQqMZAAgXEr/hVuNib4dDMOmxl7phwyFOd2Wfmo8DBtfMCCTOvQDsaT8oI6GzSH9ea6wRCTBcfBsJ98jyQSOAr6SqexP/XSH3CMHEksf+uNEe6Vfcpau+vbW1x88kFICW2Socaq9udbw/twxuO76X9/IhwQnX83T5CRDfxsR7BHF2qLj6gtZKtBWx+AW3/6aK3hHbgvK67zJ8lWqfu3qW2Wu1NxW83b5Bgg9hL37zcP9h02ITzZdpCKZjAvl3YcMqCzkmrdrLmU76qzzf9SFpFBXvdDEPYPzyrB1PJ9NPwLGpDHEJ2CbCPZhW937foVxwH7Y4LD52ZyAyGer5ha2yH7rASDCmA1X9pZx6fI9e635wffGk7GgHWS9C/GvbrIai8aWseHHePOZ77KFcPrtNz0MArOCQAisWdF0+hkEgkBDgIMq04XT6cm9/2VmyOKRiVBvW1srcAlcOceetsqC4NjKbvAUV/aNp7RzBaEr3UdYk80WIdsH++dErbQs09IeTGW8CcI92fdbtqFsqzovaS5CDQZIGyQE0oCdyGCRWSOTxpbTYVkH04Jd+jEcgXogshbwWYys9aBmfeNiLfQ9Mi4fAuO2kfXVN2jDo/yv5337HVb/OPpQD8T6Dw+XD/XUHASCQBAYDYEQWKPhlFJBIAhMCQKeTkr5ty3J9oB6Wmmrnu2DlUmwVrqLwLA1zTYET3E5mggN221kOQ1uKV3tfsmI8LQY9sOyr1ZbvrXWPvu1xcqWl3qi7wl9vWGufxbXsL6xFWcxyQhAYPnfGHDmyuB5emsNm8gbBIJAEAgCi0cgBNbiscudQSAILB8CIbCWD9vUHASCwAQiwCGTgeUcFmd++d+ZUzKvkCpr7aoMLOfH6I/L1hjnyNQWg7XWp8g7OgL0j3RypputUf53BpQMqsED8ofVKhNR1pWznWxPkYmF/HLeyvq2XY8uYUoGgSAQBILAWkQgBNZa1FpkDgLTj0AIrOnXcXoYBILAAAJ1Xk6l2NdZbWsVqDoDqX/G1mLOu1ir/Z91ucue62y5hb4yvc5cUk//3MJZxzX9DwJBIAjMMgIhsGZZ++l7EJhcBEJgTa5uIlkQCAJBIAgEgSAQBIJAEAgCQWDFEQiBteKQp8EgEARGQCAE1gggpUgQCAJBIAgEgSAQBIJAEAgCQWBWEAiBNSuaTj+DwNpCIATW2tJXpA0CC0bAW8nq1eILvjk3zInAsDcFKVxvBhrl7VhV1tavSX8jVr8/ZJ2rf6O++WjUcrNogqNgU2X6+KzP9kaxx1nEOn0OAiuFgO25XpSQs+VWCvG0s1QEQmAtFcHcHwSCwHIgEAJrOVBNnUFgQhBAXJ1yyintJwHs+JVSZ08JSPrkwTCs6zPl6qyi/hlck0hgDXNeyd4n3AaJlArO6t65UFduvjLj19jaqLEwLDsZJnW91rzsalBXfWyVVaf6hhFfawOVSBkE1i4Cxp63hHrbrZeFTOJ8v3bRjeTLhUAIrOVCNvUGgSCwFARCYC0FvdwbBCYcgX//+9/dUUcd1R1//PHtrWIOd04AOx6lCUD+9a9/dX/+85+7TTfdtLvYxS7WKv7HP/7R3ua28cYbd//85z8b3sgDn1/qUpfqNtxww86b3wQ0Z555Znfxi1+8vfmtsprGI914amE/f//735vcG220UZOZ7H/5y1+6i170op3Dv2FQsuur4Eyf4OL+wWwDZWQheEMenP72t781YRPQdc1WjNHNN9+8YQPnwey8Gr+XuMQlmk7OOuusZmtwZE8bbLBBd9nLXrbhf/bZZ7c6fU8vZ5xxxjp9jcdCUksQCAKjIFDz/x577NFtueWWme9GAS1lVh2BUbKBV13ICBAEgsDMIRACa+ZUng7PEgIIhCOOOKL705/+1O25554t4A2BtXQLKLIFgYNAQObUW/9kvSEdEAn1VkAt+txnCB3kBD34jcxx/yQRWP3+kZHc1T+kiB//62e/j/qJoPOdMoPfFfIwUKf71Z/r/xCAfZGFRUANw4fdwBnGMIejH9iyJ3ZZGVywVsZ8MJdOooMgEASWD4HTTz+9O+GEE7qddtqp22qrrbKNcPmgTs1BIAgEgSAw5QiEwJpyBad7s42AgPXII49sWTN77bXXuiyh2UYlvQ8CQSAIBIEgsHII/PrXv+6+//3vdze60Y26q1/96iGwVg76tBQEgkAQCAJThkAIrClTaLoTBPoIhMCKPQSBIBAEgkAQWF0EfvWrXzUCa9tttw2BtbqqSOtBIAgEgSCwxhEIgbXGFRjxg8D6EAiBFfsIAkEgCASBILC6CITAWl3803oQCAJBIAhMDwIhsKZHl+lJELgAAiGwYhRBIAgEgSAQBFYXgRBYq4t/Wl88AnmD9eKxy51BIAgsDwIhsJYH19QaBCYCgdUisJby6uW89WYiTCdCBIEgEASCwJgQCIE1JiBTzYojEAJrxSFPg0EgCMyDQAismEgQmGIERiWw5nJQhn0+CsHk0PiTTjqp23zzzbsrXelKIx9Y61XjDrvdeOONuy222GLdm++mWEXpWhAIAkEgCEw5AiGwplzBU9y9EFhTrNx0LQisUQRCYK1RxUXsIDAKAvMRWByTv/zlL90vfvGL7spXvnIjjS50oQt155xzTnfqqad2v/vd77qrXvWq60gonyOm/N566627i1/84kPFUN/b3/6d+96OAAAgAElEQVT29salu93tbt1FL3rRUcTtfvOb33Qf/OAHuyte8Yrd3e9+9+4Sl7jESPelUBAIAkEgCASBSUUgbyGcVM1ErvkQCIE1H0L5PggEgZVGIATWSiOe9oLACiLwr3/9qzvyyCO7P//5z93ee+/dXepSlzpf6+edd173k5/8pPv0pz/d7bDDDt1tbnObRjb98Y9/7D7xiU90xx57bLfLLrt097jHPbqNNtqo+9vf/tZ9/OMfb8TWfe5zn27LLbdshNfgdfLJJ3eve93rum222abbb7/9uotd7GIj9ZqT//rXv7679KUv3T3qUY/qNtlkk5HuS6EgEASCQBAIApOEQD/wP/HEE9tbCHfcccduq622GjkreZL6E1lmE4EQWLOp9/Q6CEwyAiGwJlk7kS0ILBGBf/7zn43AkhF1l7vcpbvGNa5xvhr/85//dL/85S+7D33oQ400uv/9799tttlmbRvfu971rvbd9a53ve6ggw7qNt1005Yh9ZGPfKRlYN33vvftrna1q81JYCGiEFj77rvvggisN7zhDesIrMtc5jJLRCC3B4EgEASCQBBYWQSsreeee27bBo8A+M53vtN997vf7W5/+9t317nOddq66fMLX/jCKytYWgsCC0QgBNYCAUvxIBAElh2BEFjLDnEaCAKrhwAH+phjjum+/vWvd7e85S277bff/gLCILmQUqeddlr3gAc8oG3fs03QVj5E1YYbbthIKGSVczwOOeSQ9jeyyxa/M888s3N2lcwtGVMcduUOPvjg7prXvGbbCigTzHZDhJTvXRx8mWHady/i7E9/+lOrX7sPfehDOxlig/e51/e2Pp599tntvCxyCASUlyW2wQYbtDbU57t+u6unjbQcBIJAEAgCs4CA9c36dJGLXKStS1/84he7H//4x23dvMpVrtIgCIE1C5aw9vsYAmvt6zA9CALThkAIrGnTaPoTBP4XgXI6TjjhhO7www/vbnazm3XbbbfdBfDhaB999NGtDALL2VY/+tGPuo9+9KPdtttu29kOuNtuu7WthMcdd1z31re+tf291157tcwuWwoRVpe85CW7W93qVt3uu+/eiCnlEFvO1bIlkSN/5zvfubvJTW7SHHpPoz/3uc91Z5xxRiOvDjzwwFb2fe97X/fDH/6wPaU+5ZRTGil2xzvesdt5550bMYWUOvTQQ9sTbfU4KN7Wx5122qn7+9//3up0iDxirO731PumN73pyGdxxYiCQBAIAkEgCCwWgUECSyb08ccf3+2///7dZS972UZehcBaLLq5byURCIG1kminrSAQBEZBIATWKCilTBBYgwiU04F0OuKII7qb3/zmQwksXbNV0JY/B64r941vfKP7zGc+093rXvfqvvrVrzaHe5999um+/e1vt89rO+Lb3va2RiIhm/7whz90zvl4+MMf3jKeXvGKV7SzspBHiCnnf8jEOuCAA1oW1pve9KZW7trXvnbbYoiAku1l6+KXvvSl7ha3uEXb8oiA8yTbk2uZX5/97Gfb99e//vUbeYVEO/3001vGljO+Xv7yl7etju73BkT3I73Ij5AbdmbXGlRvRA4CQSAIBIEJRWAYgWUtRmBZt0JgTajiItYFEAiBFaMIAkFg0hAIgTVpGok8QWBMCCyEwJIx9cY3vrEd5C7b6gtf+ELLqkIaIYxkMz3kIQ/pPvaxjzVy6IEPfGDLknL4u7OwZEf99re/7V74whd2d7rTnRpR5BB3WVmPfOQj2/lZiKQ3v/nNrQ3EFAJL/be73e0aqWQLoG2B3l7oSfUTnvCE7lrXulY7ZP4DH/hAd+tb37plfr3yla9sb0y0rdHWQ+d1vfa1r2313PCGN2zt2naISBMoCBqcq7Xrrrt297vf/VomWK4gEASCQBAIAsuFwKgElrUvD1WWSwupdxwIhMAaB4qpIwgEgXEiEAJrnGimriAwQQgshMCy1c/WPY60jCnbBy93uct197znPbsvf/nLbUuhJ8fOykI0PexhD+ve/e53tzM9bO+7/OUv387C8uZC514hsd773veuOytLhhUS7FWvelV31llnNbLp/e9/f7uv3maIdJIpJQPLlsMnPelJbWsh4uud73xn23roDU7qQGbtueeeDW3bBd/ylre0s65ue9vbtn7UGV3ata1QNhg8Hve4x+XNhhNkoxElCASBIDCNCKxvC6EHOn3SKgTWNFrA9PQpBNb06DI9CQLTgkAIrGnRZPoRBAYQWAiBZYueTCtbB2VUfeUrX2lkkXOzvvWtb7XvnCElM8oZWcgjZ1zZmujQd5lQDlb/97//3bKknEmFSNpyyy1bfYgkxNVrXvOaRk7JypI55VwQBJOMrT322KORY4ivv/71r41s4uj//Oc/b59pHzElc8sWRsSZy/3veMc7WvuIM29UVG6wXeQYUgwxlysIBIEgEASCwHIhMB+BZa2zRrtCYC2XFlLvOBAIgTUOFFNHEAgC40QgBNY40UxdQWCCEFgIgeUcK28qtFXPGVjIJRlXyKkf/OAHbaug7YCccllO22yzTSONHJK+9957t0wp3znbyqHrMrpkRV396ldvW/0QWMgt2VMytZ785Ce3twc6NwtZ5lwt7SKmtCWr6hGPeESrq09gOffKGVcyuLzd0OWtg8g0bSO19AFxZrvgRhtt1GR59atf3YKFxz72sd2lL33pCdJSRAkCQSAIBIFpQyAE1rRpdHb7EwJrdnWfngeBSUUgBNakaiZyBYElIrAQAktTDnJ/2cte1jKarnrVq7YzqGRAnXrqqe3sK2/9k9l00EEHNWLq85//fCO9EF2IJU+ROe2eLJ922mlt2577ZVI5XF09zqraaqutWh2yttzjAPYXv/jFbYvh4x//+Pa6cdlSyKbKwHrPe97TMruQXC95yUtae87PQlq5H6nlDYsyxpBZiC9ndjkk3iHviLMb3/jGTdacgbVEw8rtQSAIBIEgsF4EQmDFQKYFgRBY06LJ9CMITA8CIbCmR5fpSRA4HwKDBJZDzJE4c1229tnid/TRR7c39u23334tc8qbA2U1IZ/ufe97d49+9KNbFhPC6+CDD26ZWTKfNthgg85h8Ntvv30joxBYyDDnaMnkOuqoo7qTTjqpvYXQ2wG9sdC5V7KtnK11gxvcoNXzqU99qt3nEHYE1s9+9rN2LhYC6w53uEOHzHIwu7Lejnjsscd23/ve91qm11WucpVGVjlQXmbY9a53vfb2w2OOOaZtKVRHtmtkoASBIBAEgsByIjBIYNlu7zxHD1Gsa9lCuJzop+5xIhACa5xopq4gEATGgUAIrHGgmDqCwAQiUE6Hc6s4z8602mmnnZrjPOxCVHn7oAwoZJCyMpxsL7TND4lli59zppBVzs1yZtZhhx3WturVa8G9oRDxdeihh3ZnnHFGI6N8jyBDornfGw6RVrYVasMB7MgxmVqHH354O8/KFkH/y6BCannDoMPbbVt0yLzMqyLYfL777rs3As2bDmVwySJTt/adn+Vcrg033HACNRWRgkAQCAJBYJoQKALLWnnuuee2de3kk09ua2sRWNPU3/RlehEIgTW9uk3PgsBaRSAE1lrVXOQOAiMiMCqBpTrnRSGXrnCFK7Ttd5WtJKNKVhNCySHo9TlySwaVM7Mc0u4+Py6fI5Cqzi222KJlSHHoEVTq+/3vf99IJdsK1c3RR3q5T3aV39r+3e9+17K+Nt9880aUIaVkgCHdqk31kuOQQw5p9Xmbom2L1W62Do5oMCkWBIJAEAgCS0IAgWWdq/WuCCyZzYNvIVxSQ7k5CCwzAiGwlhngVB8EgsCCEQiBtWDIckMQWFsILITA0jOON4JqcKvd+t6YhMjy/TCSyOe+l/nVz/6qz7WDqKprWDvDZPJZHRxfsiKwnIF1jWtco20ZFDwMtru2tBdpg0AQCAJBYK0hEAJrrWks8s6FQAis2EYQCAKThkAIrEnTSOQJAmNGYKEE1pibX9HqZI85l2vrrbde9/bDFRUgjQWBIBAEgsDMIxACa+ZNYGoACIE1NapMR4LA1CAQAmtqVJmOBIHzIzB4BtYOO+zQ7bzzznOegTUN+Nl+aKuGbYO77bZbzryaBqWmD0EgCASBNYZACKw1prCIOycCIbBiHEEgCEwaAiGwJk0jkScIjAmBcjq87c8h7t4OOO0EljNHzjzzzLZ10JlZeePgmIwp1QSBIBAEgsDICAwjsLyQpA5xz9o0MpQpuIoI1Mt5hh0rsYpipekgEARmHIEQWDNuAOn+9CJQBNZJJ53UCKzttttu6gks2szTwum16fQsCASBILAWEBgksKzB/bcQhsBaC1qMjCGwYgNBIAhMIgIhsCZRK5EpCIwBgVklsMYAXaoIAkEgCASBILBoBEJgLRq63DhBCITAmiBlRJQgEATWIRACK8YQBKYUgRBYU6rYdCsIBIEgEAQmGoEQWBOtngg3IgIhsEYEKsWCQBBYUQRCYK0o3GksCKwcArN4BtbKoZuWgkAQCAJBIAgMR2B9BNYmm2yy7mUq2fIeC5pkBEJgTbJ2IlsQmF0EQmDNru7T8ylHYBbfQjjlKk33gkAQCAJBYA0gMBeBtc8++3SbbrppI7Cs0a6ch7UGFDrDIoZknWHlp+tBYEIRCIE1oYqJWEFgqQgMElg77rhjt9NOO6178rvU+nN/EAgCQSAIBIEgcEEEQmDFKqYFgRBY06LJ9CMITA8CIbCmR5fpSRA4HwIhsGIQQSAIBIEgEARWHoEQWCuPeVpcHgRCYC0Prqk1CASBxSMQAmvx2OXOIDDRCITAmmj1RLggEASCQBCYUgRCYE2pYmewWyGwZlDp6XIQmHAEQmBNuIIiXhBYLAJ9AuvII4/sdthhh2whXCyYuS8IBIEgEASCwIgIILDOPvvsboMNNujOPffc7ogjjuhOPPHEbr/99ssZWCNimGKTgUAIrMnQQ6QIAkHg/xAIgRVrCAJTikA5HSeddFKHwNpuu+1CYE2prtOtIBAEgkAQmBwEEFhnnXVWt+GGG3bnnXded9hhh3XHH398d+CBB4bAmhw1RZIREAiBNQJIKRIEgsCKIhACa0XhTmNBYOUROPnkk9vT3xBYK499WgwCQSAIBIHZQ2CQwDr88MO74447rjvggAO6zTbbLG8hnD2TWLM9DoG1ZlUXwYPA1CIQAmtqVZuOBYH/H4EQWLGEIBAEgkAQCAIrh0AIrJXDOi0tLwIhsJYX39QeBILAwhEIgbVwzHJHEFhTCITAWlPqirBBIAgEgSCwxhEIgbXGFRjx1yEQAivGEASCwKQhEAJr0jQSeYLAmBDIGVhjAjLVBIEgEASCQBBYAAJFYDnE3RlYthCecMIJbQvhpptumi2EC8AyRVcXgRBYq4t/Wg8CQeCCCITAilUEgSlFoE9gOQNr++23zyHuU6rrdCsIBIEgEAQmB4HBtxAisLxQJW8hnBwdRZLREAiBNRpOKRUEgsDKIRACa+WwTktBYEURCIG1onCnsSAQBIJAEAgCDQEE1jnnnNPJwPIbgWU7/7777psMrNjImkIgBNaaUleEDQIzgUAIrJlQczo5iwiEwJpFrafPQSAIBIEgsNoIhMBabQ2k/XEhEAJrXEimniAQBMaFQAiscSGZeoLAhCFQTseJJ57YHXnkkdlCOGH6iThBIAgEgSAwnQiEwJpOvc5ir0JgzaLW0+cgMNkIhMCabP1EuiCwaATK6XBwLAJrxx137HbYYYd2eGyuIBAEgkAQCAJBYHkQyBlYy4Nral15BEJgrTzmaTEIBIH1IxACKxYSBKYUgXI6jjvuuEZg7brrrt12223XXehCF5rSHqdbQSAIBIEgEARWH4EisC5ykYu0txBag48//vhu//33zxlYq6+eSLAABEJgLQCsFA0CQWBFEAiBtSIwp5EgsPII9AksbyG8+c1v3gisXEEgCASBIBAEgsDyIRACa/mwTc0ri0AIrJXFO60FgSAwPwIhsObHKCWCwJpEIATWmlRbhA4CQSAIBIE1jkAIrDWuwIi/DoEQWDGGIBAEJg2BEFiTppHIEwTGhEAIrDEBmWqCQBAIAkEgCCwAgRBYCwArRScagRBYE62eCBcEZhKBEFgzqfZ0ehYQKKfDuRu2EO6yyy7djW9845yBNQvKTx+DQBAIAkFg1RAYPMTdGuyNwM7A2mSTTda9TCXkwKqpKA2PiAAbdeX81BEBS7EgEASWHYEQWMsOcRoIAquDQDnGJ510UjtA1vlXO+20U95CuDrqSKtBIAgEgSAwIwggsM4555zOIe7nnntue4h08sknd/vuu287xD1kwIwYwhR0MwTWFCgxXQgCU4ZACKwpU2i6EwQKgT6BxXnefvvtQ2DFPIJAEAgCQSAILDMCRWBtsMEGjcgKgbXMgKf6ZUMgBNayQZuKg0AQWCQCIbAWCVxuCwKTjkAIrEnXUOQLAkEgCASBaUQgBNY0anU2+xQCazb1nl4HgUlGIATWJGsnsgWBJSAQAmsJ4OXWIBAEgkAQCAKLRCAE1iKBy20Th0AIrIlTSQQKAjOPQAismTeBADCtCITAmlbNpl9BIAgEgSAwyQgMO8T9hBNOaIe4b7bZZutEz1lYk6zFyAaBEFixgyAQBCYNgRBYk6aRyBMExoRACKwxAZlqgkAQCAJBIAgsAAEE1llnndVtuOGG3Xnnndcdfvjh3c9//vPuwAMP7DbffPNGCvi58IUvvIBaUzQIrDwCeVPm/8fefUDJceT3AS4sghwlHUjAcrYoH4/kHUmAvgNA0qROzjlHSUcABCg55xyfc84555wtG2nBk5xztgCQBxDE8SzJkmVLtiURWEDP79dWQ4PhLHZmdrqnwzfv4ZHEdldXff+a3e0fq2vaN3dFAgQeLiDAMkMIDFRAgDXQwhoWAQIECHRaQIDV6fLo3AICAqwFsBxKgEArAgKsVphdhED7AgKs9s1dkQABAgQICLDMgaEICLCGUknjIDAcAQHWcGppJAQeEBBgmRAECBAgQKB9AQFW++au2IyAAKsZV60SILC8gABreTtnEui0gACr0+XROQIECBAYqMDkJu72wBpokUcyLAHWSAptmAR6JCDA6lGxdJXAIgICrEW0HEuAAAECBFYjUAdY+/btqzZx39zcLNeuXas+hdAm7qsx1ko7AgKsdpxdhQCB+QUEWPNbOZJArwQEWL0ql84SIECAwEAEBFgDKaRhVJ+WuWfPHhIECBDojIAAqzOl0BECqxUQYK3WU2sECBAgQGAeAQHWPEqO6YOAAKsPVdJHAuMSEGCNq95GO0KB69evl0uXLpXnnnuuHDt2rGxsbIxQwZAJECBAgEA7AgKsdpxdpXkBAVbzxq5AgMBiAgKsxbwcTaB3Ap/4xCfK5cuXy9GjR8tHPvKRsnfv3t6NQYcJECBAgEBfBBJg3b17t/ofRtkDK/8T6cqVK+XVV1+1B1ZfiqiflYAAy0QgQKBrAgKsrlVEfwisWCAB1sc//vFy5MiR8uEPf1iAtWJfzREgQIAAgUmB3PQnwMreQfWnEH75l395OXPmTDl8+HAVCuSPFdHmTdcFBFhdr5D+ERifgABrfDU34pEJCLBGVnDDJUCAAIG1CuSmP8FVXvnnhQsXqhVYAqy1lsXFlxAQYC2B5hQCBBoVEGA1yqtxAusXEGCtvwZ6QIAAAQLjERBgjafWQx+pAGvoFTY+Av0TEGD1r2Z6TGAhAQHWQlwOJkCAAAECuxKYDLDyKOHFixdLHiE8e/asRwh3JevktgUEWG2Lux4BAjsJCLB2EvJ1Aj0VyC8ded24caPaxP3ZZ58tx48ft+dGT+up2wQIECDQH4H6EcIEWOfPny9vvvlmOX36tE3c+1NCPbWJuzlAgEAHBQRYHSyKLhFYhUA+BSmvmzdvVp+AlE3cT5w4UW0q60WAAAECBAg0J1D/DN7a2qr2wLp+/Xo5efJkefTRR23i3hy7llcsYAXWikE1R4DArgUEWLsm1ACBbgoIsLpZF70iQIAAgeELCLCGX+MxjFCANYYqGyOBfgkIsPpVL70lMLeAAGtuKgcSIECAAIGVCgiwVsqpsTUJCLDWBO+yBAhsKyDAMjkIDFRAgDXQwhoWAQIECHReQIDV+RLp4BwCAqw5kBxCgECrAgKsVrldjEB7ApObuG9ublZ7YNnEvT1/VyJAgACBcQrk528CrOw5mT2w8imEb7zxRjl16pRN3Mc5JXo7agFWb0un4wQGKyDAGmxpDWzsAvUvHdk4Npu4P/fcc+XYsWM+hXDsE8P4CRAgQKBRgXr11WSAde3aNQFWo+oab0JAgNWEqjYJENiNgABrN3rOJdBhAQFWh4ujawQIECAwWIE6wNrY2Ch37typ/ifS1atXBViDrfhwBybAGm5tjYxAXwUEWH2tnH4T2EFAgGWKECBAgACB9gUEWO2bu2IzAgKsZly1SoDA8gICrOXtnEmg0wICrE6XR+cIECBAYKACCbDyM3jv3r1WYA20xmMZlgBrLJU2TgL9ERBg9adWekpgIYHJACubuB89etQeWAsJOpgAAQIECCwukADr7t27VYB179696hHC7IF18uTJ8uijjz7QYPbJ8iLQVQEBVlcro18ExisgwBpv7Y18JAI3btyofnkWYI2k4IZJgAABAmsVSICVva/27dtXBVj5n0j5FMIEWAcPHqw+TKX+pGAB1lpL5eI7CAiwTBECBLomIMDqWkX0h8CKBQRYKwbVHAECBAgQeIiAAMv0GIqAAGsolTQOAsMREGANp5ZGQmCmgADLxCBAgAABAu0JCLDas3alZgUEWM36ap0AgcUFBFiLmzmDQK8Erl+/Xj2+4BHCXpVNZwkQIECgpwI7BViTjw16hLCnRR5JtwVYIym0YRLokYAAq0fF0lUCiwhMfwphAqzjx49Xe294ESBAgAABAs0IzAqwZm3iLrxqxl+rqxMQYK3OUksECKxGQIC1GketEOicgACrcyXRIQIECBAYgcDDAqxDhw5VG7jnj/+hNILJ0PMhCrB6XkDdJzBAAQHWAItqSAQiIMAyDwgQIECAQPsCAqz2zV2xGQEBVjOuWiVAYHkBAdbyds4k0GkBAVany6NzBAgQIDBQAQHWQAs7wmEJsEZYdEMm0HEBAVbHC6R7BJYVEGAtK+c8AgQIECCwvIAAa3k7Z3ZLQIDVrXroDQECpQiwzAICAxUQYA20sIZFgAABAp0WEGB1ujw6t4CAAGsBLIcSINCKgACrFWYXIdC+gACrfXNXJECAAAECAixzYCgCAqyhVNI4CAxHQIA1nFoaCYEHBARYJgQBAgQIEGhfQIDVvrkrNiMgwGrGVasECCwvIMBa3s6ZBDotIMDqdHl0jgABAgQGKiDAGmhhRzgsAdYIi27IBDouIMDqeIF0j8CyAvmlI68bN26US5culaNHj5bjx4+XjY2NZZt0HgECBAgQILCDgADLFBmKgABrKJU0DgLDERBgDaeWRkLgAYH8Ap3XW2+9VTY3N8uzzz5bTpw4IcAyTwgQIECAQIMCYwuw6v9hNk26Z8+eBpU13YaAAKsNZdcgQGARAQHWIlqOJdAjgTrAunnzZrUC68iRI1WA5RfKHhVRVwkQIECgdwICrP9fMr9v9G7qvqfDAqz+19AICAxNQIA1tIoaD4FvERBgmQoECBAgQKB9AQGWAKv9WdfMFQVYzbhqlQCB5QUEWMvbOZNApwUEWJ0uj84RIECAwEAFBFgCrKFMbQHWUCppHASGIyDAGk4tjYTAAwLTAZY9sEwQAgQIECDQvIAAS4DV/Cxr5woCrHacXYUAgfkFBFjzWzmSQK8EfAphr8qlswQIDFzARtcDL/DE8MYWYI2nsuMbqQBrfDU3YgJdFxBgdb1C+kdgSYH6l47r169Xm7g/99xz5dixYz6FcElPpxEgQGA3AgKs3ej161wBVr/qpbfbCwiwzA4CBLomIMDqWkX0h8CKBARYK4LUDAECBFYgIMBaAWJPmhBg9aRQurmjgABrRyIHECDQsoAAq2VwlyPQloAAqy1p1yFAgMDOAgKsnY2GcoQAayiVNA4BljlAgEDXBARYXauI/hBYkYAAa0WQmiFAgMAKBARYK0DsSRMCrJ4USjd3FBBg7UjkAAIEWhYQYLUM7nIE2hIQYLUl7ToECBAgQOBbBQRYZgMBAgQIEGhGQIDVjKtWCaxdQIC19hLoAAECBAiMUECANcKiGzIBAgQItCIgwGqF2UUItC8gwGrf3BUJECBAgIAAyxwgQIAAAQLNCAiwmnHVKoG1Cwiw1l4CHSBAgACBEQoIsEZYdEMmQIAAgVYEBFitMLsIgfYFBFjtm7siAQIECBAQYJkDBAgQIECgGQEBVjOuWiWwdoHpAOvo0aPl+PHjZWNjY+190wECBAgQIDBUAQHWUCs7vnH5FMLx1dyICXRdQIDV9QrpH4ElBQRYS8I5jQABAgQI7EJAgLULPKd2SkCA1aly6AwBAqUUAZZpQGCgAgKsgRbWsAgQIECg0wICrE6XR+cWEBBgLYDlUAIEWhEQYLXC7CIE2hcQYLVv7ooECBAgQECAZQ4MRUCANZRKGgeB4QgIsIZTSyMh8ICAAMuEIECAAAEC7QsIsNo3d8VmBARYzbhqlQCB5QUEWMvbOZNApwV8CmGny6NzBAgQIDBQAQHWQAs7wmEJsEZYdEMm0HEBAVbHC6R7BJYVEGAtK+c8AgQIECCwvIAAa3k7Z3ZLQIDVrXroDQECNnE3BwgMVkCANdjSGhgBAgQIdFhAgNXh4ujaQgICrIW4HEyAQAsCVmC1gOwSBNYhIMBah7prEiBAgMDYBQRYY58Bwxm/AGs4tTQSAkMREGANpZLGQWBKQIBlShAgQIAAgfYFBFjtm7tiMwICrGZctUqAwPICAqzl7ZxJoNMCAqxOl0fnCBAgQGCgAgKsgRZ2hMMSYI2w6IZMoOMCAqyOF0j3CCwrIMBaVs55BAgQIEBgeYGjZOkAACAASURBVAEB1vJ2zuyWgACrW/XQGwIEbOJuDhAYrIAAa7ClNTACBAgQ6LCAAKvDxdG1hQQEWAtxOZgAgRYErMBqAdklCKxDQIC1DnXXJECAAIGxCwiwxj4DhjN+AdZwamkkBIYiIMAaSiWNg8CUgADLlCBAgAABAu0L1AHW/v37y71798qlS5fKtWvXysmTJ8uhQ4dKfj7nz8bGRvudc0UCCwgIsBbAcigBAq0ICLBaYXYRAu0LCLDaN3dFAgQIECCQAOv27dvlwIEDVYB18eLFcvXq1XL69GkBlulBgAABAgR2ISDA2gWeUwl0WUCA1eXq6BsBAgQIDFVAgDXUyhoXAQIECKxbQIC17gq4PoGGBARYDcFqlgABAgQIPERAgGV6ECBAgACBZgQEWM24apXA2gUEWGsvgQ4QIECAwAgFBFgjLLohEyBAgEArAgKsVphdhED7AgKs9s1dkQABAgQIzAqwson7qVOn7IFlevRKwCbuvSqXzhIYhYAAaxRlNsgxCkwHWEePHi3Hjx/3qUdjnAzGTIAAAQKtCdSfQrhv375qE/fNzU2fQtiavgutSqD+tMw9e/aU/PEiQIBAFwQEWF2ogj4QaEBAgNUAqiYJECBAgMAOAgIsU2QIAgKsIVTRGAgMT0CANbyaGhGBSkCAZSIQIECAAIH2BQRY7Zu74uoFBFirN9UiAQK7FxBg7d5QCwQ6KVAHWJ/4xCeqxxc8QtjJMukUAQIECAxMQIA1sIKOdDgCrJEW3rAJdFxAgNXxAukegWUFJgOsS5culeeee84eWMtiOo8AAQIECMwpMB1g5WfwG2+8UU6ePGkT9zkNHbZ+AQHW+mugBwQIvFdAgGVWEBiowHSAlRVYJ06csIn7QOttWAQIECDQDYFZAZZPIexGbfRifgEB1vxWjiRAoD0BAVZ71q5EoFUBAVar3C5GgAABAgQqAQGWiTAEAQHWEKpoDASGJyDAGl5NjYhAJSDAMhEIECBAgED7AgKs9s1dcfUCAqzVm2qRAIHdCwiwdm+oBQKdFBBgdbIsOkWAAAECAxcQYA28wCMZngBrJIU2TAI9ExBg9axguktgXgGbuM8r5TgCBAgQILA6AQHW6iy1tD4BAdb67F2ZAIHtBQRYZgeBgQrUAdb169dL/SmEx44ds4n7QOttWAQIECDQDYHpAGtzc7NkE3efQtiN+ujF/AL175Lzn+FIAgQINCsgwGrWV+sE1iYgwFobvQsTIECAwIgFBFgjLv7Ahi7AGlhBDYfAAAQEWAMooiEQmCUgwDIvCBAgQIBA+wICrPbNXbEZAQFWM65aJUBgeQEB1vJ2ziTQaQEBVqfLo3MECBAgMFABAdZACzvCYQmwRlh0QybQcQEBVscLpHsElhUQYC0r5zwCBAgQILC8QAKs27dvl/3795d79+5V+1BmD6xTp06VQ4cOlXpz7I2NjeUv4kwCLQgIsFpAdgkCBBYSEGAtxOVgAv0RmA6wjh49Wo4fP24T9/6UUE8JECBAoIcCdYB14MCBKsC6ePFiuXr1ajl9+rQAq4f1HGuXfQrhWCtv3AS6LSDA6nZ99I7A0gICrKXpnEiAAAECBJYWEGAtTefEDgkIsDpUDF0hQOC+gADLZCAwUAEB1kALa1gECBAg0GkBAVany6NzcwoIsOaEchgBAq0KCLBa5XYxAu0JCLDas3YlAgQIECBQCwiwzIUhCAiwhlBFYyAwPAEB1vBqakQEKgEBlolAgAABAgTaFxBgtW/uiqsXEGCt3lSLBAjsXkCAtXtDLRDopIBPIexkWXSKAAECBAYuIMAaeIFHNDyfQjiiYhsqgZ4ICLB6UijdJLCogABrUTHHEyBAgACB3QsIsHZvqIVuCAiwulEHvSBA4FsFBFhmA4GBCgiwBlpYwyJAgACBTgsIsDpdHp1bQECAtQCWQwkQaEVAgNUKs4sQaF9AgNW+uSsSIECAAAEBljkwFAEB1lAqaRwEhiMgwBpOLY2EwAMCAiwTggABAgQItC8wK8C6du1aOXXqVDl06FD1ISv5s7Gx0X7nXJHAAgICrAWwHEqAQCsCAqxWmF2EQPsCAqz2zV2RAAECBAgkwLpz507Zt29fuXfvXtnc3CwJsE6ePCnAMj16JSDA6lW5dJbAKAQEWKMos0GOUUCANcaqGzMBAgQIrFtAgLXuCrj+qgQEWKuS1A4BAqsSEGCtSlI7BDomIMDqWEF0hwABAgRGISDAGkWZRzFIAdYoymyQBHolIMDqVbl0lsD8AgKs+a0cSYAAAQIEViVQB1j79++vHiG8dOmSRwhXhaudVgUEWK1yuxgBAnMICLDmQHIIgT4K5JeOvG7cuFH98nz06NFy/Phxm8b2sZj6TIAAAQK9EbCJe29KpaM7CAiwTBECBLomIMDqWkX0h8CKBPILdF43b96sAqwjR46UEydOlD179qzoCpohQIAAAQIEpgVmBVhXr14tp0+ftom76dIrAQFWr8qlswRGISDAGkWZDXKMAgKsMVbdmAkQIEBg3QICrHVXwPVXJSDAWpWkdggQWJWAAGtVktoh0DEBAVbHCqI7BAgQIDAKAQHWKMo8ikEKsEZRZoMk0CsBAVavyqWzBOYXEGDNb+VIAgQIECCwKgEB1qoktbNuAQHWuivg+gQITAsIsMwJAh0XqDdjn+zmPPtYCbA6XljdI0CAAIFBCuTn79bWVtm7d2/1KYQXL14sV65cKWfOnLEH1iArPtxBCbCGW1sjI9BXAQFWXyun36MQmBVe1QPfKcQSYI1iihgkAQIECHRMID+77969W31oSgKsCxcu3A+wDh8+XPL1/NnY2OhYz3WHwIMCAiwzggCBrgkIsLpWEf0hMCEgwDIdCBAgQIBAvwTyszvBVV4CrH7VTm8FWOYAAQLdFhBgdbs+ejdyAQHWyCeA4RMgQIBA7wQEWL0rmQ5vI2AFlqlBgEDXBARYXauI/hCYEBBgmQ4ECBAgQKBfAh4h7Fe99HZ7AQGW2UGAQNcEBFhdq4j+EJgSsIm7KUGAAAECBPojkD0oswdW9rjKP8+fP1+uXr1azp49W+yB1Z866mmp9mrbac9VTgQIEGhTQIDVprZrEWhRwCbuLWK7FAECBAgQ+BaB+lMI9+3bdz/AyqcQCrBMkb4JCLD6VjH9JTB8AQHW8GtshCMVEGCNtPCGTYAAAQJrFagDrP3795etra1qBZYAa60lcfElBQRYS8I5jQCBxgQEWI3RapjAegUEWOv1d3UCBAgQGKeAAGucdR/iqAVYQ6yqMRHot4AAq9/103sC2woIsEwOAgQIECDQvoAAq31zV2xGQIDVjKtWCRBYXkCAtbydMwl0WqAOsN56662yublZjhw5Uo4fP15tKutFgAABAgQINCMgwGrGVavtCwiw2jd3RQIEHi4gwDJDCAxUoP6l4/r16+XSpUvl6NGjAqyB1tqwCBAgQKA7AgKs7tRCT3YnIMDanZ+zCRBYvYAAa/WmWiTQCQEBVifKoBMECBAgMDIBAdbICj7g4QqwBlxcQyPQUwEBVk8Lp9sEdhIQYO0k5OsECBAgQGD1AgKs1ZtqcT0CAqz1uLsqAQLbCwiwzA4CAxXILx153bhxwyOEA62xYREgQIBA9wQEWN2riR4tJyDAWs7NWQQINCcgwGrOVssE1ipgE/e18rs4AQIECIxUQIA10sIPcNgCrAEW1ZAI9FxAgNXzAuo+ge0E6gDr5s2b1QqsfArhiRMnyp49e6ARIECAAAECDQlMBlh3794t586dK1evXi1nz54thw4dKgkF8senAjdUAM2uTECAtTJKDREgsCIBAdaKIDVDoGsCAqyuVUR/CBAgQGAMAtMB1vnz58uVK1cEWGMo/sDGKMAaWEENh8AABARYAyiiIRCYJSDAMi8IECBAgED7AgKs9s1dsRkBAVYzrlolQGB5AQHW8nbOJNBpAQFWp8ujcwQIECAwUIH8/L1z5045cOBAySOEVmANtNAjGJYAawRFNkQCPRMQYPWsYLpLYF4BAda8Uo4jQIAAAQKrE8jP39u3b1cB1r1798qFCxeqPbBeffVVe2CtjllLLQgIsFpAdgkCBBYSEGAtxOVgAv0REGD1p1Z6SoAAAQLDEZgOsC5evFgFWKdPnxZgDafMoxiJAGsUZTZIAr0SEGD1qlw6S2B+AQHW/FaOJECAAAECqxIQYK1KUjvrFhBgrbsCrk+AwLSAAMucIDBQAQHWQAtrWAQIECDQaQEBVqfLo3MLCAiwFsByKAECrQgIsFphdhEC7QsIsNo3d0UCBAgQICDAMgeGIiDAGkoljYPAcAQEWMOppZEQeEBAgGVCECBAgACB9gXqTyHcv39/tYn7pUuXyrVr18rJkyftgdV+OVxxFwICrF3gOZUAgUYEBFiNsGqUwPoFBFjrr4EeECBAgMD4BOoAa9++fVWAtbm5KcAa3zQYxIgFWIMoo0EQGJSAAGtQ5TQYAt8qIMAyGwgQIECAQPsCAqz2zV2xGQEBVjOuWiVAYHkBAdbyds4k0GkBAVany6NzBAgQIDBQAQHWQAs7wmEJsEZYdEMm0HEBAVbHC6R7BJYVyC8d+XPz5s1q/41nn322nDhxomxsbCzbpPMIECBAgACBHQS2C7BOnTpVHn300epnc/74eWwqdV0g8zSvPXv2dL2r+keAwEgEBFgjKbRhjk+g/qXjxo0b1f4bR48eLceOHfML8/imghETIECAQIsCswKsN954o9rE/ZFHHnmgJ4KBFgvjUgsLCLAWJnMCAQINCwiwGgbWPIF1CdTLvq9fv16twHruuecEWOsqhusSIECAwGgEHhZgHTx4sPofSYKB0UyHXg/UPO11+XSewCAFBFiDLKtBESjVL8f5P7sCLLOBAAECBAi0JyDAas/alZoVEGA166t1AgQWFxBgLW7mDAK9EBBg9aJMOkmAAAECAxMQYA2soCMejgBrxMU3dAIdFRBgdbQwukVgtwICrN0KOp8AAQIECCwusFOANbnvlT2wFvd1RnsCAqz2rF2JAIH5BARY8zk5ikDvBPILdH4xfuutt6pN3PMphMePH7eJe+8qqcMECBAg0CeB6QAr+1Beu3at5FMIDx06dP9TCPMzWoDVp8qOr68CrPHV3IgJdF1AgNX1CukfgSUF6gDr5s2b1SbuR44cqQIsvywvCeo0AgQIECAwh8C8AVY2c/ci0GUBAVaXq6NvBMYpIMAaZ92NegQCAqwRFNkQCRAgQKBzAgKszpVEh5YUEGAtCec0AgQaExBgNUarYQLrFRBgrdff1QkQIEBgnAICrHHWfYijFmANsarGRKDfAgKsftdP7wlsKzC5B1YeITx69KhHCM0XAgQIECDQsIAAq2FgzbcmIMBqjdqFCBCYU0CANSeUwwj0TaAOsG7cuFHtgVUHWPbc6Fsl9ZcAAQIE+iQw61MIs4n7yZMnH9jE3c/jPlV1nH0VYI2z7kZNoMsCAqwuV0ffCOxCIL90ZMP269evC7B24ehUAgQIECCwiIAAaxEtx3ZZoP5dsst91DcCBMYlIMAaV72NdkQCAqwRFdtQCRAgQKAzAgKszpRCR3YpIMDaJaDTCRBYuYAAa+WkGiTQDQEBVjfqoBcECBAgMC4BAda46j3k0QqwhlxdYyPQTwEBVj/rptcEdhQQYO1I5AACBAgQILBygVkB1tWrV8vp06fLo48+WvLzOX/sgbVyeg2uWECAtWJQzREgsGsBAdauCTVAoJsCAqxu1kWvCBAgQGDYArM+hfCNN94op06dKo888sgDg89elV4EuiogwOpqZfSLwHgFBFjjrb2RD1xAgDXwAhseAQIECHRS4GEB1sGDB6uVVz7drZOl06kpAQGWKUGAQNcEBFhdq4j+EFiRgABrRZCaIUCAAAECCwgIsBbAcminBQRYnS6PzhEYpYAAa5RlN+gxCAiwxlBlYyRAgACBrgkIsLpWEf1ZVkCAtayc8wgQaEpAgNWUrHYJrFlAgLXmArg8AQIECIxSQIA1yrIPctACrEGW1aAI9FpAgNXr8uk8ge0FBFhmBwECBAgQaF9gVoD15ptvlpMnTxZ7YLVfD1dcXkCAtbydMwkQaEZAgNWMq1YJrF1AgLX2EugAAQIECIxQYDrA2tzcLPkUQgHWCCdDz4cswOp5AXWfwAAFBFgDLKohEYiAAMs8IECAAAEC7QsIsNo3d8VmBARYzbhqlQCB5QUEWMvbOZNApwUEWJ0uj84RIECAwEAFBFgDLewIhyXAGmHRDZlAxwUEWB0vkO4RWFZAgLWsnPMIECBAgMDyArP2wLp27Vo5ffq0PbCWZ3XmGgQEWGtAd0kCBB4qIMAyQQgMVECANdDCGhYBAgQIdFqgDrD2799f7t69Wy5cuFCuXr1azpw5Ux555JGysbFRPeaf1549ezo9Fp0bt4AAa9z1N3oCXRQQYHWxKvpEYAUCAqwVIGqCAAECBAgsKJAAa2trq9QB1vnz5wVYCxo6vBsCAqxu1EEvCBD4VgEBltlAYKACAqyBFtawCBAgQKDTAgKsTpdH5xYQEGAtgOVQAgRaERBgtcLsIgTaFxBgtW/uigQIECBAQIBlDgxFQIA1lEoaB4HhCAiwhlNLIyHwgEB+gc7eGjdu3Cibm5vlyJEj5fjx49XeG14ECBAgQIBAMwKTAVYeJZx8hPDQoUMPXNQeWM3UQKurERBgrcZRKwQIrE5AgLU6Sy0R6JRAHWC9/fbbVYD1zDPPlGPHjgmwOlUlnSFAgACBoQnMCrCuXLlSzp49Ww4fPlxt4J4//ofS0Co/vPEIsIZXUyMi0HcBAVbfK6j/BLYRqAOsW7dulUuXLgmwzBQCBAgQINCCgACrBWSXaEVAgNUKs4sQILCAgABrASyHEuiTgACrT9XSVwIECBAYioAAayiVNA4BljlAgEDXBARYXauI/hBYkYAAa0WQmiFAgAABAgsICLAWwHJopwUEWJ0uj84RGKWAAGuUZTfoMQgIsMZQZWMkQIAAga4JCLC6VhH9WVZAgLWsnPMIEGhKQIDVlKx2CaxZQIC15gK4PAECBAiMUkCANcqyD3LQAqxBltWgCPRaQIDV6/LpPIHtBQRYZgcBAgQIEGhfQIDVvrkrNiMgwGrGVasECCwvIMBa3s6ZBDotIMDqdHl0jgABAgQGKiDAGmhhRzgsAdYIi27IBDouIMDqeIF0j8CyAgKsZeWcR4AAAQIElhcQYC1v58xuCQiwulUPvSFAoBQBlllAYKAC0wHW008/XU6cOFH27Nkz0BEbFgECBAgQWL+AAGv9NdCD1QgIsFbjqBUCBFYnIMBanaWWCHRKoA6wbt68WTY3N8szzzwjwOpUhXSGAAECBIYoIMAaYlXHOSYB1jjrbtQEuiwgwOpydfSNwC4EJgOsS5culSNHjpTjx49bgbULU6cSIECAAIGdBARYOwn5el8EBFh9qZR+EhiPgABrPLU20pEJCLBGVnDDJUCAAIFOCAiwOlEGnViBgABrBYiaIEBgpQICrJVyaoxAdwQEWN2phZ4QIECAwHgEBFjjqfXQRyrAGnqFjY9A/wQEWP2rmR4TmEsgv0Dn9fbbb5c8Qvjss8/aA2suOQcRIECAAIHlBbYLsF577bVy6NChklAgfzY2Npa/iDMJtCAgwGoB2SUIEFhIQIC1EJeDCfRHoA6wsol7vQeWTyHsT/30lAABAgT6KTAZYN29e7ecO3euXL16tZw9e1aA1c+SjrbXAqzRlt7ACXRWQIDV2dLoGIHdCQiwdufnbAIECBAgsIzAdIB1/vz5cuXKFQHWMpjOWauAAGut/C5OgMAMAQGWaUFgoAICrIEW1rAIECBAoNMCAqxOl0fnFhAQYC2A5VACBFoREGC1wuwiBNoXEGC1b+6KBAgQIEAgP3/v3LlT9u/fX/II4YULF6zAMi16KSDA6mXZdJrAoAUEWIMur8GNWWB6E/dnnnmm2sTdprFjnhXGToAAAQJNC8wKsK5du1ZeffVVe2A1ja/9lQoIsFbKqTECBFYgIMBaAaImCHRRIL9A79mzp/oUws3NzZIA69ixYwKsLhZLnwgQIEBgMAJ1gLVv375y79696mdwAqyTJ08KsAZT5XEMRIA1jjobJYE+CQiw+lQtfSWwgEAdYN26dav6FEIB1gJ4DiVAgAABAksKCLCWhHNa5wQEWJ0riQ4RGL2AAGv0UwDAUAUEWEOtrHERIECAQJcFBFhdro6+LSIgwFpEy7EECLQhIMBqQ9k1CKxBQIC1BnSXJECAAIHRCwiwRj8FBgMgwBpMKQ2EwGAEBFiDKaWBEHhQYHoT92effbbaxD37YnkRIECAAAECzQjYxL0ZV622LyDAat/cFQkQeLiAAMsMITBQgTrAunnzZrWBrABroIU2LAIECBDolEB+/m5tbZX9+/dX/zx//ny5cuVKOXv2bDl8+HBJKJA/PhW4U2XTmRkCAizTggCBrgkIsLpWEf0hsCKByQArm7gfOXLECqwV2WqGAAECBAhsJyDAMjeGIiDAGkoljYPAcAQEWMOppZEQeEBAgGVCECBAgACB9gUEWO2bu2IzAgKsZly1SoDA8gICrOXtnEmg0wICrE6XR+cIECBAYKACAqyBFnaEwxJgjbDohkyg4wICrI4XSPcILCsgwFpWznkECBAgQGB5gfz8vXv3btm7d2/1z+yBdfXq1WoPrEOHDtkDa3laZ7YsIMBqGdzlCBDYUUCAtSORAwj0U0CA1c+66TUBAgQI9FugXoG1b9+++wHWtWvXypkzZwRY/S7t6HovwBpdyQ2YQOcFBFidL5EOElhOQIC1nJuzCBAgQIDAbgTy8/fOnTvVpxBmBVY+SCUrsE6fPi3A2g2sc1sXEGC1Tu6CBAjsICDAMkUIDFRAgDXQwhoWAQIECHRaID9/b9++XQVY9+7dK5cvXy5ZgfXKK68IsDpdOZ2bFhBgmRMECHRNQIDVtYroD4EVCQiwVgSpGQIECBAgsIBAQqs6wMrP4tdff7288cYb5WMf+1h59NFH7YG1gKVD1ysgwFqvv6sTIPBeAQGWWUFgoAICrIEW1rAIECBAoNMC0yuwNjc3qwDr5MmTAqxOV07npgUEWOYEAQJdExBgda0i+kNgRQICrBVBaoYAAQIECCwgUO+BlU3csxore2DlEcJTp055hHABR4euX0CAtf4a6AEBAg8KCLDMCAIDFRBgDbSwhkWAAAECnRYQYHW6PDq3gIAAawEshxIg0IqAAKsVZhch0L6AAKt9c1ckQIAAAQICLHNgKAICrKFU0jgIDEdAgDWcWhoJgQcEBFgmBAECBAgQaF9AgNW+uSs2IyDAasZVqwQILC8gwFrezpkEOi0wHWA9++yz5cSJE2VjY6PT/dY5AgSGKZAboenXnj17hjlYoxq1gABr1OUf1OAFWIMqp8EQGISAAGsQZTQIAu8VEGCZFQQIdElAgNWlauhLkwICrCZ1td2mgACrTW3XIkBgHgEB1jxKjiHQQwEBVg+LpssEBiwgwBpwcQ3tAQEBlgkxFAEB1lAqaRwEhiMgwBpOLY2EwHt+gc5f3Lx5s/oIb48QmiAECKxTQIC1Tn3XblNAgNWmtms1KSDAalJX2wQILCMgwFpGzTkEeiBgBVYPiqSLBEYkIMAaUbFHPlQB1sgnwICGL8AaUDENhcBABARYAymkYRCYFhBgmRMECHRJQIDVpWroS5MCswKsN954o5w6dao88sgj9y/tQwyarIK2VyEgwFqFojYIEFilgABrlZraItAhAQFWh4qhKwQIECAwGoGHBVgHDx6sPg24DnSFWKOZFr0cqACrl2XTaQKDFhBgDbq8BjdmAQHWmKtv7AQIECCwLgEB1rrkXXfVAgKsVYtqjwCB3QoIsHYr6HwCHRUQYHW0MLpFgAABAoMWEGANuryjGpwAa1TlNlgCvRAQYPWiTDpJYHEBAdbiZs4gQIAAAQK7FZgMsO7evVt9EvCbb75Z7YHlEcLd6jq/TQEBVpvarkWAwDwCAqx5lBxDoIcCAqweFk2XCRAgQKD3Arnpv3fvXjWO27dvl8uXL5cbN26UV155RYDV++qOawACrHHV22gJ9EFAgNWHKukjgSUEpgOsI0eOlBMnThQbxi6B6RQCBAgQIDCnQG768yc/h999990qwLp58+b9AMvP4TkhHbZ2AQHW2kugAwQITAkIsEwJAgMVEGANtLCGRYAAAQKdFhBgdbo8OreAgABrASyHEiDQioAAqxVmFyHQvoAAq31zVyRAgAABAgIsc2AoAgKsoVTSOAgMR0CANZxaGgmBBwRmBVjHjx8vGxsbpAgQIECAAIGGBOrHB/PP7IG1ublZ3nrrrXLy5MlqDyyPEDYEr9mVCwiwVk6qQQIEdikgwNoloNMJdFUgAVZ+Sc7GsfkEpKNHjxYBVlerpV8ECBAgMBSB/PzNpw/u3bu33Llzp/oZnADrYx/7mE3ch1LkkYxDgDWSQhsmgR4JCLB6VCxdJbCIQP1Lx/Xr1wVYi8A5lgABAgQI7EIgAdbW1lbZt29fFWRdvHix+p9JAqxdoDp1LQICrLWwuygBAg8REGCZHgQGKiDAGmhhDYsAAQIEOi1QB1j79++vgiwBVqfLpXMPERBgmR4ECHRNQIDVtYroD4EVCQiwVgSpGQIECBAgsIBAAqw8OnjgwAEB1gJuDu2egACrezXRIwJjFxBgjX0GGH8vBfILxfRrelNYAVYvS6vTBAgQINBzgTrAml6B9corr9gDq+e1HVP360/T9OE/Y6q6sRLovoAAq/s10kMC7xFYJsB67rnnyrFjx3wKoflEgAABAgQaFMjP6Hv37lVXmPwUQgFWg+iaXrlAHWDlf5D65MyV82qQAIElBQRYS8I5jcA6BQRY69R3bQIECBAgsL1AfkZnFVb++e6775bNzc1y8+bNIsAya/okIMDqU7X0lcB4BARY46m1kQ5IQIA1oGIaCgECrvAK/gAAIABJREFUBAgMSkCANahyjnYwAqzRlt7ACXRaQIDV6fLoHIHZAgIsM4MAAQIECHRTQIDVzbro1WICAqzFvBxNgEA7AgKsdpxdhcBKBQRYK+XUGAECBAgQWJmAAGtllBpao4AAa434Lk2AwLYCAiyTg0APBZYJsI4ePVqOHz9uE/ce1luXCRAgQKA/AgKs/tRKT7cXEGCZHQQIdFFAgNXFqugTgRUI5BePfGrM9evXy6VLl4oAawWomiBAgAABAjsI1Df+2cg9m7hfvnz5gU3cfaKbKdQHAQFWH6qkjwTGJyDAGl/NjXgkAgKskRTaMAkQIECgUwICrE6VQ2eWFBBgLQnnNAIEGhUQYDXKq3EC6xMQYK3P3pUJECBAYLwCAqzx1n5IIxdgDamaxkJgOAICrOHU0kgIPCCQRxfymMKNGzc8QmhuECBAgACBlgQm98C6c+dO9TM4P4tPnTpVDh48WP1s9iLQdQEBVtcrpH8ExikgwBpn3Y16BAIJsPK6efNmuXjxYjly5Eg5ceKETdxHUHtDJECAAIH1CeTn7927d8vevXvL1tZWOX/+fHnjjTfKmTNnyqFDh0odDGxsbKyvk65MYA6BejX/HIc6hAABAq0ICLBaYXYRAu0LTAZY+b+/zz77rACr/TK4IgECBAiMTCA/fxNc7du3rwqyEmBduXKlnD17thw+fFiANbL50OfhCrD6XD19JzBMAQHWMOtqVASKAMskIECAAAEC7QvUAdb+/fvvr8ASYLVfB1fcvYAAa/eGWiBAYLUCAqzVemqNQGcEBFidKYWOECBAgMCIBARYIyr2wIcqwBp4gQ2PQA8FBFg9LJouE5hHoN7E/a233qr2wMojhM8//7w9sObBcwwBAgQIEFhSQIC1JJzTOicgwOpcSXSIwOgFBFijnwIAhiogwBpqZY2LAAECBLosIMDqcnX0bREBAdYiWo4lQKANAQFWG8quQWANAnWAlU8hvHDhghVYa6iBSxIgQIDA+AQEWOOr+VBHLMAaamWNi0B/BQRY/a2dnhN4qIAAywQhQIAAAQLtCwiw2jd3xWYEBFjNuGqVAIHlBQRYy9s5k0CnBQRYnS6PzhEgQIDAQAWmA6xz586Vq1evlrNnz5bDhw+XhAL5s7GxMVABwxqKgABrKJU0DgLDERBgDaeWRkLgAYHJACubuD/99NPVJu579+4lRYAAAQIECDQkUAdY+/btK1tbW6UOsF577TUBVkPmmm1GQIDVjKtWCRBYXkCAtbydMwl0WqAOsG7dulV9CuGHPvShcuLECQFWp6umcwQIECDQd4HpAOtLvuRLyrVr18oXf/EXC7D6XtyR9V+ANbKCGy6BHggIsHpQJF0ksIyAAGsZNecQIECAAIHdCQiwdufn7O4ICLC6Uws9IUDg/wsIsMwEAgMVEGANtLCGRYAAAQKdFhBgdbo8OreAgABrASyHEiDQioAAqxVmFyHQvoAAq31zVyRAgAABAgIsc2AoAgKsoVTSOAgMR0CANZxaGgmBBwQmA6wLFy5Um7jbA8skIUCAAAECzQrMCrDeeOON8kVf9EX2wGqWXusrFhBgrRhUcwQI7FpAgLVrQg0Q6KZAHWC9/fbb5fz58+WZZ54pL7zwgo/t7ma59IoAAQIEBiIw61MIs4n72bNnBVgDqfFYhiHAGkuljZNAfwQEWP2plZ4SWEhAgLUQl4MJECBAgMBKBOoAa//+/WVra6ucO3euXL16VYC1El2NtCkgwGpT27UIEJhHQIA1j5JjCPRQQIDVw6LpMgECBAj0XmA6wMoq6CtXrgiwel/Z8Q1AgDW+mhsxga4LCLC6XiH9I7CkgABrSTinESBAgACBXQgIsHaB59ROCQiwOlUOnSFAoJQiwDINCAxUYDLAyibu2QPr+eeftwfWQOttWAQIECDQDYH8/L1z507JI4R3796t9qGsHyE8dOhQSSiQPxsbG93osF4Q2EZAgGVqECDQNQEBVtcqoj8EViQwGWBdunSpCrCOHz/uF+YV+WqGAAECBAjMEsjP39u3b5cDBw6Ue/fulfxPpGzifvr06SLAMmf6JCDA6lO19JXAOAQEWOOos1GOUKAOsG7dulXqAOvYsWMCrBHOBUMmQIAAgfYEpgOsixcvViuwBFjt1cCVViMgwFqNo1YIEFidgABrdZZaItApAQFWp8qhMwQIECAwEgEB1kgKPYJhCrBGUGRDJNAzAQFWzwqmuwTmFRBgzSvlOAIECBAgsDoBAdbqLLW0XgEB1nr9XZ0AgfcKCLDMCgIDFZgOsJ5++ml7YA201oZFgAABAt0RmA6wsol79sB69dVX7YHVnTLpyRwCAqw5kBxCgECrAgKsVrldjEB7ApMBVvbf+NCHPlROnDhR9u7d214nXIkAAQIECIxMID9/t7a2yr59++5/CuGVK1fK2bNny+HDh30K4cjmQ5+HK8Dqc/X0ncAwBQRYw6yrUREoAiyTgAABAgQItC9QB1j79++vgqyswBJgtV8HV9y9gABr94ZaIEBgtQICrNV6ao1AZwQEWJ0phY4QIECAwIgEBFgjKvbAhyrAGniBDY9ADwUEWD0smi4TmEdAgDWPkmMIECBAgMBqBaYDrHPnzlUrsF577TWPEK6WWmsNCwiwGgbWPAECCwsIsBYmcwKBfgjkl4683n777XLp0qXywQ9+sDz//PP2wOpH+fSSAAECBHoqkADrzp07JY8Q3r17t2QfyqtXr9rEvaf1HHO3BVhjrr6xE+imgACrm3XRKwIrE3jrrbfK5cuXy5NPPllefPHFsrGxsbK2NUSAAAECBAg8KHDv3r1y+/btKsBKmPX6669Xn0L4yiuvlEcffdQm7iZMbwQEWL0plY4SGI2AAGs0pTbQsQrcvHmzbG5ulqeeeqq88MILAqyxTgTjJkCAAIFWBBJg1Suw8u/5n0gJsE6ePCnAaqUCLrIqAQHWqiS1Q4DAqgQEWKuS1A6BjgoIsDpaGN0iQIAAgUEK1I8Q7tu3ryTAymP8CbBOnTpVDh06ZAXWIKs+zEEJsIZZV6Mi0GcBAVafq6fvBOYQEGDNgeQQAgQIECCwIoF6E/cEWNkD68KFC1WA9eqrrwqwVmSsmXYEBFjtOLsKAQLzCwiw5rdyJIFeCgiwelk2nSZAgACBngpMB1jnz5+vNnE/e/asAKunNR1rtwVYY628cRPoroAAq7u10TMCKxEQYK2EUSMECBAgQGAugTrAqj+F8Ny5cwKsueQc1DUBAVbXKqI/BAgIsMwBAgMXEGANvMCGR4AAAQKdEpgOsLIC68qVK1ZgdapKOjOPgABrHiXHECDQpoAAq01t1yKwBgEB1hrQXZIAAQIERisgwBpt6Qc3cAHW4EpqQAR6LyDA6n0JDYDAwwUEWGYIAQIECBBoT0CA1Z61KzUrIMBq1lfrBAgsLiDAWtzMGQR6JSDA6lW5dJYAAQIEei6QAOvOnTvlwIED1acQ5hFCn0LY86KOtPsCrJEW3rAJdFhAgNXh4ugagVUICLBWoagNAgQIECAwn8B0gHXx4sVqE/fTp0/7FML5CB3VEQEBVkcKoRsECNwXEGCZDAQGLiDAGniBDY8AAQIEOiUgwOpUOXRmFwICrF3gOZUAgUYEBFiNsGqUQHcEBFjdqYWeECBAgMDwBQRYw6/xWEYowBpLpY2TQH8EBFj9qZWeElhK4K233iqXL18uTz75ZHnxxRfLxsbGUu04iQABAgQIENhZIAHW7du3qz2w7t27VzxCuLOZI7opIMDqZl30isCYBQRYY66+sY9CIAHW5uZmeeqppwRYo6i4QRIgQIDAOgUEWOvUd+1VCgiwVqmpLQIEViEgwFqFojYIdFhAgNXh4ugaAQIECAxOQIA1uJIaEAECBAh0RECA1ZFC6AaBpgQEWE3JapcAAQIECLxXQIBlVhAgQIAAgWYEBFjNuGqVQGcEBFidKYWOECBAgMAIBARYIyiyIRIgQIDAWgQEWGthd1EC7QkIsNqzdiUCBAgQICDAMgcIECBAgEAzAgKsZly1SmDtAvXGmzdv3qw+hfCJJ54oL7zwQtm7d+/a+6YDBAgQIEBgqAIJsLa2tqqft3fv3q0+hfDKlSvl7Nmz5dChQyU/n/PHpwIPdQYMZ1w2cR9OLY2EwFAEBFhDqaRxEJgSyC/Q+eX47bffLq+//np5/PHHBVhmCQECBAgQaFggN/0Jrvbs2VP988KFC/cDrMOHDwuwGvbX/OoEBFirs9QSAQKrERBgrcZRKwQ6JyDA6lxJdIgAAQIERiAgwBpBkUcyRAHWSAptmAR6JCDA6lGxdJXAIgICrEW0HEuAAAECBFYjIMBajaNW1i8gwFp/DfSAAIEHBQRYZgSBgQrUv3TUjxC+//3vLy+++KI9sAZab8MiQIAAgW4ICLC6UQe92L2AAGv3hlogQGC1AgKs1XpqjUBnBOpfOj75yU+Wzc3N8jmf8znlpZdeEmB1pkI6QoAAAQJDFBBgDbGq4xxT5nJe2c/NiwABAl0QEGB1oQr6QKBBgXfeeacKsB577DEBVoPOmiZAgAABAhGYDLDu3bt3fxP3M2fOFJu4myN9Eag/LTPhlQCrL1XTTwLDFxBgDb/GRjhygckA6+WXX/ax3SOfD4ZPgAABAs0K5MY/wVVeAqxmrbXenIAAqzlbLRMgsLyAAGt5O2cS6IWAAKsXZdJJAgQIEBiIgABrIIUc+TAEWCOfAIZPoKMCAqyOFka3CKxKwCOEq5LUDgECBAgQ2FnAI4Q7Gzmi+wICrO7XSA8JjFFAgDXGqhvzKATqTdwTYF28eLF89md/dvnoRz9qE/dRVN8gCRAgQGBdAt/8zd9c8mdjY6NsbW1VP4OvXLlSsgfWoUOHqj2y8idf9yLQVQHztKuV0S8C4xYQYI27/kY/YIH6l+dPfepT5dy5c9Um7p/3eZ8nwBpwzQ2NAAECBNYvkJ+/eSWgunPnThVgXb16tZw+fVqAtf7y6MECAvX/DF3gFIcSIECgUQEBVqO8GiewPgEB1vrsXZkAAQIExisgwBpv7Yc2cgHW0CpqPAT6LyDA6n8NjYDATAEBlolBgAABAgTaFxBgtW/uis0ICLCacdUqAQLLCwiwlrdzJoFOC0wGWOfPn68eIbQHVqdLpnMECBAgMAABAdYAimgIlYAAy0QgQKBrAgKsrlVEfwisSKD+pSN7YGX/jQRYL7/8sj2wVuSrGQIECBAgMEtAgGVeDEVAgDWUShoHgeEICLCGU0sjITBTIAHW5uZmFWC99NJLPvXIPCFAgAABAg0KCLAaxNV0qwICrFa5XYwAgTkEBFhzIDmEQJ8FBFh9rp6+EyBAgEDfBARYfauY/m4nIMAyNwgQ6JqAAKtrFdEfAisWEGCtGFRzBAgQIEDgIQICLNNjKAICrKFU0jgIDEdAgDWcWhoJgZkCAiwTgwABAgQItCeQACs3/hsbG2Vra6vah/Lq1avl9OnT5dChQ9XX6q+31ytXIrC4gABrcTNnECDQrIAAq1lfrRNYu0ACrEuXLt3fxD2/UHsRIECAAAECzQgkwLpz507Zv39/uXv37v0A69VXXxVgNUOu1YYEBFgNwWqWAIGlBQRYS9M5kUA/BN555537m7jnUwgFWP2om14SIECAQD8FEmDdvn27HDhwoNy7d88KrH6WUa9LqVYK7tmzhwUBAgQ6IyDA6kwpdIRAMwICrGZctUqAAAECBGYJCLDMi6EICLCGUknjIDAcAQHWcGppJARmCgiwTAwCBAgQINCegACrPWtXalZAgNWsr9YJEFhcQIC1uJkzCPRKQIDVq3LpLAECBAj0XGByD6w8QnjhwoVy7do1m7j3vK5j7L4Aa4xVN2YC3RYQYHW7PnpHYNcCAqxdE2qAAAECBAjMLZAAK8HV3r17q03cBVhz0zmwYwICrI4VRHcIECgCLJOAwMAFBFgDL7DhESBAgECnBBJg5ZUPTcmnEV68eLFcvXrVCqxOVUln5hEQYM2j5BgCBNoUEGC1qe1aBNYgIMBaA7pLEiBAgMBoBQRYoy394AYuwBpcSQ2IQO8FBFi9L6EBEHi4gADLDCFAgAABAu0JCLDas3alZgUEWM36ap0AgcUFBFiLmzmDQK8EBFi9KpfOEiBAgEDPBRJg5U/2wNra2rIHVs/rOebuC7DGXH1jJ9BNAQFWN+uiVwRWJvCpT32qbG5ulscee6y89NJL1Z4cXgQIECBAgEAzAgmvElzt37+/2sT9/Pnz1R5YZ86cKYcOHSoJBfLHz+Nm/LW6OgEB1uostUSAwGoEBFircdQKgc4KCLA6WxodI0CAAIEBCswKsK5cuVLOnj0rwBpgvYc8JAHWkKtrbAT6KSDA6mfd9JrA3AICrLmpHEiAAAECBHYtIMDaNaEGOiIgwOpIIXSDAIH7AgIsk4HAwAUEWAMvsOERIECAQKcEBFidKofO7EJAgLULPKcSINCIgACrEVaNEuiOQAKsS5cu3d8DK5vKehEgQIAAAQLNCAiwmnHVavsCAqz2zV2RAIGHCwiwzBACAxf45Cc/WW0g+/73v7987ud+bvWpSF4ECBAgQIBAMwICrGZctdq+gACrfXNXJEBAgGUOEBilQP1LRwKsc+fOVQHWRz/6UQHWKGeDQRMgQIBAWwICrLakXadpAQFW08LaJ0BgUQErsBYVczyBnggIsHpSKN0kQIAAgUEJCLAGVc5RD0aANeryGzyBTgoIsDpZFp0isHsBAdbuDbVAgAABAgQWFRBgLSrm+K4KCLC6Whn9IjBeAQHWeGtv5AMXqH/puHXrVrUH1uOPP24PrIHX3PAIECBAYP0CCbDu3LlT9u/fX+7du1f9DL569Wo5c+ZMOXToUMnP5/zZ2NhYf2f1gMBDBARYpgcBAl0TEGB1rSL6Q2DFAjdv3iybm5vlAx/4QHnppZf8wrxiX80RIECAAIFJgTrA2rdvXxVg5ZOAr127Vk6dOiXAMlV6JSDA6lW5dJbAKAQEWKMos0GOWaAOsJ566qnywgsvCLDGPBmMnQABAgQaF5gOsPI/kRJgnTx5UoDVuL4LrFJAgLVKTW0RILAKAQHWKhS1QaDDAgKsDhdH1wgQIEBgcAICrMGVdLQDEmCNtvQGTqCzAgKszpZGxwisRkCAtRpHrRAgQIAAgXkEBFjzKDmmDwICrD5USR8JjEtAgDWuehvtiATqXzoSYF2+fLk88cQT5cUXX/QI4YjmgKESIECAQPsC9sBq39wVmxEQYDXjqlUCBJYXEGAtb+dMAp0WqH/pePvtt8vrr79ebeJuD6xOl0znCBAgQGAAAgmwtra2Sr2Ju08hHEBRRziE+tMy9+zZU/LHiwABAl0QEGB1oQr6QKABgckA6+Mf/3h5/PHHBVgNOGuSAAECBAhMCtQB1v79+8vdu3dLAqwrV66Us2fP2sTdVOmNgACrN6XSUQKjEhBgjarcBjsmAQHWmKptrAQIECDQFQEBVlcqoR+7ERBg7UbPuQQINCUgwGpKVrsE1iwgwFpzAVyeAAECBEYpIMAaZdkHN2gB1uBKakAEBiEgwBpEGQ2CwHsFJjdxzyOE9sAySwgQIECAQPMC9SbueYTw3r17HiFsntwVGhAQYDWAqkkCBHYtIMDaNaEGCHRboP4UwieffNIeWN0uld4RIECAwAAEEmDdvn27HDhwoAqwLl68WK5evVpOnz5tD6wB1HcsQxBgjaXSxkmgXwICrH7VS28JLCyQTyHc3NwsAqyF6ZxAgAABAgQWFhBgLUzmhA4KCLA6WBRdIkCgCLBMAgIDFxBgDbzAhkeAAAECnRIQYHWqHDqzpIAAa0k4pxEg0KiAAKtRXo0TWL+AAGv9NdADAgQIEBiPgABrPLUe8kgFWEOurrER6K+AAKu/tdNzAg8VmNzE/fLly+WJJ54oL774YtnY2CBHgAABAgQINCQgwGoIVrOtCgiwWuV2MQIE5hQQYM0J5TACfRPIL9AJq7KJez6F8PHHH682cd+7d2/fhqK/BAgQIECgNwLTn0J46dKlcu3atXLy5EmbuPemijoqwDIHCBDoooAAq4tV0ScCKxCoA6w8Qvj6668LsFZgqgkCBAgQILCTQB1g7du3r/oUwnyQigBrJzVf75qAAKtrFdEfAgQiIMAyDwgMVECANdDCGhYBAgQIdFpAgNXp8ujcnAICrDmhHEaAQKsCAqxWuV2MQHsCAqz2rF2JAAECBAjUAgIsc2EIAgKsIVTRGAgMT0CANbyaGhGBSqAOsG7dulWyifv73//+ahN3e2CZIAQIECBAoDmBWXtgXb16tZw6dcoeWM2xa3nFAgKsFYNqjgCBlQgIsFbCqBEC3ROoP4XwnXfeqfbfeOyxx8pLL70kwOpeqfSIAAECBAYk4FMIB1TMkQ+l/l1y5AyGT4BAhwQEWB0qhq4QaEJgMsB6+eWXq08m9CJAgAABAgSaERBgNeOq1fYFBFjtm7siAQIPFxBgmSEEBi4gwBp4gQ2PAAECBDolIMDqVDl0ZhcCAqxd4DmVAIFGBARYjbBqlEB3BARY3amFnhAgQIDA8AWmA6wLFy6Ua9euldOnT9sDa/jlH9QIBViDKqfBEBiEgABrEGU0CALbCwiwzA4CBAgQINCewHSAdf78+SrAevXVVwVY7ZXBlXYpYBP3XQI6nQCBRgQEWI2wapRAdwQEWN2phZ4QIECAwPAFZgVY+RTCM2fOCLCGX/7BjFCANZhSGgiBQQkIsAZVToMh8F4BAZZZQYAAAQIE2hNIgLW1tVX27dtX7t69W7IC68qVK+Xs2bPl8OHDpQ4GfKhKezVxpcUFBFiLmzmDAIHmBQRYzRu7AoG1Cgiw1srv4gQIECAwMoE6wNq/f38VZAmwRjYBBjJcAdZACmkYBAYmIMAaWEENh8C0gADLnCBAgAABAu0JCLDas3al5gQEWM3ZapkAgeUFBFjL2zmTQC8EBFi9KJNOEiBAgMBABARYAynkyIchwBr5BDB8Ah0VEGB1tDC6RWBVAgKsVUlqhwABAgQI7CwgwNrZyBHdFxBgdb9GekhgjAICrDFW3ZhHJfCpT32qXLp0qTz22GPl5ZdfLjaNHVX5DZYAAQIEWhaYDLCyifu5c+eqTdxfe+01n0LYci1cbnkBAdbyds4kQKA5AQFWc7ZaJtAJgQRYm5ubVYD10ksvCbA6URWdIECAAIGhCkwHWJObuB86dMinEA618AMblwBrYAU1HAIDERBgDaSQhkFgOwEBlrlBgAABAgTaExBgtWftSs0JCLCas9UyAQLLCwiwlrdzJoFeCAiwelEmnSRAgACBgQgIsAZSyJEPQ4A18glg+AQ6KiDA6mhhdIvAbgXyi8eePXvKJz/5yWoPrMcff7y8+OKLZe/evbtt2vkECBAgQIDANgKzNnF/8803y+nTp8ujjz5anVX/jM7PaS8CXRQQYHWxKvpEgIAAyxwgMFCB/AKdX4xv3bpVLl68WD74wQ+W559/XoA10HobFgECBAh0Q2A6wMrP4OvXr5dXXnmlHDx4sNqLMuFAXgKsbtRML94rIMAyKwgQ6KKAAKuLVdEnAisQmA6wPvShD5UTJ04IsFZgqwkCBAgQILCdwKwA68aNG+VjH/uYAMu06Y2AAKs3pdJRAqMSEGCNqtwGOyYBAdaYqm2sBAgQINAVAQFWVyqhH7sREGDtRs+5BAg0JSDAakpWuwTWLCDAWnMBXJ4AAQIERikgwBpl2Qc3aAHW4EpqQAQGISDAGkQZDYLAewXq/TXefvvtahN3e2CZJQQIECBAoHmBBFh37twpBw4cKFtbW2Vzc7PaAyuPEL7vfe+r9sDKq97IvfkeuQKBxQUEWIubOYMAgeYFBFjNG7sCgbUK3Lx5s/rl+amnniovvPDC/V+c19opFydAgAABAgMVmA6wXn/99SrA+sIv/MIqwLJx+0ALP7BhCbAGVlDDITAQAQHWQAppGAS2ExBgmRsECBAgQKA9gVkBVjZx/4Iv+AIBVntlcKVdCgiwdgnodAIEGhEQYDXCqlEC3REQYHWnFnpCgAABAsMXEGANv8ZjGKEAawxVNkYC/RMQYPWvZnpMYCGBt956q1y+fNkjhAupOZgAAQIECCwnkADr9u3b1R5Yd+/eLXmE0Aqs5SydtT4BAdb67F2ZAIHtBQRYZgeBgQrUm8MmwMovz9kD6/nnn7cH1kDrbVgECBAg0A2BBFgJrrJZezZxz/9Eys/i7IF18OBBe2B1o0x6sYNAHWDVHzoAjAABAl0QEGB1oQr6QKABgfwCnY1ib926VW3i/vTTT5djx44JsBqw1iQBAgQIEKgF6hv/eiVWHWC98sorAizTpFcCPimzV+XSWQKjEBBgjaLMBjlGgekA65lnnikf+chHBFhjnAzGTIAAAQKtCUwGWO+++261Aiv7UQqwWiuBC61IQIC1IkjNECCwMgEB1sooNUSgWwICrG7VQ28IECBAYBwCAqxx1HkMoxRgjaHKxkigXwICrH7VS28JzC3gEcK5qRxIgAABAgRWJiDAWhmlhtYsIMBacwFcngCB9wgIsEwKAgMVyC8deeWxBZu4D7TIhkWAAAECnRMQYHWuJDq0hIBN3JdAcwoBAo0LCLAaJ3YBAusVyCcfZf+NfArhCy+8YA+s9ZbD1QkQIEBg4AICrIEXeCTDq+dxPhAof7wIECDQBQEBVheqoA8EGhTICqx8CqEAq0FkTRMgQIAAgW8REGCZCkMQEGANoYrGQGB4AgKs4dXUiAg8ICDAMiEIECBAgEB7AgKs9qxdqTkBAVZztlomQGB5AQHW8nbOJNALAQFWL8qkkwQIECAwEIHJAOv27dvVKuj8LH7llVfKwYMHPY41kDoPfRgCrKFX2PgI9FNAgNXPuuk1gbkFBFhzUzmQAAECBAjsWiCfAnz37t2yd+/ecufOnXLp0qWS/SgFWLum1UDLAj6FsGVwlyNAYEcBAdaORA4g0G8BAVb6D5orAAAgAElEQVS/66f3BAgQINAvgQRYW1tbZd++fVWQdfHixXLjxg0BVr/KqLcECBAg0EEBAVYHi6JLBFYpIMBapaa2CBAgQIDAwwXqAGv//v1VkCXAMmMIECBAgMBqBARYq3HUCoHOCgiwOlsaHSNAgACBAQoIsAZYVEMiQIAAgU4ICLA6UQadINCcgACrOVstEyBAgACBaQEBljlBgAABAgSaERBgNeOqVQKdERBgdaYUOkKAAAECIxAQYI2gyCMYYjZwr1979uwZwYgNkQCBPggIsPpQJX0ksAsBAdYu8JxKgAABAgQWFBBgLQjm8E4KJMCqP4VQgNXJEukUgVEKCLBGWXaDHpOAAGtM1TZWAgQIEFi3gABr3RVw/VUICLBWoagNAgRWLSDAWrWo9gh0TECA1bGC6A4BAgQIDFpAgDXo8o5mcAKs0ZTaQAn0SkCA1aty6SyB+QXqZd8JsC5fvlyefPLJ8sILL5SNjY35G5njyMk9EnL4rGXm08dsd1z+ftn25uiqQ9Yo4PGD+fFnvV+mz+b5Xs953OavwvqOXFdt1+E378+Lh/3MaLJSi/zsmuxHAqw7d+6U/fv3l62trXLx4sXy1ltvlVdeeaUcPHhw5s/JJsehbQLLCAiwllFzDgECTQsIsJoW1j6BNQnkF+iEVbdu3Sof//jHywc+8IFy4sSJ6hfnpjfmnL4pSV+mrzkrSJt1XNqabC/t5LhVvha5idrputvdfK7j5nCnvtZfb/qGOWNfdXA679j6dty886Tpmq3TbdmxzWu3zrHNc+1lxz9P29sds0676e/v2/WxbZeHmezUl5x77969aigJsjY3NwVYu5mgzl2LgABrLewuSoDADgICLFOEwEAFpgOsxx9//H6AtaohP+yX+Ppri9wEbHfsvDc4qxqXdlYrMPlL8GpbHmZrO90cZ9TrDByaVp8e/zweQzKZd7yrrMM659O839/bdlnkZ9d0Lervefk5/O6771aroLMa2gqsVc5abTUtIMBqWlj7BAgsIyDAWkbNOQR6IJD/+5tf+OsVWE888UR5/vnn37MCq4kbl7ZvNHpQjtF30ZyYfwrM857kOb9n346sH//uW7+X7a8Aa1k55xFoVkCA1ayv1gkQWE5AgLWcm7MIdFogv3TcvXu3emzr7bffLl/6pV9a7YGVAGv6Ua55bpYXHayb60XFHE+AAAECQxKob/5v375dPUJ448YNK7CGVOARjEWANYIiGyKBHgoIsHpYNF0mMI9A/Qjh9evXy/nz58tnfdZnlQ9/+MMz98DaTeA0HYDNamvW/kf1L0b1WKb3uqr/fnq/q+2Om8dk1jF1ezvts7XddWeNY3q803t7pR/b7Qm16v295nHZbmyzarmbuTLdl+m5MytMXaTeuwljp8e1XVuz5vs8JvM8HjtPrepj5hnrdu/Nnc6txzPLZLsaTfZ9u/bn3Qdt+ro5bx7jRebKItZtHjv9/aTNay9Sn8lHxGfVZtY4Fvl+Ms/PlTZsdvO+zbn5fp4A68u+7MvKV33VV5XTp0+X973vfXPN5zbG5xoEHiYgwDI/CBDoooAAq4tV0ScCKxCof/F+5513qv03vv7rv7585md+5v2NZVdwiW0/cXDWHjazHhOZvDnY7gZ12cBgkfHt27fvgbHkpqPegHeynZ1CjrqvswKs6f48LBBbpO/bHfuwkGJWfXa65qygb7tzZtVyVjAX4+k5MO2yU9iyU3Ayz/mzApJZN+DLBmz1efPclO/du3dlG97Xn4QW08zxtJ1/n3afHGssclxe+fS0yaAifzdPOJv2pt/v+e95ApLJ69e1zd/Nc+48IddO83wVX6+Di3nammd+1u47jW9WUD7LfVb/clxd97rfs47brhbTfZueY7Ms6r7tdG7dt+k5td3/GJgnKJvHvR7/PO/b6fHFKe+5rIT+pm/6pmol9KFDh8rnf/7nl8/4jM+YZ2o4hsDaBQRYay+BDhAgMENAgGVaEBioQP2LRz4B6Wu/9mvLN3zDN1Q3lU2v8Nnt/7He7kanqTI9bKXA5I1QbshyQz85vtzw5WPSJ4/LMblpmXzlRiZ/Jl85ZvomL21NH7ebcc9bi+njMkfSv1mr39KfnW6kp/uc9qftHnZDW4cVOW+W+3bnTodf24WE0+fPCs22CwOmb/IzrnneU7OCqWnjjPvTPu3Tqjk1zw32TnMj/Ur/6lBokQAr537jN37jA/1IOwcOHLgfJk3e4E/3dzpwyljzZ6e5Mx24rMJhJ6dVfz12s+bErL+bFY5M220X9Mx6n00H77MCp1nBTB3iTtanfg/M+v4wee3txjVd62mXyVB8Mijd7lNrJ12269t2q/Wmw6+dal7/XJj182G7cyevUQdYk9/DDh8+XJ566qnqPeRFoA8CAqw+VEkfCYxPQIA1vpob8UgE6lVEkzc/0ysjRkLx0GFud4MyK9SYJ1yb/IUvx9fm895A7XSD30TNtgsJJufLsjdydX9nXWN6rNvNz92GGMuYztPfur7z1mTWHJgVYMzT30VNJufzTufm2Ie9LybHO6tm29Ux35N2GttOfZvXet3HzTt/ZoVQswLWecczaz7NOneVx81bs1nHTX9/nP7+Odn3Wd8vZs3FnebYPJbzjulhbU33ow6xV9G/ecbgGAK7FRBg7VbQ+QQINCEgwGpCVZsEOiCQXzzq/zNe/8LsF+fZhZnlMs8N6HY3OTvdaNW9mPe4NqbTdLgyy2SelUbp66xxbfdI0eSx+fdZjzHNepxzJ5O6NvPM+XnrWK9kmjx+u9U2s4KJWQHWrJvc3fR5lss87dXH1GObNa5Z9XnYcXUQlj6l3XnqOCs4mw6Td6r9qr4+z/eAemyzQqd5Q+udarZomDLPdWe9R7cLteZpb9b4J78XbPd+nPU9ZbvHRXcK3bYLXbf7nrTTPNlu3i0yLyb7VH//mOf9uFPffJ1AGwICrDaUXYMAgUUFBFiLijmeQE8EJh/DqG8cV7m/Tk8Y5urmPAHWPCHHw2405w2r1nFzM71i5mFjXaZ/9aNs0+1O36jOeozpYTelk8WdDGwn/36Z/s4KJdLOrP2ZtrvurABr1g34sgHWXBO7lLkeb0xbGVttXX/vmO5b/d+Tfz/rUa466Jp13Lz97vtx231P2SmMWiQ02S40mjX35nlPzBPMbPd+nH4vbxdYzTpup+8Ls96Ps0Kp/N12Ifu833+n7ebZe227uToZ7maMAqy+v6vH138B1vhqbsQE+iAgwOpDlfSRwC4F6gBru/1Bdtn8aE6ftSfUvCsZlj2uDdzpG8hVB1iLjGGRFRmLtLuqY+e5yV/VtVbRzrwB4GSAVY9x1mq4eUK4RQKHVYxRG+sX2M37YqeVVYvMp50CwkWllg3AF72O4wl0UUCA1cWq6BMBAgIsc4AAAQIECBAgQIAAAQIE7gsIsEwGAgS6KCDA6mJV9IkAAQIECBAgQIAAAQJrEhBgrQneZQkQeKiAAMsEIUCAAAECBAgQIECAAIH7AgIsk4EAgS4KCLC6WBV9IkCAAAECBAgQIECAwJoEBFhrgndZAgQeKiDAMkEIECBAgAABAgQIECBA4L6AAMtkIECgiwICrC5WRZ8IECBAgAABAgQIECCwJgEB1prgXZYAgYcKCLBMEAIECBAgQIAAAQIECBC4LyDAMhkIEOiigACri1XRJwIECBAgQIAAAQIECKxJQIC1JniXJUDgoQICLBOEAAECBAgQIECAAAECBO4LCLBMBgIEuiggwOpiVfSJAAECBAgQIECAAAECaxIQYK0J3mUJEHiogADLBCFAgAABAgQIECBAgACB+wICLJOBAIEuCgiwOlaV/LDIa8+ePQ/0bPrv5/mh8s3f/M1VO3Vb27W9E8Gy5+3UbpNfv3fvXrl161Z55JFHymd8xmc0eamHth27//W//le5ceNG+Xbf7tuVxx9/vOzfv3/bc77+67++fNM3fVPV75z7FV/xFeXbfJtvUw4fPlw2Njbec95XfdVXVX//6KOPVnXOuPfu3fue+bM2gBYvHK/p902Ll3/o+3XV/bh79275mq/5mmouHTx48IG50SWH7cZ9586d6n3xbb/tty2f/umfvmoe7REgQIAAAQK7FJjnXmOXl3A6AQIEFha4H2DVIUX9z4VbGsAJk2HPOoYT+9yUJrT4Ht/je5T3ve991Q15/v5//s//WRJWfLfv9t3Kd/gO36E65pOf/GT5zt/5O5fv+T2/ZxVa1K8c/3Vf93XlzTffLN/xO37H8jmf8zll37591X9/2qd9Wvnu3/27PzREmRx7ApH/9t/+W9Wv7/29v/daw6BFavK///f/Lr/39/7e8oN/8A8ux44dW1uw8X/+z/8pf/tv/+1y6dKl8n2/7/ctH/vYx6r6zXolcPwX/+JflP/8n/9z+TE/5sdUocSf+TN/pjz22GPVfx84cOCB03L8n//zf76q8Y/8kT+ymhNXr14tzz33XPlO3+k7LcLV62Mz3+Oc8C8WCSwnQ9u8F2LZVpCZ6+W9mdAxdWgiVMv3gr/5N/9mVevjx4/ff//fvn27fO3Xfm0VeibY6uortbp8+XLVzx/yQ37IA9+/utpn/SJAgAABAmMSqAOsMY3ZWAkQ6L7Anq/56q/+/0t+vKpQ5zt++qfPXOnSBk8CidzU/bW/9tfKyZMny4svvljd2CVE+jf/5t9UQcjnf/7nlw984APlS77kS8pf+At/oTrmZ//sn12+/bf/9ve7mNUZr7/+evnDf/gPl2eeeab8tJ/206ow7Pf9vt9XrdT5yT/5J8+96uEbv/Eby5/+03+6fNmXfVn5+T//55fnn39+bT6L1CAhwq/9tb+2/Ngf+2PL537u5zYSIszTn6wC+z2/5/eUZ599tnze531eFUzOWkmVtlLnL/3SLy3/8l/+y/LKK69UoWNCuNT7C7/wC6vwcfKVsOJ3/s7fWT7rsz6rmhf/4B/8g/K3/tbfKr/oF/2i8uEPf3ie7g3imMz3BH8XLlwoTz31VPkJP+En3LfKSp/M3YR/H/3oR1sZ77//9/++/NW/+lfL9//+37/6kzqu8pV58k//6T8tf+/v/b3y03/6Ty/vf//77zd/7dq16tof+tCHqrk/GWyvsg+7bWtra6ucO3eu+r72M3/mz6zmcBNB32776XwCBAgQIDBWgQRY+Z3j//7f/1vubm2NlcG4CRDomMCer/yKrxBgfUtRcpP7me9739oCmgRYm5ub5Y/9sT9WrdT5ET/iR1ShWn54/JN/8k/KH/2jf7S62cuqi6y++CN/5I+Up59+uvzG3/gbH1hxk0fQ/tSf+lNVOy+//HL5uT/355bv8l2+S3VcVoWcOXNmrtUo+cH1zjvvlF/9q391+a//9b+Wn/fzfl4VDuSxn7wmV+tNrnhZ9kZ01mOSuc487U2fmwDr1/26X1etXIrB5Gu7xzMfdsz0eOtjH9ZWvvaJT3yi/Ik/8SfKz/k5P6daPTfLrG6rDrD+3b/7d+ULvuALqnmY0DGPHSbAmlyBlbYTAvyBP/AHqnDyp/yUn1LeeOONkgAj40295+3zdt+T5l2NOas+s86dx327vjxsDiSkSnCXoDBWv+23/bZq/Dnn3XffLX/2z/7Z6vHNhIIPG1OOz0qu//gf/2MVCB85cmTH7wWpWcwTVCYgy3Wy+irBzBNPPFH92S6wnHduT5tk9dIf/IN/sAqnvviLv7iqf16ZD/m+EIcEZ7/wF/7CKrCe5zVPvXY7nyb7kevle0pC+BdeeKH8sB/2w96zwnCefjuGAAECBAgQaEagDrDye8fWnTvNXESrBAgQWFBAgDUB1oUAKyuwEngkwEiAldUbdYD1x//4Hy8/42f8jHL06NHyd/7O36lu/nKjfvr06furtTKc3Ez/5b/8l6tVGk8++WT5oi/6ouq43/SbflMVYL366qtzBVhZ2fLP//k/r1Z05Ob+u37X71pdK48t5pXALX/ySmiW43PjX+/xlP/OzXu9CiTjqPdoqv8ux+QHZL1KJf/9Dd/wDdU5CQPyz/oHaP3PBBbpT/31+sa6PjfXzL//ht/wG+4HWPnvnFPvD5V+T+4XlX+vx5R/TxsZRx0+5NppI3/ySn/rr9V9TICQc3OdnJtrJMD6c3/uz91fZVL/fY6t9ypKW3Wds3IuK1MSVMZyMsDKCqy0X5+b6//JP/knq0cSs6oubedrmcf5Wo5Nf+sa1deZDBtjma/Xdcq/p53aenJfrYxz2iBt1o+51sZ1TWu/9CntTl4/fav3aMu/13Mg/Uif6v+u58VOAVbeD3HOSp4f8AN+QPnRP/pHV34JsPKYZeZKQsB6rtTjrmtV1zKBbd5nefTv7NmzlUW9CnJyrtbjzgrFhEYf//jHy2/+zb+5CoxyfNqvx1vPq7oW+Xrard1qh/wzVulLzp21eiouCSp/x+/4HdXczuN39fvtK7/yK6v3fQK1hFp5rDQrNOux1e/X+j1Qz+l8vT6mru+kS12/+ltl/T6q51jaq8+vazl5jfr8+ry6tgmZ870uj/tm1eBnfuZnLvjjy+EECBAgQIBAUwICrKZktUuAwG4EBFgdCrBy85cb8ayuyON6P/yH//AHAqzc7OWRoQRYeZwwjxBlVU8eMUuwlP1k8srNdIKw7JuVcGPZACuhVEKybLacfbTSboKVD37wg9V1/vt//+/VapXcoOafuSHNI4s/6Af9oOpmNH1IYJbH2XJj/B/+w38oWV2UFWTf5/t8n+oG/t/+239b7e31Q3/oD62Cq5zzr/7Vv6r2MsqqjByXMCDn3bx5s7rZzZ5cGVeuk1UyudnP3yf8SWiXTaFzzX/4D/9h+ak/9adWbeQxsvz9Rz7ykSrgefvtt0se9cqjVnmsL9fM9bN/UK6T/ZLSpzyelZvzGOTxvuwxlX4nGExYkXHmsbXsEXbx4sXq3AQnqV32pEqf/tN/+k+VS/qRNhNApK2EH2krK1ASNCSIiHEeh8sjpPnvyQAr44xzjGL+vb7X96r+O9dP4JnVQ9k/K48rJsC4fv16Ne7UKYFC5kkep6xX5eTr6V++nv2SMtav/uqvrvoY8zzKmPFlTKl5VhOl3//lv/yX+wZZdZT2UsOsHoxbNqxPcBTr7M+WPsQi5ydcSpsxiGWCpbfeeqvqe3wyn9NO6pnaZiVRveJvu2906WveD3HJGNNeHqtNjfKY5WSAlRAnAW/2JEvgk7Zjn2unD5nvqUH6deLEieqxz+z99s/+2T+rVgxlXPnv/H2M4/E3/sbfqKzTTsac+Z25ldVgGXNeOTcO+b+Y2YMuczeBcOZcLDKGvH/yfsi145o6TodYeU/mUdH0Pysi6/dirlE/Vpg9sVK71DOrLTNvMu7M+Yw93z9Sg3x/yLgS+sU68zHjyRxKWJr3X76Wx5Xznqv7kvdexpogO3M78y/voVwj/U+7mdOZC5lbeV9kVdqhQ4eqOZv3UtrO+ySPS2cOJsCK1TyrLXfzA8+5BAgQIECAwHwCAqz5nBxFgEC7AgKsDgZYf+gP/aHq5vRhAVZWfeSGODfMn/rUp6rHhfLJdQk2/uJf/ItVEJFALP/Mqq1lVmAlzMlKj9xI52Y+e2plQ/SsbkkIlBvvPK6Vm+/cLCdAS3iQkCI36L/rd/2u6kY5AVpeWR3yl/7SXyo//sf/+PLaa69VwVDChQQev+yX/bIqgEgQkRv83MznxjtBRFbD5HHI3AjnJjchRW6Ic70EermRTuiRDc9zI53jE06kf7/qV/2qqm+//bf/9upmPNfNjXNu9rNiJ49EZl+vPHb1r//1v67GmjAnK3HqR/dyw57AIK4J8nLdmCfwiEUCn4wroUUCm4wrtcvXsy9TAqkEWNlQPn3/+3//71crszLOBAqpU/YpS5iWmiasy55WCQzqACv/nQAij5Em3MnG7gnNEjYkvErgla//9b/+16vHCdOPBDG5fkKhBCWpTVbsZG+k1CyPoCZEimnaypgztqwkStDyu3/3764ChYSJGWfGlfbrT0jM9VLrH/fjflx17czBzIuEIQksE2qlNpmTqWVqkmPThwQnmU9pP6YZU+ZbAo6MO8FT9lz4iT/xJ1Zh0U4rsPIIYULItJ+AJyFOVjDml686wIpTgpg8Xpu5kVokYIlFHfL+/t//+6t2Mo6EoLHKWLIKMQFo+pb5+v2+3/erTDJn87UEdAmTfuAP/IHlsz/7s6u5mJAmfxIA5r8zZ+paZJ6mTgmrEuLkEeFYJeRJ+6lfVoBlzk6+4pSQLausfsEv+AXVtfJKH//KX/krVUic90xCp3jnvZ9r5usxz588Spm5l35lj7XM+fQlczzvo/Qjx+c9nNpkD7wEdBl75knmRmqdNvKezvu5DqlzbMK6PLacdvLfCdNybOqZ923mQr7H5ev5Wmximeuter+wdn+cuhoBAgQIEBiOgABrOLU0EgJDEhBg9TTAyqqPPN6X8CQ33AkwckOem+TcoGeVSFZUfPmXf3m1aiqrPRZ9hDA3l7m5TniS1SxZAZab15/1s35WteomIcyv+TW/plpllRUUWXGRm+iEGQkE/tE/+kfV9RPOJATKjWpCjQQgaaP+FL2EJrl5zaNbCdrqoCH7O2UlR8aY8Cg359nzJ+FEVn6kbwkYEg7l2KyOyV5TCR/+7t/9u9WjXb/iV/yKyqXe7DyPTybAil2CjQQeaS8BV268f8kv+SXVapxcK+fn+IQICVtyc50VLelvApOMNYFY2s8Nefaeyo14Aqkck35k/KlH+p3jEkAktEoYkqAtAWNCqoRXGXcChgR1OT7hRr6WgCkhQcaUr+drCRbS3wQuWa2TfiYcyLzI44QJghLWJLhKGJLrZmVfzBMWXrlypdobKkFMQpacG/+s+srXEyAmwEp4lXAjIWDCngQYCfbqUCersRK25vWLf/Evrq6bYCWv9C3BU4KYBDOpYfqR2v+P//E/qkc8E+Tk6+ln5lLqn/PTj4QfMf/lv/yXP/RTM+s9sPI+SLCSwDA2CTezSip1zkqrjCOr8hJw5fG6uMUoDrlugp2EOjk+c/TUqVNVvzNnE1DFPDXNI54JO/O+SkCbACvzKW4JFhMupc24JtBK4JSgMWFc3kcxy9gyV9KHXC/BUd4zOT6rmBJA5fwEhJOv+GcuJkzM3KsDrvQvbeZ9Fs8YZDVn5kI+/TK/hKaPmT95lLIOsPK+yfsngWvmR9zjluPz73mvpO5Z+ZX3V+ZXVlClRgmkEgJnHFmRlTmRcSfITYiWmmZOZYwZR7435X1S7+GVACvzMN9XEoxnjk9/0uaQftgaCwECBAgQ6JOAAKtP1dJXAuMREGB1MMCa5xHCrIRJwJRHB3NjmjAkYUxurLPqJvvjJOTJjXwCg+1WYCVsyY1mve9QbvTrTzRM4JAVOrmxziqOPF6U0CaBRW56s4olK5ey+iI3xQkbcuOdVSkJevIoUVZoJMBKEJIVWQlCstInQUNW5uTmPSFKzs31siLqpZdeqm5ys/orq6ES7GRlVoKEejP0rAhJMJQb3zzClJvg3Khn3PmBmxDtt/7W31pthp/QIGFMjOJVB1gJFmKWNnJswpaEMAkvsgomoVfGlbEnSMpNem7W09eEDFkVVq+4SRCQACshRcKpesVQQr4EC+l3btjTt3qvo6wyinv6lvAvq2XSbpzjl5v5XDfjy+qttJNXwsJ8LaFCVsAlnEz4khAqodtP+kk/qQpbcp20nz+5VgK/BDYZY/494Vr6lZoknMjfxS3BTIKmhA+pc0LChGn1nklpK3/+8T/+x9U5mV8Jcn79r//11bV/1I/6UdXqs/jEKuPKI2npW4KVhBv5+6wAi18eE0yQl6AqYWLC2PQ952cVUT58YPoTGCe/RdcBVtrOiru0lbA0oUlWb2VeJVDM3ErAkgAxIU3Cs4wjcyur3hLKpG5Z5Za5kqAwq47qvaPqvcfynkrf4pTgMaFO5nzma4LdBGkJdhJA5XG9hKM5LnMp7686hIpn5mceBc48+ZW/8ldWcy1zO31IkJpHYCdfqV9qnprl3LinnYRGeW/WnlnNlnmV4+r3Zr5P5E/eT5MBVlZgJUDOXMt7o65nvUdXrp9rJNTNnEj4l/n45ptvVv+dgDnn53tJfPNYa3xzfL4f5d/rxzkT9iWsi0nmbWqV907ec/He6XHR8fxoNlICBAgQILB+gfxs//qv+7rqd0kvAgQIdEFAgNWxACurbLJKIY/gTD9COLmJewKs3LAnzMjNa1YyJBjI6pIES/VjRPn73JDmZrH+FMLJTdyzEiariXLTmRVbuelPCJFwJKFObsiziiMBQEKd3KRnRVZuYrNaJatB8gheQo7c7Of6uUFNAJPQIwFXVlZklVZCpqzGyCe0pc3cFCfwSn8SpiQUyMqx3FwnWEgQkLYTCiVkyM1uxpWx5CY/7SU8ywqj3BinTwks8qo/hTD9yg16wqqEJrl53y7Ayt8nxMgqlgQKCQCyaiereBIeJVjJ43G5sU+IkQ3Us0IsN+95hDCPJeYxsvjl0a6sYMlNfh1gJUTMKpWEglmdlnAmYUaulRAgQV8CrHwtQVsdYKXNhHxpJ31MgFhvHJ8QKOFgrjkZYOX6CWoSMsUqgUbql/2ZEmDFrg6z6kfMEpwldMjKowRYMc2eWXl8NH1JqJgVPPU+R7lejstKqpjl0cPUPX3N9VLPBE8JsHJ+5lnOz3zMf9chTwLEhJMJcBJmJWjKL0o5PzVPMDZPgJVwJgFW2k6AlRAt1857KnMx4WPCkoSFGWMdyuXxvYQ/2Xcu40h4lPma4CUrnRLwZsyZowmx0qesssqnc6Y29T5OeW9kxdZkgJXVcwmcEizlfZC65X2W1VGpc0KwPDaaWiXAy/mZDxl7apX32nSA9Vt+y2+pAqEEUxlL+pT28shoxptVWZmjaSPBZL6XZA5vF2Dlk0xjnvpkhVrqnRAy76t6s/mMuX58Ne3lPVq/Z/NIaP7UAVaC84TeaVM5JzwAAA0rSURBVKuuQT3H8vhsArvMlTrASlCc/qXd1MSLAAECBAgQ6IaAAKsbddALAgS+VUCA1aEAKys9chOacCE3rnWAldAjN7m54c8NalbFJMCqH1tKCJLVLdnzJ48q5aYz5ydUyY32wwKs3OAmiErgkOvkpjKPgSVkyQ15QosEL3kl1EoYkhVSWUGVFVYJ27JqJjfAkwFWQqmEKAkMckOdkCX9zI1uNm1OyJA/CVEypoQIueHOjXECp3wtN+YJjHIjnbFMB1hZvZWb7azSikduuhOQ5ZW+JfjICqusfkk/c5OcEGq7ACurPzKu9HUywEpIkJUleWQrq6EmA6wEbLlGHqvKiriEdwlfsjomfYttVoplpVNW9SRsTB0zvqzoysqTBCAZY71qJSFSAqlcJ6titguw6lVKCV2mA6ysAotnAsrsk5bVX5lbOSdjTMCTACoBaMxT+9QgQU2MEkxlZVECpawESi0SIqZ2CWXyJ3MrczCBWK6XR1QTvCUEjf92AVZCyMylrM6rH+GsA6wEkAksc71lAqyEYAmB8n5JUJK5mjkb37w/svIn/54Aq/60xfpx0oSXqX0dYCVQTJCaYCd2mUcJYhJAJXyqN1F/WICVoCnXTKiXACshasaecCePimbuJ2TMyrcEWAnO6gBr1gqsPCqYQCwr7DLHMqfzHk2YmjbzCGO9j1RWOmbu5jHa1GtWgJXVnplf+X6RduKWP7FJfzNHM2fS13gmNKs/cCAhbt6DWfWY98HkCqy8VzJfElLXoVreF2kn482juqlTAvZ8j0hYl1WEDwsq/eAmQIAAAQIE2hUQYLXr7WoECOwsIMDqWICV1RsJF7IiJyuKcjOam+iECQkXEnLkJjqBTVaz5KY3P1yywig3f7lJzM1yQqW0Mx1gJUxKuJQb9e1eCQ/SXm5kEyblJjiv3MhmdVdujBMOJWDZLsBKkJGb5oRxCZ4yhoQ/GVNWaeWRrdysZ4VXjs1YslImgUYCl6x8SfsZU1ZxZPVRwpjJFVh5NCwhUdpIGJLAL4FLXgkBEhwkjKkfIczYc62s8sjNfL2Je/0I4awAKyu2EuolSEowk7okqMsqkwQseWwwN/q54Y99VjnFJGFVbtwTbCVcyOqSBE3596zKSliSR9gSZCX4SZs5PivhclNfPwpZP0KYFTwJwrISLufWK3myGifzIYFMVvEkbMnqtqwaSj8SBiVcyHlZUZVVMzk/bSU0+aW/9Jfef5Quq3gS9iS4yQq2zLnMpaxyyzxK3xN2ZCVTHl2LYdrJapv89yIBVoLL9DX1Sb1XGWDFPmPL/M97I/Mocy/9TmCTUCWPqyX8SXCXYCbhXYK9zLvUNXMzDplHccz+ZXFN+Jn3QI5JGwm1HhZgxSsrGTNPcn7ezwnAshIpAVDmV0KdegXWTgFW3gNZdZd+p38JJtPHjCvv6YTPGV/GnBpmtWPmRuZPHWDVj8XmmtmnLH3Mo4qZ/wnX8vcJ8RKuZk7m+0HaT9CZoKv+3pH+p4b5uzyqmONinjmcvuV9nnmYVWYJwfP+yP5h+R6X4DTt532U7xEJGrNa0h5YO//QdgQBAgQIEGhLQIDVlrTrECAwr4AAq0MBVm48EzDkZjErKXLjmWAgIUjCloRAWdmQG8jJACs3vdn3KjfCWV2SG+uETgkXJgOsPOqV9nLDmRUz9Sqo6U/+yo1vHuvJKzewWeFU7+mU8CWP1mXFVVaB/L/27uC3rqOK4/j4pW3i2CipFFOkItJdg4golajaOCyKwoZNk1BUJFK67n9Fi0RVYnCkJihO68SNsyibZJPEgdIFQTGLUoRjO8VRI5t8jjLmKRQoi8pe/K70ZN9375058z1n3vP8fGbGYJoA9HkZWKYmmVZndzNlGji711Q17fG8bA4iCVHA4JeY0Xc5lB3GRotFf56AJStKloppfKYydjGMCEGQ0H7CETvURziwwDUxx+Da4NuUN2IfIWhYwCLkWLOLwMAXpkKy10Df82fPnq31f2SNsJe41wVE75seKOuKINAFLMIZXgQ9C5YTtAgSMmqILsRJg38xQMhTJgGLAEfQIpTwp6luhAsZVOzGgCjpmimZ/KsOwgD/WYdJhh0hBgOiJ7FKNpXrREAxRrQgOBBynA8LWNYy6lP+iHh97SjlyMASb6aoEgiJJf9tCiERkgBDJMVO/f9LwOrCj58Pr5M0vAaWbCNCZc8Y0yf4hUBCaCR0ynAjuhFuZB3xl3bLqMJnOAOLP8QR8ZIPHLixnRBIwNIXrYFFMNUXh6cQWpdNX2K3fsk2fuMbwqN1ssSh975IBhYxl1+0QWyLTX3Me2JRdmY/+LDv9uea7D9xK1Y8J1vTdQKnuCaKeunr7LNrpf7hPnWwnxDYD1ma+qAptDLnxDJBjC/FKCFW5pqYIILKytOPtBUTrAjXpm/KniQ+ZxfCL/rVnftCIARCIARC4MsnEAHry2ecGkIgBP4/AhGwhng98uijJSoQQLbqMECViUSMIBR888CB9ocPP6yBoIGmNYnuffZZe//ixXbt6tX20xMnSswgMPzq7bfbocnJGqj7wpHt8OebNyuzYd/ERPvFm2+2ldXVGnR/ZXy83pvYt6/tffzxTYGKiCYDgzBx0NpLR47UoLYfppYRUgguylGHTCt24WZdLtlVbJeV8bdPPmk/f+ONWovHYJitfQF2GTA/eeWVtv+pp0owOTU93f6+tFRTvZRv17KvPfFE2zU6WvVYRJKww+7FW7fa/KVLNaD2ct3ubtq6d8+eNnv+fGV3qJMd78/NtesLC+34sWNtfWOjnTl9ut1aXKypd+w3RZHQ4ZzQJENIOwkXhCsCIXtkee0eHW3vzc4W8x+//HL79jPPlGDz1YmJyjI5OTVVIgs/3Fldbb+9b5vfCY/vvftuu3zlSgl+Mrt+98EH7ezMTIloR196qf3xo48qe4jgsrG+3n4zPV2ZL0Q+7SG8fe/w4fbd556rZ0+fOVMiiEW1xYwsPewJZ9pE3PKsa32qIjGDwEZ4OfD00+2HD3YhJCTsu7+A/c9ee62mEMrAM7VL9pGsO1PCvv7kk3U/scJ5LYj++uvlI6KOutW5srxcYpo+1QVJ0+5k7fzo+PE2Mhi0czMz7YVDh8p/xA1CH7HNNFAC1+l33ql4ILgQpGQa8e039u/fjFdxqT9cnJ9vC9evtxOvvlqCq4Ntv56aKp7Ep+/fn8YnRmRcTepLL75YHKZOnmzfOniwOC3fvl3X9+zdW8/89eOP2/SpU+W7Y0ePVrk46ZPEPxlPBFmZTkQxIurvb9won77w/PMlyF6Ymyvx6AdHjrTvPPtsu3L5cps5d66yEQlJRDbTawmP+oQ4w85ujz2jsPc//VocEIXFOsGaoEY0ElM9W9L9YnHuwoX2p5s3qy67Ccr84g99QhmX5ucrxmWI3V5erud9BpiSrN8fnpws+30uin3C97qstsGgbCaI6dPY3VhYaL98661qA0FsdWWl2IltPv3L4mIJY2Pj45WVJZvt/Oxsu3rtWmWn6Q9dKN+qz9/UGwIhEAIhEAIh8C8CvvP9I9nfZTlCIARCYDsQiIA17IWRkTYYGdlSv2y01tYebFkv06evBSXjhSji3ADTuUE9scVA02BVFolneoYKEcOA1zlxSXaJc1kOBoo942JYoCpB4N69EkDU9fCaNOp2zfOmzRGmlLdz166GXLeLHd53P1HOTyIAO5Tvy9AgeHxsbHNBcva5xl7Pal/ZOhgUE8IT8UgZ2qHNbHAPO9bu3t287lxZBsndTvf3hbu1QYaTc9fvfPpp2e9c25TPnt6OvmMg21xXfuev/s5VO5W1YzBoo3buW1+ve7sP/N59uWn32tqm39js1bmzk3/wJdSwib2ua+9dZe/eXc+7ro1+d4iHnrHk/Xr2scfa2IMdBV3HUpvVye5Hduxou8fGym52qsur83C/tvRzDPuUss5L3HhfWx2dWY+NHp89w0757mdPtY39D+KMz2tXzI2Napv63fPwMdwfugCtTDZ5ThmYVTvv3KnYxqm3wzUvz2De29nLUF9fYFzsek67uw+rjvHx8nvvP8pTz127QK6tVflebNV2NvHtcCz22PYe8W/Xzp3/1lbla1fvJ+4d5jz8wHB/xPIfDz3H7v65oq2dnfL9zn62shOvYYGp+9h92qU/9Jjr/azHa2eNnbIIYspie++nW/mPgy390E/lIRACIRACIbCNCfj7wd9hOUIgBEJgOxCIgLUdvBAbQiAEQiAEQiAEQiAEQiAEQiAEQiAEQiAE/iOBCFgJjhAIgRAIgRAIgRAIgRAIgRAIgRAIgRAIgW1NIALWtnZPjAuBEAiBEAiBEAiBEAiBEAiBEAiBEAiBEIiAlRgIgRAIgRAIgRAIgRAIgRAIgRAIgRAIgRDY1gQiYG1r98S4EAiBEAiBEAiBEAiBEAiBEAiBEAiBEAiBkZWVlQ07Qy0tLdVW9naMs3NVtktNcIRACIRACIRACIRACIRACIRACIRACIRACGw1ATu+/xOVgA2sv2uP2gAAAABJRU5ErkJggg==;" vertex="1" parent="1">
                    <mxGeometry x="20" y="70" width="1191.11" height="670" as="geometry"/>
                </mxCell>
                <mxCell id="5" value="Webshop" style="shape=umlFrame;whiteSpace=wrap;html=1;pointerEvents=0;recursiveResize=0;container=1;collapsible=0;width=160;" vertex="1" parent="1">
                    <mxGeometry x="250" y="810" width="600" height="290" as="geometry"/>
                </mxCell>
                <mxCell id="8" value="Einloggen" style="ellipse;html=1;whiteSpace=wrap;" vertex="1" parent="5">
                    <mxGeometry x="100" y="110" width="120" height="50" as="geometry"/>
                </mxCell>
                <mxCell id="9" value="Bestellung&amp;nbsp;&lt;div&gt;aufgeben&lt;/div&gt;&lt;div&gt;EP: Einloggen&lt;/div&gt;" style="ellipse;html=1;whiteSpace=wrap;" vertex="1" parent="5">
                    <mxGeometry x="100" y="210" width="120" height="50" as="geometry"/>
                </mxCell>
                <mxCell id="7" value="Angebote&lt;div&gt;ansehen&lt;/div&gt;" style="ellipse;html=1;whiteSpace=wrap;" vertex="1" parent="5">
                    <mxGeometry x="100" y="50" width="120" height="50" as="geometry"/>
                </mxCell>
                <mxCell id="12" value="&amp;lt;&amp;lt;extends&amp;gt;&amp;gt;" style="endArrow=open;startArrow=none;endFill=0;startFill=0;endSize=8;html=1;verticalAlign=bottom;dashed=1;labelBackgroundColor=none;exitX=0.5;exitY=0;exitDx=0;exitDy=0;entryX=0.5;entryY=1;entryDx=0;entryDy=0;" edge="1" parent="5" source="9" target="8">
                    <mxGeometry width="160" relative="1" as="geometry">
                        <mxPoint x="270" y="150" as="sourcePoint"/>
                        <mxPoint x="430" y="150" as="targetPoint"/>
                    </mxGeometry>
                </mxCell>
                <mxCell id="13" value="EP: Einloggen" style="shape=note2;boundedLbl=1;whiteSpace=wrap;html=1;size=25;verticalAlign=top;align=left;spacingLeft=5;" vertex="1" parent="5">
                    <mxGeometry x="220" y="160" width="170" height="50" as="geometry"/>
                </mxCell>
                <mxCell id="14" value="{Wenn nicht eingeloggt}" style="resizeWidth=1;part=1;strokeColor=none;fillColor=none;align=left;spacingLeft=5;whiteSpace=wrap;html=1;" vertex="1" parent="13">
                    <mxGeometry width="170" height="25" relative="1" as="geometry"/>
                </mxCell>
                <mxCell id="15" value="" style="endArrow=none;startArrow=none;endFill=0;startFill=0;endSize=8;html=1;verticalAlign=bottom;dashed=1;labelBackgroundColor=none;dashPattern=10 10;entryX=0;entryY=1;entryDx=0;entryDy=0;" edge="1" parent="5" target="14">
                    <mxGeometry width="160" relative="1" as="geometry">
                        <mxPoint x="160" y="190" as="sourcePoint"/>
                        <mxPoint x="390" y="74.5" as="targetPoint"/>
                    </mxGeometry>
                </mxCell>
                <mxCell id="10" style="edgeStyle=none;html=1;exitX=0.5;exitY=0.5;exitDx=0;exitDy=0;exitPerimeter=0;entryX=0;entryY=0.5;entryDx=0;entryDy=0;" edge="1" parent="1" source="6" target="7">
                    <mxGeometry relative="1" as="geometry"/>
                </mxCell>
                <mxCell id="6" value="Kunde" style="shape=umlActor;verticalLabelPosition=bottom;verticalAlign=top;html=1;" vertex="1" parent="1">
                    <mxGeometry x="120" y="850" width="30" height="60" as="geometry"/>
                </mxCell>
                <mxCell id="11" style="edgeStyle=none;html=1;exitX=0.5;exitY=0.5;exitDx=0;exitDy=0;exitPerimeter=0;entryX=-0.008;entryY=0.64;entryDx=0;entryDy=0;entryPerimeter=0;" edge="1" parent="1" source="6" target="8">
                    <mxGeometry relative="1" as="geometry"/>
                </mxCell>
                <mxCell id="16" value="Beispiel-Lösung:" style="text;html=1;align=left;verticalAlign=middle;whiteSpace=wrap;rounded=0;" vertex="1" parent="1">
                    <mxGeometry x="20" y="760" width="140" height="30" as="geometry"/>
                </mxCell>
            </root>
        </mxGraphModel>
    </diagram>
</mxfile>